SplineFontDB: 3.2
FontName: Dimock
FullName: Dimock
FamilyName: Dimock
Weight: Regular
Copyright: Copyright (c) 2018, Zach West
Version: 0.002
ItalicAngle: -9.5
UnderlinePosition: -100
UnderlineWidth: 50
Ascent: 800
Descent: 200
InvalidEm: 0
sfntRevision: 0x00000083
LayerCount: 2
Layer: 0 0 "Back" 1
Layer: 1 0 "Fore" 0
HasVMetrics: 1
XUID: [1021 209 259205530 3122]
StyleMap: 0x0040
FSType: 0
OS2Version: 4
OS2_WeightWidthSlopeOnly: 0
OS2_UseTypoMetrics: 0
CreationTime: 1537292998
ModificationTime: 1579806095
PfmFamily: 17
TTFWeight: 400
TTFWidth: 5
LineGap: 90
VLineGap: 0
Panose: 3 0 5 0 0 0 0 0 0 0
OS2TypoAscent: 800
OS2TypoAOffset: 0
OS2TypoDescent: -200
OS2TypoDOffset: 0
OS2TypoLinegap: 90
OS2WinAscent: 801
OS2WinAOffset: 0
OS2WinDescent: 190
OS2WinDOffset: 0
HheadAscent: 801
HheadAOffset: 0
HheadDescent: -190
HheadDOffset: 0
OS2SubXSize: 650
OS2SubYSize: 699
OS2SubXOff: 0
OS2SubYOff: 140
OS2SupXSize: 650
OS2SupYSize: 699
OS2SupXOff: 0
OS2SupYOff: 479
OS2StrikeYSize: 49
OS2StrikeYPos: 258
OS2CapHeight: 782
OS2XHeight: 556
OS2Vendor: 'PfEd'
OS2CodePages: 00000000.00000000
OS2UnicodeRanges: 00000001.00000000.00000000.00000000
Lookup: 258 0 0 "ll" { "ll-1" [150,15,0] } ['kern' ('DFLT' <'dflt' > 'latn' <'dflt' > ) ]
MarkAttachClasses: 1
DEI: 91125
LangName: 1033 "" "" "" "FontForge 2.0 : Dimock : 25-4-2019"
MATH:ScriptPercentScaleDown: 80
MATH:ScriptScriptPercentScaleDown: 60
MATH:DelimitedSubFormulaMinHeight: 1500
MATH:DisplayOperatorMinHeight: 0
MATH:MathLeading: 0 
MATH:AxisHeight: 0 
MATH:AccentBaseHeight: 530 
MATH:FlattenedAccentBaseHeight: 791 
MATH:SubscriptShiftDown: 140 
MATH:SubscriptTopMax: 530 
MATH:SubscriptBaselineDropMin: 0 
MATH:SuperscriptShiftUp: 479 
MATH:SuperscriptShiftUpCramped: 0 
MATH:SuperscriptBottomMin: 530 
MATH:SuperscriptBaselineDropMax: 0 
MATH:SubSuperscriptGapMin: 200 
MATH:SuperscriptBottomMaxWithSubscript: 530 
MATH:SpaceAfterScript: 41 
MATH:UpperLimitGapMin: 0 
MATH:UpperLimitBaselineRiseMin: 0 
MATH:LowerLimitGapMin: 0 

StartChar: .notdef
Encoding: 256 -1 0
Width: 411
Flags: HMW
HStem: 0 50<60 360 60 410> 483 50<60 360 60 60>
VStem: 10 50<50 50 50 483> 360 50<50 483 483 483>
LayerCount: 2
Fore
SplineSet
10 0 m 1
 10 533 l 1
 410 533 l 1
 410 0 l 1
 10 0 l 1
60 50 m 1
 360 50 l 1
 360 483 l 1
 60 483 l 1
 60 50 l 1
EndSplineSet
Validated: 1
EndChar

StartChar: zero
Encoding: 48 48 1
Width: 674
Flags: HMW
HStem: 375 60 666 81
VStem: 20.1052 66 275.105 66
LayerCount: 2
Fore
SplineSet
305 435 m 0
 308 436 311 436 314 436 c 0
 326 436 339 430 341 417 c 0
 341 416 341 414 341 413 c 0
 341 394 330 379 311 375 c 0
 309 375 307 374 305 374 c 0
 290 374 277 386 275 402 c 0
 275 403 275 404 275 405 c 0
 275 420 289 431 305 435 c 0
443 666 m 0
 394 663 366 653 323 630 c 0
 273 604 233 563 209 543 c 0
 180 520 158 511 137 480 c 0
 114 446 108 422 98 381 c 0
 88 339 87 313 86 270 c 0
 86 242 90 226 95 198 c 0
 100 170 93 149 110 126 c 0
 131 97 151 84 185 75 c 0
 204 70 220 67 235 67 c 0
 254 67 271 71 293 78 c 0
 331 90 346 110 377 135 c 0
 416 167 413 156 473 222 c 0
 506 259 520 283 548 324 c 0
 561 344 574 354 578 378 c 0
 582 402 584 422 584 441 c 0
 584 458 582 475 577 496 c 0
 567 536 567 565 541 601 c 0
 525 623 511 625 488 639 c 0
 471 650 464 666 445 666 c 0
 444 666 444 666 443 666 c 0
458 747 m 0
 507 746 532 694 569 651 c 0
 606 607 627 574 643 524 c 0
 651 499 654 477 654 455 c 0
 654 399 631 350 599 291 c 0
 572 240 537 198 488 147 c 0
 446 104 407 86 353 51 c 0
 327 34 312 17 281 15 c 0
 274 14 268 14 262 14 c 0
 226 14 200 24 161 36 c 0
 128 46 105 52 83 78 c 0
 53 112 48 140 32 183 c 0
 24 204 20 218 20 238 c 0
 20 242 20 245 20 249 c 0
 24 308 29 342 47 399 c 0
 60 438 76 457 98 492 c 0
 123 531 136 554 167 588 c 0
 192 616 211 628 242 648 c 0
 279 672 301 683 341 702 c 0
 376 719 392 729 428 743 c 0
 437 747 449 747 458 747 c 0
EndSplineSet
Validated: 1
EndChar

StartChar: one
Encoding: 49 49 2
Width: 260
Flags: HMW
VStem: 19.8149 60<112 127.5>
LayerCount: 2
Fore
SplineSet
178 736 m 0
 181 745 180 754 188 760 c 0
 194 765 201 763 208 760 c 0
 222 755 237 754 240 740 c 0
 240 738 240 737 240 735 c 0
 240 719 226 710 220 694 c 0
 210 667 203 652 196 624 c 0
 194 618 194 612 194 607 c 0
 194 603 194 599 194 596 c 0
 194 590 194 583 192 576 c 0
 188 562 179 557 174 544 c 0
 167 524 166 512 160 492 c 2
 124 366 l 2
 114 332 107 313 100 278 c 0
 93 242 93 221 88 184 c 0
 85 166 81 156 80 138 c 0
 79 129 79 121 79 114 c 0
 79 104 79 95 80 82 c 0
 80 73 77 67 84 60 c 0
 92 52 104 60 110 52 c 0
 116 44 110 37 108 28 c 0
 106 21 106 14 100 12 c 0
 95 10 91 10 87 10 c 0
 80 10 74 12 68 16 c 0
 54 26 52 38 44 52 c 0
 38 63 34 70 30 82 c 0
 25 96 20 104 20 120 c 0
 20 135 27 143 28 158 c 0
 28 162 28 166 28 170 c 0
 28 188 25 202 25 220 c 0
 25 224 26 228 26 232 c 0
 27 248 32 256 36 272 c 0
 39 284 40 290 44 302 c 0
 52 325 59 336 66 360 c 0
 72 382 70 396 76 418 c 0
 83 443 92 456 100 480 c 0
 109 505 111 519 120 544 c 0
 127 565 135 575 140 596 c 0
 141 601 141 606 141 611 c 0
 141 616 141 620 141 625 c 0
 141 631 141 637 144 644 c 0
 148 657 161 659 166 672 c 0
 172 687 169 698 172 714 c 0
 174 723 175 728 178 736 c 0
EndSplineSet
Validated: 1
EndChar

StartChar: glyph16
Encoding: 50 50 3
Width: 641
Flags: W
HStem: 14 21G<53.5 63> 156 40<295.243 445.378> 731 46<423.828 545.854>
VStem: 558 63<629.82 724.247>
LayerCount: 2
Fore
SplineSet
170 609 m 0
 214 650 248 663 299 696 c 0
 341 723 363 745 410 762 c 0
 444 774 468 777 501 777 c 0
 507 777 514 777 521 777 c 0
 554 776 576 777 602 756 c 0
 616 745 621 730 621 713 c 0
 621 708 621 702 620 696 c 0
 612 646 597 620 572 576 c 0
 544 526 522 500 485 456 c 0
 396 350 335 308 249 200 c 0
 243 192 247 172 255 176 c 0
 275 187 290 188 307 188 c 0
 311 188 315 188 319 188 c 0
 330 188 343 189 359 192 c 0
 371 195 383 196 393 196 c 0
 417 196 438 190 467 183 c 0
 482 179 491 172 500 159 c 0
 511 145 518 134 518 117 c 0
 518 115 518 113 518 111 c 0
 517 99 505 90 494 93 c 0
 475 99 475 119 458 129 c 0
 433 144 418 154 389 156 c 0
 386 156 384 156 381 156 c 0
 351 156 333 145 302 138 c 0
 265 129 244 125 209 111 c 0
 178 98 163 85 134 69 c 0
 84 42 98 30 68 15 c 0
 66 14 64 14 62 14 c 0
 45 14 20 38 20 55 c 0
 20 55 20 56 20 57 c 0
 26 96 71 92 101 120 c 0
 126 143 134 162 158 186 c 0
 186 214 207 224 236 252 c 0
 269 284 286 304 317 339 c 0
 349 375 366 396 398 432 c 0
 432 471 454 489 485 531 c 0
 503 555 504 574 521 600 c 0
 534 620 532 628 551 651 c 0
 556 657 558 664 558 672 c 0
 558 687 552 704 546 721 c 0
 543 728 533 731 520 731 c 0
 503 731 483 726 474 724 c 0
 439 715 429 713 396 697 c 0
 371 685 358 675 335 660 c 0
 309 643 290 640 266 621 c 0
 245 605 246 580 221 570 c 0
 218 569 216 569 213 569 c 0
 201 569 193 580 182 588 c 0
 175 594 163 603 170 609 c 0
EndSplineSet
Validated: 1
EndChar

StartChar: glyph18
Encoding: 51 51 4
Width: 528
Flags: HMW
HStem: 738 46<260.599 280.599>
VStem: 317.599 56
LayerCount: 2
Fore
SplineSet
46 796 m 0
 51 797 56 797 60 797 c 0
 95 797 119 782 158 780 c 0
 165 780 171 780 178 780 c 0
 216 780 243 784 286 784 c 0
 317 784 335 781 366 778 c 0
 397 774 415 771 446 766 c 0
 451 765 455 765 460 765 c 0
 463 765 466 765 470 765 c 0
 480 765 490 764 500 756 c 0
 506 750 508 744 508 736 c 0
 508 730 507 723 506 716 c 0
 503 700 497 691 486 678 c 0
 467 654 453 642 430 622 c 0
 399 595 381 581 348 558 c 0
 325 542 311 533 286 520 c 0
 258 506 240 502 212 488 c 0
 197 481 186 479 174 466 c 0
 169 461 169 453 174 448 c 0
 187 434 198 433 214 422 c 0
 236 407 248 398 270 382 c 0
 289 369 301 364 318 348 c 0
 333 334 340 323 350 306 c 0
 359 291 362 281 366 264 c 0
 371 242 373 229 374 206 c 0
 374 200 374 195 374 190 c 0
 374 181 373 173 370 164 c 0
 363 148 354 142 342 128 c 0
 327 110 319 100 302 84 c 0
 284 67 275 57 254 44 c 0
 241 36 233 32 218 30 c 0
 204 28 194 27 184 27 c 0
 174 27 165 28 154 30 c 0
 137 33 129 38 114 46 c 0
 99 53 91 58 78 68 c 0
 68 76 61 79 54 90 c 0
 44 105 42 116 36 132 c 0
 30 150 24 159 22 178 c 0
 21 185 20 191 20 198 c 0
 20 204 21 210 28 214 c 0
 37 220 47 224 56 224 c 0
 63 224 70 222 78 218 c 0
 88 212 73 200 74 188 c 0
 76 171 79 161 86 146 c 0
 93 131 98 122 110 110 c 0
 120 100 126 94 140 90 c 0
 146 88 152 87 158 87 c 0
 167 87 175 89 186 90 c 0
 203 92 214 92 230 100 c 0
 251 110 261 118 278 134 c 0
 291 147 298 155 306 172 c 0
 314 189 316 199 318 218 c 0
 318 224 319 229 319 234 c 0
 319 245 317 254 314 266 c 0
 310 281 304 288 294 300 c 0
 280 317 271 325 254 340 c 0
 237 355 226 361 208 374 c 0
 185 391 176 406 150 418 c 0
 144 421 139 421 134 421 c 0
 128 421 122 420 115 420 c 0
 111 420 106 420 102 422 c 0
 90 426 82 432 78 444 c 0
 76 450 75 455 75 460 c 0
 75 467 77 473 82 478 c 0
 100 496 119 496 142 508 c 0
 169 522 183 531 210 546 c 0
 231 558 243 566 264 578 c 0
 288 592 303 598 326 614 c 0
 347 629 356 640 376 656 c 0
 387 665 393 669 406 676 c 0
 419 683 431 679 442 690 c 0
 449 697 452 708 446 716 c 0
 437 728 425 728 410 730 c 0
 398 732 389 732 380 732 c 0
 372 732 363 732 354 732 c 0
 350 732 346 732 342 732 c 0
 312 734 296 738 266 738 c 0
 238 738 222 733 194 732 c 0
 183 732 173 732 165 732 c 0
 141 732 121 733 92 734 c 0
 79 735 69 733 58 740 c 0
 48 746 44 755 42 766 c 0
 40 778 34 795 46 796 c 0
EndSplineSet
Validated: 1
EndChar

StartChar: four
Encoding: 52 52 5
Width: 539
Flags: HMW
HStem: 404 72
VStem: 278.478 67
LayerCount: 2
Fore
SplineSet
253 657 m 0
 243 631 228 620 213 596 c 0
 194 564 186 544 167 512 c 0
 151 485 139 471 123 444 c 0
 114 429 110 420 103 404 c 0
 90 374 87 356 73 326 c 0
 67 314 60 308 57 296 c 0
 55 288 56 280 59 276 c 0
 61 273 79 266 89 272 c 0
 103 280 112 284 127 294 c 0
 149 309 164 317 187 330 c 0
 202 338 210 341 225 350 c 0
 242 360 251 367 267 378 c 0
 287 391 298 401 319 412 c 0
 324 414 329 415 333 415 c 0
 335 415 336 414 337 414 c 0
 343 414 348 415 351 420 c 0
 367 443 363 461 371 488 c 0
 380 517 386 533 395 562 c 0
 403 586 408 600 415 624 c 0
 423 650 427 664 433 690 c 0
 439 717 433 736 447 760 c 0
 457 778 472 782 491 788 c 0
 500 791 509 788 515 780 c 0
 521 772 521 763 517 754 c 0
 513 745 502 747 497 738 c 0
 487 718 488 705 481 684 c 0
 474 662 473 651 467 629 c 0
 460 602 457 584 449 558 c 0
 439 527 426 511 417 480 c 0
 415 475 416 467 421 466 c 0
 422 466 423 466 423 466 c 0
 436 466 442 475 455 476 c 0
 465 477 477 479 479 470 c 0
 481 463 482 456 482 450 c 0
 482 437 479 426 473 412 c 0
 470 404 462 404 453 404 c 4
 453 404 453 404 452 404 c 4
 440 404 429 414 419 414 c 0
 416 414 413 413 409 410 c 0
 389 393 393 373 387 348 c 0
 375 303 371 276 363 230 c 0
 355 184 349 158 345 112 c 0
 345 106 345 101 345 95 c 0
 345 84 346 73 346 62 c 0
 346 58 346 55 345 52 c 0
 344 34 338 20 321 12 c 0
 310 7 302 19 295 28 c 0
 285 41 278 57 278 70 c 0
 278 98 289 114 296 142 c 0
 306 185 302 209 310 253 c 0
 317 291 335 335 335 352 c 0
 335 357 334 359 331 360 c 0
 330 360 328 361 326 361 c 0
 316 361 312 352 299 341 c 0
 270 317 251 316 219 296 c 0
 181 273 161 257 119 242 c 0
 105 236 93 235 81 235 c 0
 73 235 65 236 55 236 c 0
 46 236 41 240 33 246 c 0
 28 250 24 254 23 260 c 0
 21 273 20 283 20 293 c 0
 20 300 20 307 21 316 c 0
 23 334 28 344 35 360 c 0
 45 384 53 397 65 420 c 2
 93 476 l 2
 105 500 111 514 125 536 c 0
 141 561 154 573 169 598 c 0
 179 614 179 626 189 642 c 0
 199 657 204 667 219 676 c 0
 227 681 235 681 243 676 c 0
 251 671 256 666 253 657 c 0
EndSplineSet
Validated: 1
EndChar

StartChar: five
Encoding: 53 53 6
Width: 525
Flags: HMW
HStem: 726 48<302.219 366.219 346.719 366.219 346.719 366.719>
LayerCount: 2
Fore
SplineSet
160 720 m 0
 159 722 159 724 159 726 c 0
 159 736 167 745 177 750 c 0
 199 761 215 758 239 762 c 0
 265 766 279 769 305 772 c 0
 325 774 337 774 357 774 c 0
 376 774 386 773 405 770 c 0
 433 765 454 769 477 752 c 0
 494 739 505 724 505 703 c 0
 505 700 505 697 505 694 c 0
 504 687 496 685 488 685 c 0
 479 685 469 687 462 689 c 0
 445 694 441 705 424 710 c 0
 401 717 390 723 367 726 c 0
 359 727 353 727 348 727 c 0
 337 727 328 726 314 726 c 0
 301 726 292 729 283 729 c 0
 276 729 269 727 262 719 c 0
 246 702 253 689 249 666 c 0
 245 645 238 634 231 614 c 0
 223 590 219 576 209 552 c 0
 201 533 192 524 185 504 c 0
 181 494 173 483 173 475 c 0
 173 472 175 468 179 466 c 0
 182 464 185 463 188 463 c 0
 201 463 211 477 227 480 c 0
 236 482 242 483 249 483 c 0
 253 483 258 482 263 482 c 0
 277 481 286 482 299 476 c 0
 315 468 321 459 333 446 c 0
 349 428 358 418 369 396 c 0
 377 379 379 368 381 348 c 0
 381 341 382 336 382 330 c 0
 382 319 381 309 381 296 c 0
 381 283 382 273 382 262 c 0
 382 256 382 251 381 244 c 0
 377 220 371 206 363 184 c 0
 351 153 345 135 329 106 c 0
 317 84 310 72 293 54 c 0
 279 39 269 30 251 22 c 0
 239 17 230 15 219 15 c 0
 215 15 210 15 205 16 c 0
 182 18 171 26 149 32 c 0
 133 37 123 41 107 44 c 0
 90 47 80 48 63 48 c 0
 53 48 45 44 38 44 c 0
 35 44 32 44 29 46 c 0
 23 49 20 59 20 68 c 0
 20 72 20 76 22 78 c 0
 29 89 42 86 55 88 c 0
 62 89 68 90 75 90 c 0
 83 90 92 89 102 87 c 0
 120 84 131 81 149 79 c 0
 168 77 176 68 195 68 c 0
 209 68 219 68 231 76 c 0
 245 85 249 95 259 108 c 0
 271 124 278 133 287 150 c 0
 297 170 300 183 307 204 c 0
 315 227 322 240 325 264 c 0
 326 275 327 284 327 293 c 0
 327 305 326 315 323 330 c 0
 318 355 311 369 301 392 c 0
 295 406 295 420 281 426 c 0
 273 430 265 431 258 431 c 0
 248 431 238 429 227 426 c 0
 204 420 193 411 171 400 c 0
 154 392 147 383 129 378 c 0
 120 376 113 373 107 373 c 0
 102 373 97 374 93 378 c 0
 85 384 78 394 78 403 c 0
 78 407 79 411 82 414 c 0
 99 440 107 458 122 486 c 0
 135 510 143 523 154 548 c 0
 162 567 164 578 171 598 c 0
 177 616 183 625 187 644 c 0
 189 654 190 662 190 670 c 0
 190 677 189 684 186 693 c 0
 180 708 165 704 160 720 c 0
EndSplineSet
Validated: 1
EndChar

StartChar: glyph17
Encoding: 54 54 7
Width: 376
Flags: HMW
VStem: 19.6079 52<134.5 161>
LayerCount: 2
Fore
SplineSet
226 390 m 0
 220 391 214 391 209 391 c 0
 196 391 184 388 174 378 c 0
 156 361 162 341 152 318 c 0
 146 304 136 299 132 284 c 0
 127 264 129 252 128 232 c 0
 127 230 127 228 127 226 c 0
 127 219 128 213 128 206 c 0
 128 203 128 200 128 196 c 0
 127 190 125 179 120 182 c 0
 102 191 104 219 85 219 c 4
 84 219 84 219 84 219 c 0
 73 218 72 208 72 197 c 0
 72 195 72 192 72 190 c 0
 72 187 72 183 72 180 c 0
 70 171 70 165 70 158 c 0
 70 150 71 142 72 132 c 0
 73 122 75 117 78 108 c 0
 81 99 80 92 88 86 c 0
 101 76 110 71 126 68 c 0
 144 65 157 63 173 63 c 0
 180 63 187 63 196 64 c 0
 217 66 230 67 248 78 c 0
 266 89 273 100 284 118 c 0
 295 137 300 150 304 172 c 0
 305 180 306 187 306 194 c 0
 306 205 304 216 302 230 c 0
 298 255 292 268 284 292 c 0
 278 310 272 319 264 336 c 0
 257 350 255 359 246 372 c 0
 240 381 236 389 226 390 c 0
302 770 m 0
 308 777 317 778 326 776 c 0
 335 774 342 771 346 762 c 0
 348 756 350 750 350 744 c 0
 350 740 349 735 348 730 c 0
 343 709 335 700 326 680 c 0
 315 656 310 641 296 618 c 0
 289 606 279 603 272 592 c 0
 259 571 257 558 246 536 c 0
 234 513 228 500 214 478 c 0
 208 469 201 467 196 458 c 0
 191 450 182 441 188 434 c 0
 199 422 212 428 228 422 c 0
 242 416 251 413 262 404 c 0
 279 390 288 381 300 362 c 0
 318 333 324 315 336 284 c 0
 344 263 348 250 352 228 c 0
 355 210 356 198 356 184 c 0
 356 178 356 172 356 166 c 0
 355 144 352 132 344 112 c 0
 336 93 330 83 316 68 c 0
 300 52 289 44 268 34 c 0
 245 23 231 19 206 16 c 0
 192 14 181 13 170 13 c 0
 158 13 146 14 130 16 c 0
 112 18 101 20 84 28 c 0
 71 34 66 41 56 52 c 0
 44 65 36 72 30 88 c 0
 22 109 20 123 20 146 c 0
 20 176 23 192 28 222 c 0
 32 245 35 258 44 280 c 0
 53 304 62 315 74 338 c 0
 90 369 99 387 116 418 c 0
 134 450 144 468 162 500 c 0
 178 528 189 542 204 570 c 0
 219 597 224 615 238 642 c 0
 254 672 267 687 282 718 c 0
 292 737 289 753 302 770 c 0
EndSplineSet
Validated: 1
EndChar

StartChar: seven
Encoding: 55 55 8
Width: 637
Flags: HMW
HStem: 620 56 712 62
LayerCount: 2
Fore
SplineSet
53.734375 692 m 0
 83.734375 692 97.734375 678 127.734375 676 c 0
 138.734375 675 148.734375 675 157.734375 675 c 0
 161.734375 675 165.921875 674.9375 170.1875 674.9375 c 0
 182.984375 674.9375 196.484375 675.5 207.734375 680 c 0
 232.734375 690 250.734375 698 259.734375 700 c 0
 275.734375 703 288.734375 705 307.734375 710 c 0
 332.734375 717 346.734375 722 371.734375 730 c 0
 394.734375 737 408.734375 743 431.734375 748 c 0
 464.734375 756 483.734375 759 517.734375 764 c 0
 543.734375 768 560.734375 774 584.734375 774 c 0
 588.734375 774 591.734375 774 595.734375 774 c 0
 606.734375 773 615.734375 767 617.734375 756 c 0
 617.734375 754 617.734375 753 617.734375 752 c 0
 617.734375 738 609.734375 730 603.734375 716 c 0
 587.734375 683 579.734375 664 559.734375 634 c 0
 538.734375 603 523.734375 588 499.734375 560 c 0
 464.734375 518 460.734375 502 429.734375 458 c 0
 414.734375 438 396.734375 416 381.734375 396 c 0
 365.734375 375 364.734375 372 346.734375 352 c 0
 328.734375 331 311.734375 312 291.734375 292 c 2
 259.734375 260 l 2
 197.734375 194 162.734375 157 101.734375 90 c 0
 95.734375 83 95.734375 73 93.734375 64 c 0
 90.734375 50 119.734375 45 107.734375 39 c 0
 97.734375 34 90.734375 32 83.734375 32 c 0
 71.734375 32 60.734375 38 41.734375 40 c 0
 32.734375 41 31.734375 50 27.734375 58 c 0
 23.734375 67 16.734375 75 21.734375 84 c 0
 40.734375 116 61.734375 126 85.734375 154 c 0
 132.734375 207 153.734375 242 203.734375 292 c 0
 211.734375 300 216.734375 307 224.734375 315 c 0
 265.734375 355 284.734375 375 319.734375 420 c 0
 330.734375 434 331.734375 443 341.734375 456 c 0
 412.734375 551 463.734375 596 533.734375 692 c 0
 538.734375 698 537.734375 712 529.734375 712 c 0
 526.734375 712 523.734375 712 521.734375 712 c 0
 495.734375 712 478.734375 703 451.734375 696 c 0
 391.734375 680 359.734375 666 299.734375 652 c 0
 271.734375 645 255.734375 647 227.734375 642 c 0
 189.734375 635 169.734375 623 131.734375 620 c 0
 128.734375 620 125.734375 620 122.734375 620 c 0
 105.734375 620 94.734375 625 75.734375 630 c 0
 60.734375 634 49.734375 634 39.734375 646 c 0
 32.734375 655 33.734375 664 37.734375 676 c 0
 40.734375 684 44.734375 692 53.734375 692 c 0
EndSplineSet
Validated: 1
EndChar

StartChar: eight
Encoding: 56 56 9
Width: 505
Flags: HMW
HStem: 600 44 610 42<337.115 343.115 314.615 357.115>
VStem: 74.6154 33 154.615 52<364 400.5> 245.615 49
LayerCount: 2
Fore
SplineSet
167 344 m 0x38
 141 334 139 318 121 296 c 0
 114 287 110 282 107 270 c 0
 103 255 98 249 91 235 c 0
 87 227 82 223 81 214 c 0
 80 206 80 200 80 193 c 0
 80 176 82 162 89 142 c 0
 95 123 106 115 119 100 c 0
 134 83 142 73 161 60 c 0
 174 51 184 49 199 44 c 0
 206 42 212 38 219 42 c 0
 235 52 236 59 244 76 c 0
 247 82 248 87 248 93 c 0
 248 99 246 106 246 115 c 0
 245 131 241 138 240 154 c 0
 240 155 239 157 239 158 c 0
 239 167 242 175 242 183 c 0
 242 187 241 190 241 193 c 0
 236 215 229 216 219 237 c 0
 212 252 212 269 205 284 c 0
 197 301 197 312 187 328 c 0
 182 336 176 347 167 344 c 0x38
191 420 m 0
 229 425 243 451 275 472 c 0
 297 487 310 495 331 512 c 0
 352 529 362 541 383 558 c 0
 393 566 400 569 411 576 c 0
 418 581 427 582 429 590 c 0
 430 596 423 599 417 600 c 0
 413 601 411 601 408 601 c 0
 401 601 396 600 389 600 c 0
 387 600 385 600 383 600 c 0xb8
 370 602 364 610 351 610 c 0x78
 324 610 310 603 283 600 c 0xb8
 262 598 250 598 229 596 c 0
 207 594 195 595 173 592 c 0
 171 592 169 592 167 592 c 0
 160 592 153 593 147 593 c 0
 139 593 133 591 129 584 c 0
 126 580 125 576 125 572 c 0
 125 560 135 549 139 534 c 0
 143 520 146 512 151 498 c 0
 156 482 157 473 165 458 c 0
 172 443 173 420 189 420 c 0
 189 420 190 420 191 420 c 0
115 636 m 0
 124 634 128 633 132 633 c 0
 137 633 140 635 156 639 c 0
 164 641 165 647 163 656 c 0
 158 682 164 699 151 722 c 0
 146 732 132 737 123 730 c 0
 111 720 108 706 108 690 c 0
 108 688 108 687 108 685 c 0
 108 676 107 665 107 656 c 0
 107 646 108 638 115 636 c 0
185 640 m 0
 185 638 189 637 195 637 c 0
 211 637 243 642 265 644 c 0xb8
 289 646 303 652 327 652 c 0x78
 360 652 378 647 411 644 c 0
 424 643 433 645 445 640 c 0
 459 634 472 628 481 616 c 0
 484 611 485 606 485 600 c 0
 485 592 482 582 478 574 c 0
 466 551 450 544 431 526 c 0
 411 507 396 502 373 486 c 0
 355 474 344 467 327 454 c 0
 311 442 304 433 287 422 c 0
 272 413 262 412 247 404 c 0
 237 399 231 395 223 388 c 0
 216 382 207 380 207 372 c 0
 207 356 216 349 223 334 c 0
 235 310 243 297 255 274 c 0
 267 253 276 243 285 220 c 0
 292 202 294 191 295 172 c 0
 295 168 295 165 295 162 c 0
 295 141 292 127 291 104 c 0
 291 103 291 101 291 100 c 0
 291 88 292 78 292 68 c 0
 292 60 291 52 287 44 c 0
 277 25 261 20 241 12 c 0
 233 9 227 8 220 8 c 0
 213 8 207 9 199 10 c 0
 177 13 165 15 145 24 c 0
 128 32 120 39 107 52 c 0
 91 67 82 77 71 96 c 0
 60 113 58 124 51 144 c 0
 44 164 40 176 37 196 c 0
 36 201 35 206 35 211 c 0
 35 217 36 223 39 230 c 0
 45 251 52 261 63 280 c 0
 72 295 78 303 89 316 c 0
 101 331 108 339 121 352 c 0
 129 360 135 363 143 372 c 0
 149 380 155 384 155 394 c 0
 155 407 142 408 136 420 c 0
 127 438 122 448 114 466 c 0
 107 481 108 494 103 510 c 0
 95 538 103 559 87 584 c 0
 82 593 72 579 63 574 c 0
 58 571 51 557 45 558 c 0
 37 559 38 569 34 576 c 0
 27 586 20 593 20 605 c 0
 20 606 20 606 20 607 c 0
 21 617 38 616 47 620 c 0
 56 624 66 620 71 628 c 0
 74 635 75 640 75 646 c 0
 75 651 74 657 74 663 c 0
 74 665 75 666 75 668 c 0
 76 687 76 697 77 716 c 0
 78 729 76 738 81 750 c 0
 86 762 91 771 103 776 c 0
 111 780 118 781 125 781 c 0
 133 781 141 779 151 774 c 0
 166 767 167 757 175 742 c 0
 180 732 178 736 180 725 c 0
 184 703 185 680 185 659 c 0
 185 652 185 646 185 640 c 0
EndSplineSet
Validated: 1
EndChar

StartChar: nine
Encoding: 57 57 10
Width: 399
Flags: HMW
VStem: 21.1017 52 203.102 48
LayerCount: 2
Fore
SplineSet
251 740 m 0
 235 733 227 725 213 714 c 0
 196 701 186 694 171 680 c 0
 154 664 144 655 131 636 c 0
 117 617 113 603 103 582 c 0
 94 564 87 554 81 534 c 0
 76 518 73 508 73 494 c 0
 73 491 73 488 73 484 c 0
 74 474 77 462 87 462 c 0
 107 463 114 476 131 486 c 0
 147 496 157 499 171 512 c 0
 189 529 197 541 213 560 c 0
 228 579 236 590 251 610 c 0
 260 622 265 630 273 642 c 0
 280 653 287 657 291 670 c 0
 294 683 297 692 297 703 c 0
 297 708 296 714 295 720 c 0
 294 731 290 740 281 744 c 0
 270 749 262 745 251 740 c 0
251 116 m 0
 251 106 255 102 261 94 c 0
 268 84 281 85 283 72 c 0
 283 70 283 69 283 67 c 0
 283 57 278 49 269 42 c 0
 261 36 254 33 245 33 c 0
 243 33 240 34 237 34 c 0
 227 36 221 41 217 50 c 0
 208 67 207 78 205 98 c 0
 203 114 203 126 203 139 c 0
 203 147 203 154 203 164 c 0
 204 193 206 209 211 238 c 0
 215 264 222 278 227 304 c 0
 232 330 232 344 237 370 c 0
 241 391 246 402 251 422 c 0
 256 438 258 448 263 464 c 0
 269 487 275 499 279 522 c 0
 281 537 291 554 291 566 c 0
 291 572 288 576 281 578 c 0
 279 578 278 579 277 579 c 0
 260 579 262 546 247 530 c 0
 221 501 205 487 175 462 c 0
 154 445 142 435 117 424 c 0
 106 419 97 416 87 416 c 0
 83 416 78 417 73 418 c 0
 58 421 52 430 41 440 c 0
 32 447 23 450 21 462 c 0
 20 467 20 472 20 477 c 0
 20 493 25 506 27 526 c 0
 29 546 30 558 35 578 c 0
 39 596 43 606 51 622 c 0
 61 640 67 650 81 666 c 0
 93 679 102 683 115 696 c 0
 127 708 132 716 143 728 c 0
 154 739 159 746 171 756 c 0
 180 764 185 769 195 774 c 0
 207 780 216 779 229 782 c 0
 245 786 253 792 269 792 c 0
 281 792 288 790 299 784 c 0
 311 778 320 774 325 762 c 0
 326 760 326 757 326 755 c 0
 326 747 322 740 322 733 c 0
 322 730 323 727 325 724 c 0
 332 716 340 734 351 734 c 0
 359 734 363 731 369 726 c 0
 375 721 379 716 379 708 c 0
 379 686 374 674 369 652 c 0
 365 634 361 625 355 608 c 0
 349 591 343 582 339 566 c 0
 333 545 333 533 329 512 c 0
 325 489 323 477 317 454 c 0
 314 441 310 434 307 422 c 0
 300 395 296 379 291 352 c 0
 285 324 284 308 279 280 c 0
 275 258 270 246 267 224 c 0
 264 204 266 192 263 172 c 0
 260 150 252 138 251 116 c 0
EndSplineSet
Validated: 1
EndChar

StartChar: A
Encoding: 65 65 11
Width: 421
Flags: HMW
HStem: 385 46
VStem: 20.0966 58 290.097 44 302.097 38
LayerCount: 2
Fore
SplineSet
278.096679688 625 m 0xd0
 255.096679688 545 253.096679688 497 232.096679688 417 c 0
 225.890625 392.952148438 195.012695312 368.302734375 195.012695312 352.387695312 c 0
 195.012695312 347.786132812 197.592773438 343.915039062 204.096679688 341 c 0
 209.26953125 338.701171875 214.090820312 337.681640625 218.653320312 337.681640625 c 0
 245.845703125 337.681640625 263.837890625 373.874023438 292.096679688 391 c 0
 301.096679688 396 313.096679688 396 314.096679688 407 c 0
 314.44921875 412.639648438 314.608398438 417.975585938 314.608398438 423.080078125 c 0
 314.608398438 461.413085938 305.626953125 486.639648438 302.096679688 529 c 0
 298.096679688 570 304.096679688 595 294.096679688 635 c 0
 292.096679688 642 280.096679688 632 278.096679688 625 c 0xd0
196.096679688 475 m 0
 173.096679688 428 168.096679688 398 150.096679688 349 c 0
 130.096679688 294 109.096679688 265 100.096679688 207 c 0
 99.9404296875 206.112304688 99.865234375 205.36328125 99.865234375 204.744140625 c 0
 99.865234375 203.0859375 100.400390625 202.352539062 101.338867188 202.352539062 c 0
 106.76171875 202.352539062 125.631835938 226.87890625 132.096679688 239 c 0
 135.596679688 245.5 135.846679688 251.5 135.846679688 257.625 c 0
 135.846679688 258.645507812 135.83984375 259.669921875 135.83984375 260.701171875 c 0
 135.83984375 265.854492188 136.013671875 271.166992188 138.096679688 277 c 0
 141.096679688 288 148.096679688 293 152.096679688 303 c 0
 161.096679688 324 165.096679688 337 172.096679688 359 c 0
 185.096679688 399 196.096679688 420 204.096679688 461 c 0
 205.096679688 467 199.096679688 481 196.096679688 475 c 0
300.096679688 333 m 0
 300.096679688 341 289.096679688 347 282.096679688 343 c 0
 239.096679688 320 215.096679688 304 180.096679688 269 c 0
 165.096679688 254 169.096679688 238 160.096679688 219 c 0
 129.096679688 157 113.096679688 121 78.0966796875 61 c 0
 70.0966796875 47 64.0966796875 39 50.0966796875 31 c 0
 44.0966796875 27 37.0966796875 30 32.0966796875 35 c 0
 24.0966796875 42 20.0966796875 49 20.0966796875 59 c 0
 20.03125 60.1123046875 20 61.1904296875 20 62.2392578125 c 0
 20 77.2080078125 26.3583984375 86.046875 30.0966796875 101 c 0
 41.0966796875 143 47.0966796875 167 58.0966796875 209 c 0
 66.0966796875 238 68.0966796875 255 78.0966796875 283 c 0
 92.0966796875 322 104.096679688 343 120.096679688 381 c 0
 137.096679688 423 146.096679688 447 162.096679688 489 c 0
 177.096679688 529 183.096679688 552 198.096679688 593 c 0
 206.096679688 614 212.096679688 625 220.096679688 645 c 0
 236.096679688 683 242.096679688 706 260.096679688 743 c 0
 264.096679688 750 267.096679688 756 274.096679688 759 c 0
 285.096679688 763 297.096679688 769 304.096679688 759 c 0
 320.096679688 738 317.096679688 720 322.096679688 695 c 0
 331.096679688 652 336.096679688 627 340.096679688 583 c 0
 340.9453125 571.967773438 341.233398438 562.295898438 341.233398438 553.215820312 c 0
 341.233398438 533.923828125 339.931640625 517.297851562 339.931640625 495.9609375 c 0
 339.931640625 491.833984375 339.98046875 487.532226562 340.096679688 483 c 0xd0
 340.158203125 481.709960938 340.185546875 480.442382812 340.185546875 479.196289062 c 0
 340.185546875 468.641601562 338.216796875 459.559570312 338.216796875 450.685546875 c 0
 338.216796875 443.54296875 339.4921875 436.534179688 344.096679688 429 c 0
 349.096679688 420 360.096679688 432 370.096679688 431 c 0
 381.096679688 430 391.096679688 432 396.096679688 423 c 0
 399.596679688 417.5 401.346679688 411.75 401.346679688 406 c 0
 401.346679688 400.25 399.596679688 394.5 396.096679688 389 c 0
 391.096679688 381 381.096679688 388 372.096679688 385 c 0
 362.096679688 382 349.096679688 383 348.096679688 373 c 0
 334.096679688 265 347.096679688 201 334.096679688 93 c 0
 332.096679688 79 326.096679688 69 312.096679688 65 c 0
 302.096679688 62 292.096679688 69 290.096679688 79 c 0xe0
 287.86328125 91.1259765625 287.0546875 101.723632812 287.0546875 111.801757812 c 0
 287.0546875 133.307617188 290.734375 152.444335938 292.096679688 179 c 0
 293.768554688 229.161132812 301.032226562 261.149414062 301.032226562 305.350585938 c 0
 301.032226562 314.020507812 300.752929688 323.161132812 300.096679688 333 c 0
EndSplineSet
Validated: 1
EndChar

StartChar: B
Encoding: 66 66 12
Width: 540
Flags: HMW
HStem: 601 92
VStem: 25.189 96<81 119 81 119> 37.189 66
LayerCount: 2
Fore
SplineSet
155.189453125 641 m 0x80
 163.189453125 667 179.189453125 677 201.189453125 693 c 0
 209.189453125 699 218.189453125 690 227.189453125 695 c 0
 244.189453125 705 247.189453125 720 265.189453125 729 c 0
 290.189453125 742 305.189453125 745 333.189453125 751 c 0
 366.823242188 758.567382812 388.438476562 770.377929688 418.841796875 770.377929688 c 0
 424.595703125 770.377929688 430.6640625 769.955078125 437.189453125 769 c 0
 465.189453125 765 478.189453125 750 497.189453125 729 c 0
 512.189453125 713 517.189453125 699 519.189453125 677 c 0
 519.400390625 674.677734375 519.5 672.465820312 519.5 670.345703125 c 0
 519.5 652.376953125 512.344726562 640.888671875 505.189453125 623 c 0
 495.189453125 595 488.189453125 578 473.189453125 553 c 0
 457.189453125 526 447.189453125 512 425.189453125 489 c 0
 421.189453125 484 408.189453125 491 409.189453125 485 c 0
 410.189453125 475 418.189453125 471 427.189453125 465 c 0
 443.189453125 455 455.189453125 457 471.189453125 447 c 0
 489.189453125 436 504.189453125 431 513.189453125 413 c 0
 518.951171875 401.4765625 520.323242188 391.598632812 520.323242188 381.35546875 c 0
 520.323242188 372.04296875 519.189453125 362.428710938 519.189453125 351 c 0
 519.189453125 339.799804688 519.668945312 330.360351562 519.668945312 321.3359375 c 0
 519.668945312 307.799804688 518.588867188 295.200195312 513.189453125 279 c 0
 505.189453125 255 493.189453125 244 475.189453125 225 c 0
 455.189453125 203 441.189453125 193 417.189453125 175 c 0
 389.189453125 153 374.189453125 140 343.189453125 123 c 0
 323.189453125 112 308.189453125 114 289.189453125 103 c 0
 277.189453125 96 278.189453125 81 265.189453125 77 c 0
 243.446289062 69.7529296875 227.482421875 64.6064453125 208.540039062 64.6064453125 c 0
 201.345703125 64.6064453125 193.721679688 65.3486328125 185.189453125 67 c 0
 175.189453125 69 174.189453125 84 179.189453125 93 c 0
 188.189453125 109 201.189453125 111 217.189453125 121 c 0
 240.189453125 135 255.189453125 139 277.189453125 153 c 0
 302.189453125 169 313.189453125 182 337.189453125 197 c 0
 352.189453125 206 363.189453125 205 377.189453125 215 c 0
 396.189453125 229 404.189453125 240 419.189453125 257 c 0
 429.189453125 268 433.189453125 274 441.189453125 287 c 0
 453.189453125 307 467.189453125 317 469.189453125 341 c 0
 469.412109375 343.459960938 469.5234375 345.83203125 469.5234375 348.12890625 c 0
 469.5234375 366.37890625 462.51171875 379.900390625 449.189453125 395 c 0
 434.189453125 411 419.189453125 416 397.189453125 419 c 0
 392.984375 419.6640625 389.123046875 419.985351562 385.474609375 419.985351562 c 0
 372.633789062 419.985351562 362.426757812 416.008789062 349.189453125 409 c 0
 337.189453125 403 339.189453125 389 327.189453125 383 c 0
 318.30859375 378.217773438 309.89453125 373.436523438 301.309570312 373.436523438 c 0
 297.327148438 373.436523438 293.30859375 374.46484375 289.189453125 377 c 0
 270.189453125 388 258.189453125 401 257.189453125 423 c 0
 257.163085938 423.356445312 257.151367188 423.704101562 257.151367188 424.04296875 c 0
 257.151367188 437.006835938 275.443359375 437.254882812 285.189453125 447 c 0
 300.189453125 462 306.189453125 471 321.189453125 487 c 0
 340.189453125 508 352.189453125 518 371.189453125 539 c 0
 385.189453125 554 392.189453125 563 405.189453125 579 c 0
 417.189453125 595 423.189453125 605 435.189453125 621 c 0
 440.189453125 628 447.189453125 631 449.189453125 639 c 0
 451.383789062 647.228515625 452.975585938 653.953125 452.975585938 660.823242188 c 0
 452.975585938 666.4765625 451.897460938 672.228515625 449.189453125 679 c 0
 444.189453125 690 436.189453125 695 425.189453125 699 c 0
 412.919921875 702.874023438 403.15234375 705.081054688 392.38671875 705.081054688 c 0
 386.48046875 705.081054688 380.274414062 704.416992188 373.189453125 703 c 0
 348.189453125 698 335.189453125 689 313.189453125 677 c 0
 293.189453125 667 283.189453125 661 265.189453125 647 c 0
 250.189453125 635 244.189453125 625 229.189453125 613 c 0
 221.189453125 607 215.189453125 600 205.189453125 601 c 0
 192.189453125 602 187.189453125 609 177.189453125 617 c 0
 168.263671875 624.139648438 154.559570312 628.09375 154.559570312 637.391601562 c 0
 154.559570312 638.51171875 154.758789062 639.709960938 155.189453125 641 c 0x80
45.189453125 649 m 0
 46.189453125 665 54.189453125 674 67.189453125 683 c 0
 77.189453125 690 86.189453125 692 97.189453125 687 c 0
 110.189453125 681 117.189453125 673 121.189453125 659 c 0xc0
 124.189453125 649 115.189453125 643 113.189453125 633 c 0
 108.189453125 614 104.189453125 604 103.189453125 585 c 0
 102.936523438 580.333007812 102.827148438 575.904296875 102.827148438 571.654296875 c 0
 102.827148438 544.479492188 107.287109375 524.600585938 107.287109375 496.27734375 c 0
 107.287109375 493.913085938 107.255859375 491.490234375 107.189453125 489 c 0
 106.189453125 442 100.189453125 416 99.189453125 369 c 0
 99.09765625 365.36328125 99.056640625 361.875976562 99.056640625 358.509765625 c 0
 99.056640625 324.8515625 103.189453125 303.36328125 103.189453125 267 c 0xa0
 103.189453125 248.538085938 100.23046875 235.994140625 100.23046875 220.263671875 c 0
 100.23046875 215.543945312 100.497070312 210.538085938 101.189453125 205 c 0
 105.189453125 171 115.189453125 153 121.189453125 119 c 0
 122.421875 109.754882812 124.793945312 102.409179688 124.793945312 95.08984375 c 0
 124.793945312 90.5341796875 123.875 85.9873046875 121.189453125 81 c 0
 106.189453125 54 97.189453125 31 67.189453125 23 c 0
 64.978515625 22.447265625 62.8408203125 22.1875 60.77734375 22.1875 c 0
 44.1669921875 22.1875 32.3046875 38.9892578125 25.189453125 55 c 0
 21.326171875 63.884765625 20 71.724609375 20 79.44140625 c 0
 20 91.7041015625 23.34765625 103.657226562 25.189453125 119 c 0xc0
 27.189453125 132 37.189453125 138 37.189453125 151 c 0xa0
 39.4375 213.305664062 39.931640625 266.947265625 39.931640625 317.489257812 c 0
 39.931640625 357.211914062 39.6259765625 395.020507812 39.6259765625 433.6171875 c 0
 39.6259765625 498.821289062 40.498046875 566.2734375 45.189453125 649 c 0
EndSplineSet
Validated: 1
EndChar

StartChar: C
Encoding: 67 67 13
Width: 648
Flags: HMW
HStem: 39 60
LayerCount: 2
Fore
SplineSet
465.268554688 783 m 0
 489.268554688 775 506.268554688 763 510.268554688 738 c 0
 510.47265625 736.56640625 510.5703125 735.198242188 510.5703125 733.887695312 c 0
 510.5703125 715.998046875 492.380859375 708.83984375 480.268554688 693 c 0
 470.7421875 680.875976562 466.465820312 658.251953125 455.749023438 658.251953125 c 0
 454.090820312 658.251953125 452.278320312 658.793945312 450.268554688 660 c 0
 446.149414062 662.517578125 444.701171875 666.133789062 444.701171875 670.34765625 c 0
 444.701171875 680.333007812 452.8359375 693.666992188 452.8359375 703.65234375 c 0
 452.8359375 707.866210938 451.387695312 711.482421875 447.268554688 714 c 0
 440.7265625 718.163085938 434.272460938 719.850585938 427.828125 719.850585938 c 0
 412.6015625 719.850585938 397.428710938 710.431640625 381.268554688 702 c 0
 321.268554688 670 286.268554688 651 237.268554688 603 c 0
 197.268554688 564 186.268554688 532 159.268554688 483 c 0
 137.268554688 444 126.268554688 421 111.268554688 378 c 0
 99.2685546875 344 99.2685546875 323 90.2685546875 288 c 0
 86.4765625 273.780273438 78.19140625 265.8515625 78.19140625 251.434570312 c 0
 78.19140625 250.643554688 78.216796875 249.83203125 78.2685546875 249 c 0
 80.2685546875 225 89.2685546875 213 99.2685546875 192 c 0
 107.268554688 175 113.268554688 167 126.268554688 153 c 0
 142.268554688 136 150.268554688 124 171.268554688 114 c 0
 193.268554688 104 208.268554688 108 231.268554688 105 c 0
 259.268554688 102 275.268554688 99 303.268554688 99 c 0
 336.268554688 99 355.268554688 99 387.268554688 105 c 0
 411.268554688 110 425.268554688 116 447.268554688 126 c 0
 468.268554688 136 478.268554688 144 498.268554688 156 c 0
 511.268554688 164 522.268554688 165 531.268554688 177 c 0
 549.268554688 200 539.268554688 232 567.268554688 243 c 0
 571.71875 244.741210938 576.16796875 245.546875 580.53125 245.546875 c 0
 598.71875 245.546875 615.396484375 231.549804688 624.268554688 213 c 0
 627.165039062 206.627929688 628.467773438 200.422851562 628.467773438 194.38671875 c 0
 628.467773438 179.58203125 620.633789062 165.786132812 609.268554688 153 c 0
 577.268554688 117 552.268554688 100 507.268554688 81 c 0
 445.268554688 55 407.268554688 45 339.268554688 39 c 0
 319.768554688 37.2001953125 302.698242188 36.2998046875 286.600585938 36.2998046875 c 0
 249.038085938 36.2998046875 216.768554688 41.2001953125 171.268554688 51 c 0
 136.268554688 59 117.268554688 69 90.2685546875 93 c 0
 59.2685546875 120 41.2685546875 138 27.2685546875 177 c 0
 21.724609375 191.924804688 20 204.848632812 20 217.633789062 c 0
 20 234.83203125 23.12109375 251.77734375 24.2685546875 273 c 0
 26.2685546875 307 30.2685546875 327 39.2685546875 360 c 0
 50.2685546875 397 59.2685546875 418 75.2685546875 453 c 0
 87.2685546875 481 96.2685546875 495 111.268554688 522 c 0
 121.268554688 540 126.268554688 549 138.268554688 567 c 0
 156.268554688 594 165.268554688 611 186.268554688 636 c 0
 211.268554688 665 225.268554688 681 255.268554688 705 c 0
 283.268554688 728 300.268554688 740 333.268554688 756 c 0
 357.268554688 768 373.268554688 769 399.268554688 774 c 0
 418.309570312 777.80859375 432.129882812 785.677734375 448.682617188 785.677734375 c 0
 453.862304688 785.677734375 459.309570312 784.907226562 465.268554688 783 c 0
EndSplineSet
Validated: 1
EndChar

StartChar: D
Encoding: 68 68 14
Width: 584
Flags: HMW
VStem: 31.1681 58 89.1681 62
LayerCount: 2
Fore
SplineSet
89.16796875 51 m 0x80
 85.16796875 35 78.16796875 26 65.16796875 15 c 0
 59.16796875 10 51.16796875 8 45.16796875 13 c 0
 35.16796875 22 33.16796875 32 31.16796875 45 c 0x80
 25.583984375 77.70703125 20 99.5947265625 20 127.92578125 c 0
 20 135.109375 20.359375 142.70703125 21.16796875 151 c 0
 22.16796875 159 38.16796875 137 41.16796875 145 c 0
 57.16796875 181 56.16796875 206 63.16796875 245 c 0
 66.16796875 261 64.16796875 271 67.16796875 287 c 0
 71.16796875 308 77.16796875 319 79.16796875 341 c 0
 86.16796875 426 83.16796875 474 89.16796875 559 c 0
 90.16796875 577 90.16796875 589 99.16796875 605 c 0
 104.16796875 614 115.16796875 623 123.16796875 617 c 0
 138.16796875 607 136.16796875 592 141.16796875 575 c 0
 147.16796875 554 151.16796875 541 151.16796875 519 c 0x40
 150.16796875 474 144.16796875 448 139.16796875 403 c 0
 132.16796875 336 128.16796875 298 119.16796875 231 c 0
 109.16796875 161 106.16796875 120 89.16796875 51 c 0x80
89.16796875 763 m 0x40
 113.16796875 753 113.16796875 724 139.16796875 719 c 0
 172.48046875 712.564453125 200.633789062 711.001953125 227.642578125 711.001953125 c 0
 253.161132812 711.001953125 277.658203125 712.397460938 304.518554688 712.397460938 c 0
 324.330078125 712.397460938 345.426757812 711.637695312 369.16796875 709 c 0
 405.16796875 705 425.16796875 699 457.16796875 683 c 0
 485.16796875 669 501.16796875 657 521.16796875 633 c 0
 542.16796875 608 549.16796875 590 559.16796875 559 c 0
 563.146484375 545.928710938 564.217773438 535.440429688 564.217773438 524.416015625 c 0
 564.217773438 516.04296875 563.599609375 507.360351562 563.16796875 497 c 0
 562.16796875 466 562.16796875 447 553.16796875 417 c 0
 539.16796875 374 529.16796875 349 505.16796875 311 c 0
 469.16796875 254 446.16796875 225 401.16796875 175 c 0
 383.16796875 155 370.16796875 149 347.16796875 135 c 0
 309.16796875 112 287.16796875 101 247.16796875 83 c 0
 238.16796875 79 230.16796875 84 221.16796875 79 c 0
 204.16796875 68 203.16796875 46 183.16796875 43 c 0
 180.577148438 42.5908203125 177.94921875 42.38671875 175.33203125 42.38671875 c 0
 158.756835938 42.38671875 142.623046875 50.5908203125 139.16796875 67 c 0
 138.379882812 70.28515625 138.0234375 73.3623046875 138.0234375 76.2802734375 c 0
 138.0234375 95.5712890625 153.61328125 107.890625 163.16796875 127 c 0
 171.16796875 144 170.16796875 164 189.16796875 167 c 0
 189.743164062 167.123046875 190.278320312 167.182617188 190.776367188 167.182617188 c 0
 202.38671875 167.182617188 193.743164062 135 207.16796875 135 c 0
 232.16796875 135 241.16796875 155 263.16796875 167 c 0
 289.16796875 181 305.16796875 186 329.16796875 203 c 0
 347.16796875 215 354.16796875 225 369.16796875 241 c 0
 393.16796875 266 407.16796875 280 429.16796875 307 c 0
 446.16796875 329 457.16796875 342 469.16796875 367 c 0
 483.16796875 397 492.16796875 415 497.16796875 447 c 0
 502.501953125 479 510.946289062 503.444335938 510.946289062 529.518554688 c 0
 510.946289062 542.555664062 508.834960938 556 503.16796875 571 c 0
 490.16796875 606 462.16796875 618 427.16796875 631 c 0
 379.16796875 649 348.16796875 642 297.16796875 647 c 0
 235.16796875 653 199.16796875 650 137.16796875 659 c 0
 113.16796875 663 97.16796875 665 77.16796875 679 c 0
 60.16796875 691 52.16796875 703 47.16796875 723 c 0
 46.50390625 725.655273438 46.18359375 728.1640625 46.18359375 730.557617188 c 0
 46.18359375 738.983398438 50.1591796875 745.991210938 57.16796875 753 c 0
 63.91796875 759.75 71.79296875 764.8125 80.37109375 764.8125 c 0
 83.23046875 764.8125 86.16796875 764.25 89.16796875 763 c 0x40
EndSplineSet
Validated: 1
EndChar

StartChar: E
Encoding: 69 69 15
Width: 686
Flags: HMW
VStem: 200.313 68
LayerCount: 2
Fore
SplineSet
200.313476562 740 m 0
 201.313476562 746 206.313476562 749 212.313476562 751 c 0
 222.313476562 754 229.313476562 756 239.313476562 752 c 0
 253.313476562 746 265.313476562 741 268.313476562 727 c 0
 269.639648438 721.47265625 270.184570312 716.43359375 270.184570312 711.65625 c 0
 270.184570312 694.829101562 263.428710938 681.250976562 260.313476562 661 c 0
 254.313476562 628 251.313476562 610 242.313476562 578 c 0
 233.313476562 545 226.313476562 527 214.313476562 494 c 0
 194.313476562 437 180.313476562 407 161.313476562 349 c 0
 146.313476562 304 142.313476562 278 128.313476562 233 c 0
 120.313476562 209 113.313476562 196 104.313476562 172 c 0
 97.3134765625 152 93.3134765625 141 86.3134765625 121 c 0
 83.3134765625 113 80.3134765625 109 79.3134765625 100 c 0
 78.3134765625 91 74.3134765625 80 83.3134765625 77 c 0
 87.6884765625 75.712890625 91.6669921875 75.1552734375 95.4521484375 75.1552734375 c 0
 106.373046875 75.1552734375 115.688476562 79.8017578125 128.313476562 85 c 0
 198.313476562 112 236.313476562 134 305.313476562 163 c 0
 357.313476562 185 388.313476562 193 439.313476562 217 c 0
 446.313476562 220 444.313476562 230 451.313476562 233 c 0
 462.313476562 238 471.313476562 241 482.313476562 236 c 0
 493.313476562 231 498.313476562 223 502.313476562 211 c 0
 504.313476562 204.5 505.813476562 198.75 505.813476562 193.125 c 0
 505.813476562 187.5 504.313476562 182 500.313476562 176 c 0
 494.313476562 167 483.313476562 171 472.313476562 167 c 0
 334.313476562 110 259.313476562 70 118.313476562 19 c 0
 113.927734375 17.35546875 109.916992188 16.6875 106.09765625 16.6875 c 0
 95.982421875 16.6875 87.201171875 21.3701171875 76.3134765625 25 c 0
 61.3134765625 30 53.3134765625 33 41.3134765625 43 c 0
 30.3134765625 52 21.3134765625 59 20.3134765625 73 c 0
 20.099609375 75.7783203125 20 78.4189453125 20 80.9521484375 c 0
 20 102.12890625 26.9541015625 115.778320312 32.3134765625 139 c 0
 39.3134765625 165 44.3134765625 179 53.3134765625 205 c 0
 64.3134765625 239 73.3134765625 258 83.3134765625 293 c 0
 88.3134765625 310 86.3134765625 320 92.3134765625 337 c 0
 104.313476562 372 115.313476562 391 128.313476562 425 c 0
 141.313476562 458 147.313476562 477 158.313476562 511 c 0
 175.313476562 563 190.313476562 592 200.313476562 646 c 0
 202.0859375 655.116210938 202.704101562 663.333984375 202.704101562 671.109375 c 0
 202.704101562 689.055664062 199.41015625 704.641601562 199.41015625 723.45703125 c 0
 199.41015625 728.682617188 199.6640625 734.15625 200.313476562 740 c 0
190.313476562 396 m 0
 199.313476562 405 205.313476562 408 218.313476562 412 c 0
 229.313476562 416 233.313476562 401 244.313476562 398 c 0
 265.264648438 392.76171875 278.595703125 389.810546875 297.611328125 389.810546875 c 0
 300.377929688 389.810546875 303.264648438 389.873046875 306.313476562 390 c 0
 332.313476562 391 346.313476562 397 372.313476562 404 c 0
 407.313476562 413 427.313476562 418 462.313476562 430 c 0
 477.313476562 435 485.313476562 439 498.313476562 446 c 0
 506.313476562 450 508.313476562 458 516.313476562 460 c 0
 525.638671875 462.194335938 533.159179688 463.787109375 540.690429688 463.787109375 c 0
 546.88671875 463.787109375 553.090820312 462.708984375 560.313476562 460 c 0
 570.313476562 456 572.313476562 448 574.313476562 438 c 0
 575.313476562 430 570.313476562 427 566.313476562 420 c 0
 559.313476562 409 558.313476562 399 546.313476562 392 c 0
 529.313476562 382 517.313476562 386 498.313476562 380 c 0
 462.313476562 369 443.313476562 360 406.313476562 350 c 0
 378.313476562 343 362.313476562 339 334.313476562 336 c 0
 309.014648438 333.469726562 290.516601562 330.940429688 269.963867188 330.940429688 c 0
 258.020507812 330.940429688 245.3828125 331.794921875 230.313476562 334 c 0
 215.313476562 336 206.313476562 343 198.313476562 356 c 0
 192.1328125 364.926757812 185.481445312 375.267578125 185.481445312 384.43359375 c 0
 185.481445312 388.616210938 186.866210938 392.553710938 190.313476562 396 c 0
280.313476562 686 m 0
 294.313476562 701 316.313476562 689 332.313476562 700 c 0
 378.313476562 732 411.313476562 739 464.313476562 756 c 0
 506.313476562 770 531.313476562 773 574.313476562 780 c 0
 586.096679688 781.963867188 594.880859375 783.927734375 604.873046875 783.927734375 c 0
 610.14453125 783.927734375 615.751953125 783.381835938 622.313476562 782 c 0
 639.313476562 778 650.313476562 774 662.313476562 760 c 0
 668.313476562 752 667.313476562 743 662.313476562 734 c 0
 657.313476562 725 651.313476562 719 640.313476562 718 c 0
 639.1875 717.881835938 638.092773438 717.826171875 637.026367188 717.826171875 c 0
 622.110351562 717.826171875 612.643554688 728.64453125 598.377929688 728.64453125 c 0
 596.452148438 728.64453125 594.439453125 728.447265625 592.313476562 728 c 0
 541.313476562 719 513.313476562 706 466.313476562 686 c 0
 413.313476562 663 387.313476562 652 334.313476562 618 c 0
 329.821289062 615.141601562 325.49609375 613.950195312 321.201171875 613.950195312 c 0
 314.979492188 613.950195312 308.821289062 616.450195312 302.313476562 620 c 0
 290.313476562 626 284.313476562 633 280.313476562 646 c 0
 277.385742188 654.783203125 274.115234375 663.22265625 274.115234375 670.918945312 c 0
 274.115234375 676.366210938 275.75390625 681.440429688 280.313476562 686 c 0
EndSplineSet
Validated: 1
EndChar

StartChar: F
Encoding: 70 70 16
Width: 526
Flags: W
HStem: 702 63.1338<404.505 439.996>
VStem: 29.3203 60<33.0562 165.504> 86.6934 50.627<399.744 609.54>
LayerCount: 2
Fore
SplineSet
24.3203125 643 m 0xa0
 21.3203125 651 16.3203125 662 24.3203125 665 c 0
 120.3203125 704 178.3203125 715 277.3203125 746 c 0
 300.3203125 753 312.3203125 760 336.3203125 762 c 0
 353.03125 763.56640625 366.197265625 765.133789062 379.37890625 765.133789062 c 0
 391.4375 765.133789062 403.508789062 763.822265625 418.3203125 760 c 0
 433.3203125 756 438.3203125 745 447.3203125 733 c 0
 451.3203125 728 452.3203125 723 450.3203125 717 c 0
 449.3203125 711 445.3203125 709 440.3203125 706 c 0
 434.3203125 703 430.3203125 702 424.3203125 702 c 0
 419.3203125 702 416.3203125 704 412.3203125 707 c 0
 408.3203125 710 408.3203125 714 404.3203125 716 c 0
 400.3203125 718 397.3203125 718 392.3203125 717 c 0
 365.3203125 713 351.3203125 710 324.3203125 703 c 0
 289.3203125 694 270.3203125 688 235.3203125 678 c 0
 203.3203125 669 185.3203125 663 153.3203125 653 c 0
 149.3203125 652 145.3203125 651 142.3203125 648 c 0
 139.3203125 644 139.3203125 641 138.3203125 636 c 0
 137.3203125 629 137.3203125 625 137.3203125 618 c 0
 137.3203125 595 138.3203125 581 138.3203125 558 c 0
 138.3203125 540 139.3203125 530 139.3203125 512 c 0
 139.3203125 499 139.3203125 492 137.3203125 480 c 0xa0
 135.3203125 464 132.3203125 455 129.3203125 439 c 0
 126.3203125 423 126.3203125 415 122.3203125 399 c 0
 121.3203125 396 118.3203125 396 117.3203125 393 c 0
 116.3203125 389 114.3203125 385 117.3203125 382 c 0
 120.3203125 379 124.3203125 379 129.3203125 380 c 0
 142.3203125 381 149.3203125 383 162.3203125 387 c 0
 184.3203125 393 196.3203125 397 217.3203125 405 c 0
 253.3203125 420 272.3203125 429 307.3203125 446 c 0
 332.3203125 458 345.3203125 466 370.3203125 480 c 0
 383.3203125 487 390.3203125 492 403.3203125 500 c 0
 427.3203125 514 440.3203125 523 466.3203125 536 c 0
 471.3203125 538 474.3203125 538 479.3203125 537 c 0
 483.3203125 536 484.3203125 533 488.3203125 530 c 0
 492.3203125 526 494.3203125 525 497.3203125 520 c 0
 501.3203125 513 505.3203125 509 506.3203125 501 c 0
 507.3203125 495 505.3203125 492 502.3203125 487 c 0
 499.3203125 481 497.3203125 476 491.3203125 473 c 0
 426.3203125 439 387.3203125 425 320.3203125 393 c 0
 276.3203125 372 254.3203125 353 207.3203125 339 c 0
 197.145507812 335.916992188 188.016601562 335.01953125 179.2890625 335.01953125 c 0
 167.149414062 335.01953125 155.786132812 336.754882812 143.462890625 336.754882812 c 0
 135.909179688 336.754882812 127.994140625 336.102539062 119.3203125 334 c 0
 112.3203125 332 113.3203125 323 111.3203125 316 c 0
 107.3203125 301 107.3203125 292 103.3203125 276 c 2
 93.3203125 236 l 1
 93.3203125 221 l 1
 97.3203125 217 l 1
 104.3203125 223 l 1
 110.3203125 238 l 1
 118.3203125 243 l 1
 124.3203125 236 l 1
 125.3203125 212 l 1
 121.3203125 192 l 1
 113.3203125 177 l 1
 109.3203125 156 l 2
 105.3203125 132 103.3203125 118 99.3203125 94 c 0
 96.3203125 76 95.3203125 64 89.3203125 47 c 0
 87.3203125 40 85.3203125 35 78.3203125 32 c 0
 69.3203125 28 63.3203125 30 54.3203125 32 c 0
 46.3203125 34 42.3203125 38 35.3203125 42 c 0
 32.3203125 44 29.3203125 45 29.3203125 48 c 0xc0
 27.41796875 61.947265625 26.7216796875 71.8759765625 26.7216796875 82.880859375 c 0
 26.7216796875 89.234375 26.9541015625 95.947265625 27.3203125 104 c 0
 29.3203125 143 31.3203125 165 36.3203125 204 c 0
 39.3203125 229 41.3203125 242 46.3203125 267 c 0
 47.3203125 272 51.3203125 274 52.3203125 279 c 0
 55.3203125 295 54.3203125 304 57.3203125 320 c 0
 60.05078125 331.833984375 68.58203125 338.696289062 68.58203125 348.883789062 c 0
 68.58203125 349.887695312 68.4990234375 350.923828125 68.3203125 352 c 0
 67.3203125 359 56.3203125 351 50.3203125 355 c 0
 47.3203125 358 49.3203125 362 49.3203125 366 c 0
 49.3203125 372 46.3203125 376 48.3203125 382 c 0
 51.3203125 389 56.3203125 390 61.3203125 395 c 0
 63.3203125 397 67.3203125 396 67.3203125 399 c 0
 74.3203125 458 76.3203125 491 80.3203125 550 c 0
 81.673828125 565.569335938 86.693359375 577.931640625 86.693359375 590.80859375 c 0
 86.693359375 596.953125 85.55078125 603.215820312 82.3203125 610 c 0
 77.3203125 620 64.3203125 605 53.3203125 608 c 0
 46.3203125 610 45.3203125 617 40.3203125 622 c 0
 33.3203125 630 28.3203125 633 24.3203125 643 c 0xa0
EndSplineSet
Validated: 1
EndChar

StartChar: G
Encoding: 71 71 17
Width: 561
Flags: W
HStem: 14.3125 52.666<102.81 230.021> 772.903 20G<319.637 326.547 369.092 374.889>
VStem: 20 54.1113<95.1406 307.93> 479.201 62.2227<328.062 390.859>
LayerCount: 2
Fore
SplineSet
328.201171875 729 m 0
 306.201171875 712 294.201171875 703 275.201171875 683 c 0
 258.201171875 665 251.201171875 653 237.201171875 633 c 0
 225.201171875 617 219.201171875 607 209.201171875 590 c 0
 195.201171875 566 188.201171875 552 175.201171875 528 c 0
 163.201171875 505 155.201171875 493 144.201171875 469 c 0
 130.201171875 439 123.201171875 421 113.201171875 389 c 0
 104.201171875 360 100.201171875 342 94.201171875 312 c 0
 85.201171875 268 81.201171875 243 76.201171875 199 c 0
 74.96484375 189.111328125 74.111328125 182.278320312 74.111328125 174.724609375 c 0
 74.111328125 170.055664062 74.4375 165.111328125 75.201171875 159 c 0
 77.201171875 141 79.201171875 130 85.201171875 113 c 0
 89.201171875 103 93.201171875 97 101.201171875 90 c 0
 112.201171875 80 118.201171875 73 132.201171875 69 c 0
 136.727539062 67.4912109375 140.826171875 66.978515625 144.874023438 66.978515625 c 0
 151.559570312 66.978515625 158.104492188 68.376953125 166.201171875 69 c 0
 182.201171875 71 191.201171875 70 206.201171875 76 c 0
 225.201171875 84 233.201171875 91 249.201171875 103 c 0
 270.201171875 118 280.201171875 127 299.201171875 144 c 0
 322.201171875 164 334.201171875 177 355.201171875 199 c 0
 377.201171875 223 389.201171875 238 410.201171875 264 c 0
 427.201171875 285 439.201171875 296 454.201171875 318 c 0
 464.201171875 332 468.201171875 341 474.201171875 357 c 0
 478.201171875 366 480.201171875 370 479.201171875 379 c 0
 478.201171875 385 476.201171875 388 471.201171875 391 c 0
 467.201171875 394 462.201171875 393 457.201171875 394 c 0
 444.201171875 397 437.201171875 399 424.201171875 402 c 0
 414.526367188 403.612304688 408.102539062 407.825195312 399.6875 407.825195312 c 0
 397.6640625 407.825195312 395.526367188 407.581054688 393.201171875 407 c 0
 383.201171875 404 383.201171875 396 376.201171875 389 c 0
 368.201171875 381 364.201171875 376 356.201171875 369 c 0
 346.201171875 360 339.201171875 355 328.201171875 348 c 0
 322.201171875 344 318.201171875 341 311.201171875 340 c 0
 300.201171875 339 294.201171875 340 284.201171875 343 c 0
 277.201171875 345 272.201171875 348 268.201171875 354 c 0
 265.201171875 359 265.201171875 363 266.201171875 369 c 0
 267.201171875 375 270.201171875 378 274.201171875 383 c 0
 282.201171875 394 288.201171875 398 297.201171875 408 c 0
 309.201171875 421 313.201171875 432 328.201171875 442 c 0
 345.201171875 454 357.201171875 459 377.201171875 464 c 0
 389.201171875 467 396.201171875 466 407.201171875 463 c 0
 424.201171875 458 432.201171875 451 449.201171875 444 c 0
 460.201171875 439 466.201171875 436 477.201171875 433 c 0
 488.201171875 430 495.201171875 433 505.201171875 428 c 0
 519.201171875 421 531.201171875 419 538.201171875 404 c 0
 540.534179688 398.666992188 541.423828125 393.888671875 541.423828125 389.295898438 c 0
 541.423828125 380.111328125 537.868164062 371.666992188 535.201171875 361 c 0
 532.201171875 349 527.201171875 344 522.201171875 333 c 0
 508.201171875 306 503.201171875 290 486.201171875 265 c 0
 465.201171875 234 449.201171875 219 424.201171875 191 c 0
 407.201171875 172 398.201171875 161 379.201171875 144 c 0
 352.201171875 120 335.201171875 108 306.201171875 85 c 0
 285.201171875 69 276.201171875 57 253.201171875 45 c 0
 227.201171875 31 211.201171875 25 182.201171875 19 c 0
 168.451171875 15.875 157.435546875 14.3125 145.4921875 14.3125 c 0
 138.326171875 14.3125 130.826171875 14.875 122.201171875 16 c 0
 105.201171875 19 95.201171875 24 80.201171875 34 c 0
 67.201171875 43 61.201171875 51 51.201171875 63 c 0
 41.201171875 75 34.201171875 82 27.201171875 97 c 0
 22.201171875 107 21.201171875 114 20.201171875 125 c 0
 20.0615234375 127.234375 20 129.331054688 20 131.330078125 c 0
 20 143.649414062 22.3408203125 152.234375 23.201171875 166 c 0
 24.201171875 177 23.201171875 183 24.201171875 194 c 0
 25.201171875 213 26.201171875 224 29.201171875 243 c 0
 33.201171875 268 35.201171875 282 41.201171875 307 c 0
 44.201171875 318 47.201171875 324 50.201171875 335 c 0
 56.201171875 361 56.201171875 376 63.201171875 401 c 0
 72.201171875 434 79.201171875 451 92.201171875 482 c 0
 107.201171875 517 117.201171875 536 135.201171875 569 c 0
 147.201171875 592 156.201171875 603 170.201171875 625 c 0
 188.201171875 654 199.201171875 671 218.201171875 700 c 0
 232.201171875 720 238.201171875 734 255.201171875 752 c 0
 272.201171875 770 283.201171875 781 306.201171875 790 c 0
 311.99609375 792.172851562 317.133789062 792.903320312 322.139648438 792.903320312 c 0
 330.955078125 792.903320312 339.357421875 790.637695312 350.201171875 790 c 0
 352.201171875 789.875 354.123046875 789.828125 355.984375 789.828125 c 0
 361.568359375 789.828125 366.607421875 790.25 371.576171875 790.25 c 0
 378.201171875 790.25 384.701171875 789.5 392.201171875 786 c 0
 404.201171875 781 409.201171875 773 415.201171875 761 c 0
 418.201171875 755 415.201171875 749 415.201171875 742 c 0
 415.201171875 736 415.201171875 732 414.201171875 726 c 0
 413.201171875 717 414.201171875 712 411.201171875 703 c 0
 409.201171875 695 406.201171875 692 401.201171875 686 c 0
 397.201171875 682 394.201171875 681 389.201171875 680 c 0
 384.201171875 679 380.201171875 678 377.201171875 681 c 0
 373.201171875 685 377.201171875 688 376.201171875 693 c 0
 375.201171875 701 373.201171875 706 371.201171875 714 c 0
 369.201171875 722 373.201171875 729 367.201171875 734 c 0
 360.201171875 740 354.201171875 737 345.201171875 736 c 0
 338.201171875 735 334.201171875 734 328.201171875 729 c 0
EndSplineSet
Validated: 1
EndChar

StartChar: H
Encoding: 72 72 18
Width: 521
Flags: HMW
HStem: 501 54<177.173 205.173>
VStem: 26.6726 55 283.673 49<47 115> 393.673 51 442.673 59
LayerCount: 2
Fore
SplineSet
92.6728515625 575 m 0xf0
 113.672851562 651 124.672851562 696 149.672851562 771 c 0
 153.672851562 782 158.672851562 788 167.672851562 796 c 0
 172.672851562 800 177.672851562 798 184.672851562 799 c 0
 190.672851562 800 193.672851562 799 199.672851562 799 c 0
 203.672851562 799 206.672851562 800 210.672851562 798 c 0
 213.672851562 796 215.672851562 794 216.672851562 791 c 0
 218.672851562 787 217.672851562 785 218.672851562 781 c 0
 219.672851562 777 220.672851562 775 219.672851562 771 c 0
 217.672851562 767 213.672851562 766 211.672851562 763 c 0
 208.672851562 759 207.672851562 757 206.672851562 753 c 0
 205.672851562 748 202.672851562 746 204.672851562 741 c 0
 207.672851562 735 215.672851562 735 218.672851562 729 c 0
 221.672851562 722 219.672851562 717 219.672851562 709 c 0
 219.672851562 702 221.672851562 697 216.672851562 692 c 0
 209.672851562 686 203.672851562 689 194.672851562 688 c 0
 190.672851562 688 188.672851562 690 184.672851562 690 c 0
 180.672851562 690 176.672851562 691 174.672851562 687 c 0
 170.672851562 680 172.672851562 674 170.672851562 666 c 0
 167.672851562 654 165.672851562 647 161.672851562 635 c 0
 152.672851562 609 145.672851562 595 136.672851562 569 c 0
 135.672851562 567 134.672851562 564 136.672851562 563 c 0
 145.672851562 558 151.672851562 556 160.672851562 555 c 0
 175.887695312 554.154296875 188.245117188 553.845703125 200.16015625 553.845703125 c 0
 216.436523438 553.845703125 231.887695312 554.422851562 252.672851562 555 c 0
 265.672851562 555 272.672851562 555 285.672851562 557 c 0
 314.672851562 562 330.672851562 566 358.672851562 573 c 0
 369.672851562 576 376.672851562 577 386.672851562 583 c 0
 390.672851562 586 392.672851562 589 393.672851562 594 c 0xf0
 394.225585938 597.592773438 394.396484375 600.727539062 394.396484375 603.657226562 c 0
 394.396484375 608.3984375 393.94921875 612.6015625 393.94921875 617.342773438 c 0
 393.94921875 620.272460938 394.120117188 623.407226562 394.672851562 627 c 0
 399.672851562 654 406.672851562 669 412.672851562 696 c 0
 414.672851562 704 413.672851562 709 415.672851562 717 c 0
 417.672851562 723 419.672851562 725 422.672851562 730 c 0
 427.672851562 739 430.672851562 744 434.672851562 753 c 0
 438.672851562 762 440.672851562 768 442.672851562 777 c 0xe8
 443.672851562 783 440.672851562 787 444.672851562 792 c 0xf0
 448.672851562 798 452.672851562 799 459.672851562 801 c 0
 463.672851562 802 465.672851562 800 469.672851562 800 c 0
 478.672851562 799 484.672851562 802 492.672851562 797 c 0
 498.672851562 793 501.672851562 788 501.672851562 781 c 0xe8
 502.672851562 770 498.672851562 764 494.672851562 753 c 0
 478.672851562 705 468.672851562 679 450.672851562 631 c 0
 448.672851562 627 445.672851562 625 444.672851562 621 c 0
 443.672851562 618 444.672851562 616 444.672851562 613 c 0
 444.672851562 610 443.672851562 608 444.672851562 605 c 0
 445.672851562 599 446.672851562 596 448.672851562 590 c 0
 449.672851562 586 451.672851562 583 452.672851562 579 c 0
 453.672851562 573 454.672851562 569 452.672851562 563 c 0
 449.672851562 554 444.672851562 551 439.672851562 543 c 0
 433.672851562 534 427.672851562 529 424.672851562 519 c 0
 411.672851562 482 411.672851562 458 398.672851562 421 c 0
 396.672851562 415 387.672851562 416 385.672851562 410 c 0
 379.672851562 394 382.672851562 383 378.672851562 366 c 0
 375.672851562 351 370.672851562 343 366.672851562 329 c 0
 360.672851562 306 358.672851562 292 354.672851562 269 c 0
 349.672851562 241 346.672851562 224 342.672851562 196 c 0
 340.672851562 182 340.672851562 174 338.672851562 160 c 0
 337.672851562 151 335.672851562 147 334.672851562 138 c 0
 333.672851562 129 332.672851562 124 332.672851562 115 c 0
 332.672851562 108 330.672851562 103 332.672851562 96 c 0
 334.672851562 90 337.672851562 87 342.672851562 83 c 0
 346.672851562 80 349.672851562 80 354.672851562 78 c 0
 359.672851562 76 364.672851562 76 368.672851562 73 c 0
 372.672851562 70 374.672851562 67 375.672851562 62 c 0
 376.672851562 56 373.672851562 53 372.672851562 48 c 0
 370.672851562 42 369.672851562 39 367.672851562 34 c 0
 364.672851562 25 364.672851562 20 358.672851562 12 c 0
 356.672851562 9 352.672851562 10 348.672851562 9 c 0
 343.672851562 8 339.672851562 6 334.672851562 6 c 0
 326.672851562 6 321.672851562 6 314.672851562 10 c 0
 302.672851562 16 293.672851562 19 285.672851562 30 c 0
 280.672851562 37 283.672851562 43 283.672851562 51 c 0
 286.672851562 120 288.672851562 158 294.672851562 227 c 0
 295.672851562 236 298.672851562 240 300.672851562 249 c 0
 304.672851562 269 302.672851562 280 307.672851562 300 c 0
 316.672851562 340 325.672851562 362 335.672851562 401 c 0
 341.672851562 425 342.672851562 439 348.672851562 463 c 0
 353.672851562 482 359.672851562 492 362.672851562 511 c 0
 363.672851562 515 362.672851562 518 358.672851562 520 c 0
 352.672851562 523 348.672851562 523 341.672851562 521 c 0
 315.672851562 514 302.672851562 501 276.672851562 498 c 0
 269.1171875 497.111328125 262.252929688 496.765625 255.76171875 496.765625 c 0
 233.04296875 496.765625 214.89453125 501 187.672851562 501 c 0
 177.172851562 501 169.172851562 501.25 161.172851562 501.25 c 0
 153.172851562 501.25 145.172851562 501 134.672851562 500 c 0
 129.672851562 499 126.672851562 498 124.672851562 494 c 0
 112.672851562 463 108.672851562 446 101.672851562 413 c 0
 99.6728515625 404 99.4228515625 397 99.4228515625 390 c 0
 99.4228515625 387.666992188 99.4501953125 385.333007812 99.4501953125 382.92578125 c 0
 99.4501953125 378.111328125 99.33984375 373 98.6728515625 367 c 0
 97.6728515625 354 96.6728515625 347 94.6728515625 335 c 0
 93.6728515625 326 90.6728515625 322 89.6728515625 313 c 0
 87.6728515625 292 86.6728515625 279 85.6728515625 258 c 0
 85.4619140625 252.716796875 85.3837890625 247.924804688 85.3837890625 243.416992188 c 0
 85.3837890625 231.099609375 85.9619140625 220.900390625 85.9619140625 208.583007812 c 0
 85.9619140625 204.075195312 85.8837890625 199.283203125 85.6728515625 194 c 0
 85.6728515625 189 82.6728515625 186 81.6728515625 181 c 0
 80.6728515625 175 81.6728515625 171 81.6728515625 165 c 2
 81.6728515625 155 l 2
 81.6728515625 150 79.6728515625 147 81.6728515625 142 c 0
 85.6728515625 131 94.6728515625 128 96.6728515625 117 c 0
 97.6728515625 111 93.6728515625 106 88.6728515625 103 c 0
 78.6728515625 96 72.6728515625 93 60.6728515625 92 c 0
 52.6728515625 91 46.6728515625 93 41.6728515625 99 c 0
 29.6728515625 114 25.6728515625 125 20.6728515625 143 c 0
 18.6728515625 152 21.6728515625 157 22.6728515625 166 c 0
 23.6728515625 180 25.6728515625 188 26.6728515625 202 c 0
 27.6728515625 227 26.6728515625 240 28.6728515625 265 c 0
 32.6728515625 307 35.6728515625 330 42.6728515625 372 c 0
 46.6728515625 398 51.6728515625 413 57.6728515625 439 c 0
 70.6728515625 492 77.6728515625 522 92.6728515625 575 c 0xf0
EndSplineSet
Validated: 1
EndChar

StartChar: I
Encoding: 73 73 19
Width: 638
Flags: HMW
HStem: 0 62 73 25 694 60 748 40
VStem: 272.309 74 290.309 54
LayerCount: 2
Fore
SplineSet
67.3095703125 762 m 0xe8
 73.3095703125 770 79.3095703125 773 89.3095703125 776 c 0
 100.309570312 779 108.309570312 780 118.309570312 776 c 0
 125.309570312 774 125.309570312 767 130.309570312 762 c 0
 134.309570312 759 137.309570312 756 142.309570312 756 c 0
 167.66796875 754.09765625 185.79296875 753.40234375 205.85546875 753.40234375 c 0
 217.438476562 753.40234375 229.66796875 753.633789062 244.309570312 754 c 0xe8
 258.309570312 754 265.309570312 759 278.309570312 761 c 0
 299.309570312 763 311.309570312 761 332.309570312 764 c 0
 351.309570312 766 361.309570312 770 380.309570312 774 c 0
 398.309570312 778 407.309570312 781 425.309570312 784 c 0
 442.309570312 787 452.309570312 787 470.309570312 788 c 0
 502.734375 789.379882812 525.165039062 791.711914062 551.390625 791.711914062 c 0
 563.1796875 791.711914062 575.734375 791.240234375 590.309570312 790 c 0
 600.309570312 789 607.309570312 785 612.309570312 776 c 0
 617.309570312 767 622.309570312 755 613.309570312 750 c 0
 606.770507812 746.154296875 600.67578125 744.970703125 594.513671875 744.970703125 c 0
 584.65234375 744.970703125 574.6171875 748 562.309570312 748 c 0
 547.109375 748 537.029296875 749.280273438 523.876953125 749.280273438 c 0
 520.58984375 749.280273438 517.109375 749.200195312 513.309570312 749 c 0
 497.309570312 748 489.309570312 744 473.309570312 741 c 0
 459.309570312 738 452.309570312 737 438.309570312 734 c 0
 427.309570312 732 421.309570312 731 410.309570312 728 c 0
 400.309570312 725 395.309570312 722 385.309570312 720 c 0
 375.309570312 718 369.309570312 717 358.309570312 716 c 0
 350.309570312 715 344.309570312 720 338.309570312 715 c 0
 334.309570312 712 341.309570312 707 342.309570312 702 c 0
 344.309570312 689 346.309570312 681 346.309570312 668 c 0xd8
 346.67578125 648.966796875 346.907226562 632.880859375 346.907226562 617.584960938 c 0
 346.907226562 591.090820312 346.2109375 566.966796875 344.309570312 534 c 0xd4
 343.309570312 514 340.309570312 502 337.309570312 482 c 0
 334.309570312 465 332.309570312 455 330.309570312 438 c 0
 327.309570312 416 326.309570312 404 324.309570312 382 c 0
 322.309570312 362 321.309570312 352 318.309570312 332 c 0
 316.309570312 316 314.309570312 308 311.309570312 292 c 0
 306.309570312 269 303.309570312 255 298.309570312 232 c 0
 294.309570312 217 290.309570312 209 288.309570312 194 c 0
 286.309570312 180 286.309570312 172 286.309570312 158 c 0
 286.309570312 148 285.865234375 141.111328125 285.865234375 133.185546875 c 0
 285.865234375 129.22265625 285.975585938 125 286.309570312 120 c 0
 287.309570312 111 288.309570312 106 292.309570312 98 c 0
 294.309570312 95 296.309570312 92 300.309570312 92 c 0
 318.309570312 92 328.309570312 93 346.309570312 97 c 0xd8
 359.309570312 100 365.309570312 107 378.309570312 110 c 0
 398.309570312 115 409.309570312 114 429.309570312 118 c 0
 443.309570312 121 450.309570312 123 464.309570312 126 c 0
 485.309570312 130 497.309570312 133 518.309570312 137 c 0
 528.309570312 139 534.309570312 138 544.309570312 141 c 0
 549.309570312 143 549.309570312 147 554.309570312 150 c 0
 558.309570312 153 560.309570312 155 564.309570312 156 c 0
 572.309570312 158 577.309570312 161 586.309570312 158 c 0
 592.309570312 156 592.309570312 151 596.309570312 146 c 0
 599.309570312 142 601.309570312 139 602.309570312 134 c 0
 603.309570312 131 604.309570312 128 602.309570312 125 c 0
 598.309570312 118 594.309570312 115 588.309570312 110 c 0
 578.309570312 102 573.309570312 99 561.309570312 93 c 0
 552.309570312 88 546.309570312 86 536.309570312 83 c 0
 519.309570312 77 509.309570312 74 492.309570312 70 c 0
 477.309570312 66 468.309570312 67 452.309570312 63 c 0
 436.309570312 59 427.309570312 54 411.309570312 49 c 0
 398.309570312 45 391.309570312 44 378.309570312 42 c 0
 364.309570312 39 356.309570312 38 342.309570312 36 c 0
 328.309570312 34 319.309570312 33 305.309570312 30 c 0
 295.309570312 28 290.309570312 26 280.309570312 23 c 0
 271.309570312 20 265.309570312 19 256.309570312 16 c 0
 251.309570312 15 249.309570312 13 244.309570312 12 c 0
 230.309570312 9 222.309570312 5 208.309570312 4 c 0
 180.423828125 1.67578125 162.138671875 -0.6474609375 138.581054688 -0.6474609375 c 0
 131.725585938 -0.6474609375 124.423828125 -0.451171875 116.309570312 0 c 0
 105.309570312 1 101.309570312 8 90.3095703125 10 c 0
 79.3095703125 12 73.3095703125 10 62.3095703125 12 c 0
 52.3095703125 14 46.3095703125 16 38.3095703125 22 c 0
 30.3095703125 28 25.3095703125 33 22.3095703125 43 c 0
 20.619140625 48.072265625 20 52.4287109375 20 56.7509765625 c 0
 20 62.6552734375 21.154296875 68.494140625 22.3095703125 76 c 0
 23.3095703125 84 25.3095703125 88 30.3095703125 94 c 0
 35.3095703125 100 40.3095703125 103 48.3095703125 104 c 0
 55.0810546875 105.354492188 60.62890625 105.893554688 66.05859375 105.893554688 c 0
 72.6572265625 105.893554688 79.0810546875 105.096679688 87.3095703125 104 c 0
 92.3095703125 103 94.3095703125 100 99.3095703125 98 c 0
 104.309570312 96 108.309570312 95 113.309570312 92 c 0
 116.309570312 90 118.309570312 89 119.309570312 86 c 0
 121.309570312 82 123.309570312 79 120.309570312 76 c 0
 116.309570312 72 111.309570312 73 105.309570312 73 c 0
 100.309570312 73 98.3095703125 75 93.3095703125 75 c 0
 90.3095703125 75 86.3095703125 75 86.3095703125 72 c 0
 86.3095703125 68 89.3095703125 65 92.3095703125 64 c 0
 99.3095703125 61 103.309570312 62 110.309570312 62 c 0
 148.309570312 63 170.309570312 63 208.309570312 66 c 0
 216.309570312 67 225.309570312 65 227.309570312 72 c 0
 237.309570312 120 231.309570312 149 236.309570312 198 c 0
 239.309570312 229 244.309570312 247 249.309570312 278 c 0
 252.309570312 299 256.309570312 311 258.309570312 332 c 0
 263.309570312 374 262.309570312 397 268.309570312 439 c 0
 272.309570312 466 276.309570312 480 284.309570312 507 c 0
 285.309570312 511 290.309570312 512 290.309570312 516 c 0
 291.524414062 545.166015625 293.478515625 566.948242188 293.478515625 590.319335938 c 0
 293.478515625 605.411132812 292.6640625 621.166015625 290.309570312 640 c 0xd4
 289.309570312 651 276.309570312 651 272.309570312 662 c 0
 271.591796875 664.010742188 271.306640625 666.08203125 271.306640625 668.177734375 c 0
 271.306640625 676.245117188 275.530273438 684.659179688 275.530273438 691.223632812 c 0
 275.530273438 694.828125 274.255859375 697.875 270.309570312 700 c 0
 262.688476562 704.502929688 255.547851562 706.006835938 248.430664062 706.006835938 c 0
 234.999023438 706.006835938 221.649414062 700.653320312 205.309570312 700 c 0
 202.309570312 700 201.309570312 698 198.309570312 697 c 0
 189.309570312 695 183.309570312 693 174.309570312 694 c 0
 171.309570312 694 173.309570312 699 170.309570312 700 c 0
 166.008789062 700.806640625 162.142578125 701.03515625 158.495117188 701.03515625 c 0
 153.727539062 701.03515625 149.3359375 700.64453125 144.841796875 700.64453125 c 0
 139.984375 700.64453125 135.0078125 701.100585938 129.309570312 703 c 0
 115.309570312 707 108.309570312 713 96.3095703125 722 c 0
 84.3095703125 731 77.3095703125 737 68.3095703125 750 c 0
 65.3095703125 754 64.3095703125 758 67.3095703125 762 c 0xe8
EndSplineSet
Validated: 1
EndChar

StartChar: J
Encoding: 74 74 20
Width: 685
Flags: HMW
HStem: 687 87 739 37 739 47
VStem: 354.255 71
LayerCount: 2
Fore
SplineSet
20.2548828125 732 m 0x90
 20.0830078125 733.458007812 20 734.857421875 20 736.203125 c 0
 20 750.543945312 29.4560546875 758.772460938 42.2548828125 767 c 0
 52.2548828125 773 60.2548828125 766 72.2548828125 763 c 0
 82.2548828125 761 88.2548828125 757 98.2548828125 754 c 0
 123.254882812 747 137.254882812 742 162.254882812 736 c 0
 172.952148438 733.53125 180.263671875 731.740234375 189.76171875 731.740234375 c 0
 191.806640625 731.740234375 193.952148438 731.823242188 196.254882812 732 c 0
 217.254882812 734 228.254882812 738 248.254882812 744 c 0
 266.254882812 749 277.254882812 752 294.254882812 760 c 0
 302.254882812 764 303.254882812 773 311.254882812 774 c 0x90
 313.1640625 774.318359375 314.947265625 774.458984375 316.64453125 774.458984375 c 0
 325.609375 774.458984375 332.1640625 770.522460938 342.254882812 768 c 0
 352.254882812 765 356.254882812 759 366.254882812 758 c 0
 378.301757812 757.073242188 387.986328125 756.361328125 397.59765625 756.361328125 c 0
 408.73046875 756.361328125 419.8046875 757.110351562 434.254882812 760 c 0
 449.254882812 763 455.96484375 768.1796875 471 771 c 0
 474.883789062 771.728515625 479.637695312 773 483 773 c 4
 491.051757812 773 497.173828125 775.512695312 505.85546875 775.512695312 c 0
 508.485351562 775.512695312 511.26171875 775.647460938 514.254882812 776 c 0x50
 536.254882812 778 548.254882812 785 570.254882812 787 c 0
 576.366210938 787.763671875 581.456054688 788.08984375 586.305664062 788.08984375 c 0
 594.151367188 788.08984375 601.366210938 787.236328125 611.254882812 786 c 0
 615.504882812 785.5 619.504882812 785.4375 623.317382812 785.4375 c 0
 624.587890625 785.4375 625.837890625 785.444335938 627.069335938 785.444335938 c 0
 636.921875 785.444335938 645.587890625 785 654.254882812 777 c 0
 660.661132812 771.234375 665.8359375 761.774414062 665.8359375 753.879882812 c 0
 665.8359375 749.452148438 664.208007812 745.515625 660.254882812 743 c 0
 651.474609375 737.87890625 643.364257812 736.370117188 635.286132812 736.370117188 c 0
 623.711914062 736.370117188 612.205078125 739.466796875 598.892578125 739.466796875 c 0
 596.098632812 739.466796875 593.225585938 739.330078125 590.254882812 739 c 0x30
 562.254882812 736 547.254882812 733 519.254882812 728 c 0
 497.254882812 724 484.254882812 723 462.254882812 718 c 0
 444.254882812 714 435.254882812 711 417.254882812 707 c 0
 407.254882812 705 397.254882812 710 391.254882812 702 c 0
 386.254882812 696 397.254882812 693 400.254882812 686 c 0
 405.254882812 673 408.254882812 665 410.254882812 652 c 0
 410.807617188 648.68359375 410.978515625 645.671875 410.978515625 642.797851562 c 0
 410.978515625 638.146484375 410.53125 633.853515625 410.53125 629.202148438 c 0
 410.53125 626.328125 410.702148438 623.31640625 411.254882812 620 c 0
 414.254882812 606 421.254882812 599 422.254882812 584 c 0
 425.213867188 543.760742188 426.071289062 514.02734375 426.071289062 482.365234375 c 0
 426.071289062 460.521484375 425.663085938 437.760742188 425.254882812 410 c 0
 425.254882812 384 425.254882812 369 418.254882812 344 c 0
 415.254882812 334 403.254882812 334 400.254882812 324 c 0
 392.254882812 298 396.254882812 283 390.254882812 256 c 0
 386.254882812 236 380.254882812 226 374.254882812 206 c 0
 368.254882812 187 365.254882812 177 359.254882812 158 c 0
 353.254882812 141 349.254882812 132 343.254882812 116 c 0
 339.254882812 104 339.254882812 98 334.254882812 86 c 0
 329.254882812 74 325.254882812 68 318.254882812 58 c 0
 310.254882812 47 306.254882812 41 296.254882812 32 c 0
 285.254882812 22 280.254882812 11 265.254882812 8 c 0
 252.209960938 5.314453125 241.079101562 4.3955078125 230.336914062 4.3955078125 c 0
 213.080078125 4.3955078125 196.826171875 6.767578125 175.254882812 8 c 0
 160.254882812 9 151.254882812 9 137.254882812 17 c 0
 120.254882812 26 113.254882812 36 100.254882812 50 c 0
 87.2548828125 64 82.2548828125 74 72.2548828125 90 c 0
 68.2548828125 97 64.2548828125 100 63.2548828125 108 c 0
 62.4267578125 118.76953125 61.94140625 127.651367188 61.94140625 136.28125 c 0
 61.94140625 148.485351562 62.912109375 160.18359375 65.2548828125 176 c 0
 66.2548828125 180 71.2548828125 180 75.2548828125 180 c 0
 82.2548828125 180 85.2548828125 180 92.2548828125 178 c 0
 95.2548828125 177 97.2548828125 175 99.2548828125 172 c 0
 104.254882812 164 104.254882812 158 110.254882812 150 c 0
 117.254882812 141 122.254882812 137 131.254882812 130 c 0
 139.254882812 123 146.254882812 121 154.254882812 114 c 0
 162.254882812 107 166.254882812 103 174.254882812 96 c 0
 179.254882812 92 181.254882812 90 186.254882812 86 c 0
 189.254882812 83 190.254882812 78 194.254882812 78 c 0
 203.374023438 77.1318359375 210.796875 76.451171875 217.9140625 76.451171875 c 0
 227.185546875 76.451171875 235.940429688 77.60546875 247.254882812 81 c 0
 256.254882812 84 257.254882812 92 262.254882812 100 c 0
 269.254882812 110 275.254882812 115 279.254882812 126 c 0
 283.254882812 137 280.254882812 144 284.254882812 156 c 0
 290.254882812 177 296.254882812 188 303.254882812 208 c 0
 308.254882812 223 311.254882812 231 316.254882812 246 c 0
 330.254882812 290 340.254882812 315 350.254882812 360 c 0
 354.254882812 378 353.254882812 389 354.254882812 408 c 0
 356.934570312 462.482421875 360.411132812 495.42578125 360.411132812 545.305664062 c 0
 360.411132812 551.272460938 360.361328125 557.482421875 360.254882812 564 c 0
 360.254882812 580 353.254882812 588 351.254882812 603 c 0
 350.254882812 609.333007812 350.032226562 614.888671875 350.032226562 620.185546875 c 0
 350.032226562 624.421875 350.174804688 628.493164062 350.174804688 632.6640625 c 0
 350.174804688 638.919921875 349.854492188 645.400390625 348.254882812 653 c 0
 345.254882812 665 341.254882812 670 334.254882812 680 c 0
 331.254882812 684 328.254882812 687 323.254882812 687 c 0
 298.254882812 687 283.254882812 683 258.254882812 680 c 0
 231.254882812 677 215.254882812 672 188.254882812 670 c 0
 184.50390625 669.732421875 181.182617188 669.607421875 178.0625 669.607421875 c 0
 169.537109375 669.607421875 162.50390625 670.536132812 152.254882812 672 c 0
 130.254882812 674 117.254882812 676 95.2548828125 680 c 0
 88.2548828125 681 85.2548828125 684 79.2548828125 686 c 0
 68.2548828125 691 60.2548828125 691 50.2548828125 698 c 0
 36.2548828125 709 22.2548828125 714 20.2548828125 732 c 0x90
EndSplineSet
Validated: 1
EndChar

StartChar: K
Encoding: 75 75 21
Width: 519
Flags: HMW
VStem: 21.0334 36 177.033 67
LayerCount: 2
Fore
SplineSet
93.033203125 375 m 0
 98.033203125 401 94.033203125 416 98.033203125 442 c 0
 100.033203125 456 104.033203125 465 108.033203125 479 c 0
 112.033203125 491 115.033203125 498 118.033203125 511 c 0
 123.033203125 533 125.033203125 545 130.033203125 567 c 0
 135.033203125 591 138.033203125 605 144.033203125 629 c 0
 150.033203125 653 154.033203125 667 160.033203125 691 c 0
 167.033203125 721 164.033203125 739 177.033203125 767 c 0
 184.033203125 781 193.033203125 787 207.033203125 793 c 0
 217.033203125 797 226.033203125 796 234.033203125 789 c 0
 241.670898438 781.362304688 244.267578125 773.724609375 244.267578125 764.25390625 c 0
 244.267578125 762.564453125 244.184570312 760.81640625 244.033203125 759 c 0
 242.033203125 742 233.033203125 735 227.033203125 719 c 0
 214.033203125 681 206.033203125 660 197.033203125 622 c 0
 193.033203125 604 196.033203125 593 192.033203125 575 c 0
 188.033203125 557 182.033203125 549 176.033203125 532 c 0
 166.033203125 505 158.033203125 491 152.033203125 464 c 0
 150.174804688 455.44921875 149.8359375 448.004882812 149.8359375 440.84375 c 0
 149.8359375 436.740234375 149.947265625 432.73046875 149.947265625 428.659179688 c 0
 149.947265625 420.721679688 149.524414062 412.55078125 147.033203125 403 c 0
 145.033203125 396 137.033203125 396 134.033203125 389 c 0
 133.033203125 386 135.033203125 382 138.033203125 381 c 0
 145.033203125 378 149.033203125 376 155.033203125 379 c 0
 159.033203125 381 156.033203125 387 159.033203125 390 c 0
 188.033203125 420 206.033203125 436 237.033203125 465 c 0
 259.033203125 485 273.033203125 495 294.033203125 516 c 0
 330.033203125 551 348.033203125 574 384.033203125 609 c 0
 422.033203125 645 433.033203125 658 476.033203125 693 c 0
 478.172851562 694.833984375 480.381835938 695.639648438 482.547851562 695.639648438 c 0
 491.176757812 695.639648438 499.104492188 682.8359375 499.104492188 671.23046875 c 0
 499.104492188 666.69140625 497.891601562 662.334960938 495.033203125 659 c 0
 443.033203125 599 401.033203125 562 351.033203125 489 c 0
 344.091796875 479.166015625 342.169921875 469.666992188 342.169921875 459.340820312 c 0
 342.169921875 451.81640625 343.190429688 443.852539062 344.033203125 435 c 0
 347.033203125 409 356.033203125 397 363.033203125 369 c 0
 375.033203125 320 369.033203125 291 381.033203125 243 c 0
 394.033203125 191 405.033203125 163 426.033203125 114 c 0
 430.033203125 105 444.033203125 106 444.033203125 96 c 0
 444.033203125 87 435.033203125 83 426.033203125 81 c 0
 415.033203125 79 406.033203125 79 399.033203125 87 c 0
 372.033203125 116 358.033203125 135 342.033203125 171 c 0
 323.033203125 213 323.033203125 239 315.033203125 285 c 0
 308.033203125 323 307.033203125 345 303.033203125 384 c 0
 302.666015625 387.0625 302.5234375 390.065429688 302.5234375 393.008789062 c 0
 302.5234375 403.135742188 304.209960938 412.552734375 304.209960938 421.2578125 c 0
 304.209960938 430.669921875 302.23828125 439.250976562 294.033203125 447 c 0
 291.94140625 448.916992188 289.94140625 449.741210938 288 449.741210938 c 0
 278.8046875 449.741210938 270.94140625 431.256835938 261.033203125 423 c 0
 225.033203125 393 201.033203125 380 171.033203125 345 c 0
 156.033203125 327 165.033203125 304 147.033203125 288 c 0
 138.033203125 280 131.033203125 303 120.033203125 300 c 0
 111.033203125 298 110.033203125 288 108.033203125 279 c 0
 107.3046875 275.359375 107.047851562 272.071289062 107.047851562 268.965820312 c 0
 107.047851562 261.530273438 108.520507812 255.13671875 108.520507812 247.430664062 c 0
 108.520507812 245.095703125 108.385742188 242.640625 108.033203125 240 c 0
 103.033203125 207 99.033203125 188 90.033203125 156 c 0
 82.033203125 126 71.033203125 111 63.033203125 81 c 0
 58.033203125 60 63.033203125 45 57.033203125 24 c 0
 54.033203125 13 50.033203125 -3 39.033203125 0 c 0
 25.033203125 4 23.033203125 18 21.033203125 33 c 0
 20.3173828125 38.490234375 20 43.4677734375 20 48.1767578125 c 0
 20 63.1962890625 23.2265625 75.490234375 27.033203125 93 c 0
 50.033203125 204 70.033203125 264 93.033203125 375 c 0
EndSplineSet
Validated: 1
EndChar

StartChar: a
Encoding: 97 97 22
Width: 496
Flags: HMW
HStem: 119.286 0.297432G<142.963 144.243> 127.501 0.637353 127.657 0.793151
VStem: 136.14 11.2589<122.289 122.544> 136.651 13.9883 136.822 15.0119
LayerCount: 2
Fore
SplineSet
320.494140625 199.540039062 m 0xb0
 311.793945312 190.299804688 307.444335938 183.370117188 297.874023438 174.900390625 c 0
 286.564453125 164.120117188 281.34375 157.959960938 267.423828125 149.490234375 c 0
 253.50390625 141.01953125 243.934570312 138.709960938 228.274414062 131.780273438 c 0
 213.484375 124.849609375 205.654296875 119.459960938 189.994140625 114.83984375 c 0
 169.984375 108.6796875 157.803710938 107.139648438 137.793945312 104.830078125 c 0
 129.97265625 104.137695312 123.557617188 103.756835938 117.28515625 103.756835938 c 0
 109.602539062 103.756835938 102.1328125 104.328125 92.5537109375 105.599609375 c 0
 82.984375 107.139648438 77.763671875 110.219726562 69.9345703125 114.0703125 c 0
 59.494140625 119.459960938 52.5341796875 122.540039062 43.833984375 131.009765625 c 0
 34.263671875 140.25 28.173828125 145.639648438 22.9541015625 157.190429688 c 0
 20.537109375 162.323242188 20 166.505859375 20 170.926757812 c 0
 20 174.462890625 20.34375 178.151367188 20.34375 182.599609375 c 0
 20.34375 196.459960938 22.083984375 204.9296875 24.6943359375 218.790039062 c 0
 27.3037109375 231.110351562 27.3037109375 238.040039062 32.5244140625 249.58984375 c 0
 37.744140625 262.6796875 43.833984375 269.610351562 50.7939453125 281.9296875 c 0
 57.75390625 294.25 59.494140625 301.950195312 67.32421875 313.5 c 0
 73.4140625 321.969726562 79.50390625 325.8203125 85.59375 334.290039062 c 0
 94.2939453125 345.83984375 95.1640625 353.540039062 104.734375 365.08984375 c 0
 119.524414062 383.5703125 129.09375 392.809570312 145.624023438 409.75 c 0
 154.32421875 418.990234375 160.4140625 423.610351562 170.854492188 431.309570312 c 0
 189.124023438 445.940429688 199.564453125 453.639648438 217.833984375 467.5 c 0
 234.364257812 479.8203125 243.064453125 488.290039062 260.463867188 499.0703125 c 0
 271.774414062 506 278.734375 507.540039062 290.9140625 512.9296875 c 0
 300.484375 517.549804688 305.704101562 522.940429688 316.14453125 525.25 c 0
 326.583984375 527.559570312 332.673828125 526.01953125 343.114257812 526.01953125 c 0xb0
 350.421875 526.01953125 355.850585938 526.8515625 361.467773438 526.8515625 c 0
 365.211914062 526.8515625 369.040039062 526.482421875 373.564453125 525.25 c 0
 379.654296875 523.709960938 380.524414062 516.780273438 385.744140625 514.469726562 c 0
 393.57421875 510.620117188 398.793945312 510.620117188 406.624023438 509.080078125 c 0
 416.194335938 507.540039062 423.154296875 512.16015625 430.984375 507.540039062 c 0
 437.07421875 503.690429688 437.07421875 497.530273438 436.204101562 491.370117188 c 0
 435.333984375 486.75 432.723632812 483.669921875 428.374023438 480.58984375 c 0
 422.284179688 476.740234375 418.803710938 474.4296875 410.973632812 474.4296875 c 0xc8
 398.793945312 474.4296875 392.704101562 478.280273438 380.524414062 480.58984375 c 0
 371.82421875 482.129882812 366.604492188 483.669921875 357.034179688 482.900390625 c 0
 343.114257812 482.129882812 335.284179688 480.58984375 323.104492188 475.969726562 c 0
 301.354492188 467.5 289.173828125 462.110351562 270.034179688 449.790039062 c 0
 250.89453125 438.240234375 241.32421875 430.540039062 224.793945312 415.91015625 c 0
 205.654296875 398.969726562 196.083984375 388.190429688 179.553710938 369.709960938 c 0
 170.854492188 360.469726562 166.50390625 354.309570312 158.673828125 344.299804688 c 0
 151.713867188 335.830078125 147.364257812 331.98046875 141.274414062 322.740234375 c 0
 130.833984375 308.110351562 126.484375 298.870117188 117.784179688 283.469726562 c 0
 108.213867188 265.759765625 102.994140625 255.75 94.2939453125 238.040039062 c 0
 89.07421875 228.030273438 88.2041015625 221.099609375 82.1142578125 211.08984375 c 0
 80.3740234375 208.009765625 76.0244140625 208.009765625 75.154296875 204.9296875 c 0
 74.2841796875 199.924804688 73.6318359375 195.690429688 73.6318359375 191.55078125 c 0
 73.6318359375 187.412109375 74.2841796875 183.370117188 76.0244140625 178.75 c 0
 79.50390625 168.740234375 82.984375 163.349609375 92.5537109375 157.190429688 c 0
 101.25390625 151.799804688 108.213867188 151.799804688 118.654296875 151.030273438 c 0
 123.970703125 150.44140625 128.526367188 150.190429688 132.90234375 150.190429688 c 0
 139.981445312 150.190429688 146.590820312 150.848632812 155.194335938 151.799804688 c 0
 163.89453125 152.5703125 167.374023438 155.650390625 175.204101562 158.73046875 c 0
 184.774414062 163.349609375 189.994140625 166.4296875 199.564453125 171.049804688 c 2
 222.184570312 181.059570312 l 2
 231.75390625 185.6796875 239.583984375 185.6796875 247.4140625 191.83984375 c 0
 259.59375 200.309570312 263.944335938 206.469726562 273.513671875 217.25 c 0
 281.34375 225.719726562 286.564453125 230.33984375 293.524414062 240.349609375 c 0
 299.614257812 249.58984375 301.354492188 255.75 305.704101562 264.990234375 c 0
 310.053710938 273.459960938 313.534179688 278.849609375 317.883789062 287.3203125 c 0
 323.104492188 298.099609375 325.713867188 304.259765625 329.194335938 315.040039062 c 0
 332.673828125 325.049804688 335.284179688 331.209960938 337.024414062 341.990234375 c 0
 337.458984375 344.877929688 337.622070312 347.4765625 337.622070312 349.930664062 c 0
 337.622070312 357.293945312 336.154296875 363.357421875 336.154296875 372.01953125 c 2
 336.154296875 398.969726562 l 2xa4
 336.154296875 409.049804688 334.313476562 415.872070312 334.313476562 424.174804688 c 0
 334.313476562 427.288085938 334.572265625 430.610351562 335.284179688 434.389648438 c 0
 337.024414062 441.3203125 340.50390625 445.940429688 346.59375 450.559570312 c 0
 355.293945312 456.719726562 361.383789062 460.5703125 371.82421875 461.33984375 c 0
 381.39453125 462.110351562 386.614257812 459.799804688 395.314453125 455.1796875 c 0
 401.404296875 452.099609375 404.013671875 449.01953125 406.624023438 443.629882812 c 0xa8
 410.973632812 432.080078125 411.84375 424.379882812 412.713867188 412.059570312 c 0xa4
 412.833007812 410.375976562 412.88671875 408.778320312 412.88671875 407.244140625 c 0
 412.88671875 397.548828125 410.736328125 390.356445312 409.234375 379.719726562 c 0
 407.494140625 361.240234375 406.624023438 350.459960938 404.013671875 331.98046875 c 0
 402.274414062 318.120117188 400.534179688 309.650390625 397.923828125 295.790039062 c 0
 395.314453125 281.9296875 390.963867188 275 389.223632812 261.139648438 c 0
 388.7890625 256.712890625 388.625976562 252.814453125 388.625976562 249.180664062 c 0
 388.625976562 238.280273438 390.09375 229.762695312 390.09375 216.48046875 c 2
 390.09375 174.129882812 l 1
 390.09375 135.629882812 l 2
 390.09375 127.416992188 387.774414062 121.256835938 387.774414062 114.640625 c 0
 387.774414062 111.33203125 388.354492188 107.91015625 390.09375 104.059570312 c 0
 391.833984375 99.4404296875 399.6640625 100.98046875 404.013671875 104.059570312 c 0
 410.973632812 108.6796875 410.973632812 114.0703125 415.32421875 120.23046875 c 0
 419.673828125 125.620117188 421.4140625 128.700195312 426.633789062 132.549804688 c 0
 430.984375 135.629882812 435.333984375 136.400390625 440.553710938 136.400390625 c 0
 446.64453125 136.400390625 451.864257812 135.629882812 454.473632812 131.780273438 c 0
 457.954101562 126.389648438 457.083984375 121 454.473632812 114.83984375 c 0
 446.64453125 95.58984375 438.814453125 85.580078125 427.50390625 67.8701171875 c 0
 422.284179688 59.400390625 418.803710938 54.009765625 410.973632812 47.080078125 c 0
 403.14453125 40.150390625 397.923828125 36.2998046875 387.484375 31.6796875 c 0
 381.39453125 28.599609375 377.043945312 27.830078125 370.954101562 27.830078125 c 0
 363.994140625 27.830078125 360.513671875 30.1396484375 353.553710938 32.4501953125 c 0
 345.723632812 34.759765625 337.89453125 33.2197265625 334.4140625 40.150390625 c 0
 332.095703125 45.1337890625 331.416015625 49.5595703125 331.416015625 53.9375 c 0
 331.416015625 60.12890625 332.774414062 66.224609375 332.774414062 73.6669921875 c 0
 332.774414062 74.7822265625 332.744140625 75.9287109375 332.673828125 77.1103515625 c 0
 331.803710938 94.0498046875 329.194335938 103.290039062 329.194335938 120.23046875 c 0
 329.194335938 134.860351562 330.934570312 142.559570312 331.803710938 157.190429688 c 0
 332.673828125 170.280273438 332.673828125 177.98046875 332.673828125 191.0703125 c 0
 332.673828125 196.459960938 335.284179688 200.309570312 332.673828125 204.9296875 c 0
 330.934570312 207.240234375 328.32421875 206.469726562 324.84375 204.9296875 c 0
 322.234375 203.389648438 322.234375 201.849609375 320.494140625 199.540039062 c 0xb0
EndSplineSet
Validated: 1
EndChar

StartChar: b
Encoding: 98 98 23
Width: 391
Flags: HMW
HStem: 412 38
VStem: 110.022 40 322.022 48<250 312>
LayerCount: 2
Fore
SplineSet
158.021484375 412 m 0
 146.021484375 411 135.021484375 409 130.021484375 398 c 0
 127.995117188 393.658203125 127.309570312 389.568359375 127.309570312 385.53515625 c 0
 127.309570312 377.086914062 130.319335938 368.890625 130.319335938 359.163085938 c 0
 130.319335938 357.490234375 130.23046875 355.772460938 130.021484375 354 c 0
 127.021484375 329 122.021484375 315 118.021484375 290 c 0
 114.021484375 265 113.021484375 251 108.021484375 226 c 0
 104.021484375 207 100.021484375 197 96.021484375 178 c 0
 94.021484375 167 96.021484375 161 94.021484375 150 c 0
 93.021484375 141 85.021484375 137 88.021484375 128 c 0
 92.021484375 114 96.021484375 103 110.021484375 98 c 0
 113.881835938 96.712890625 117.412109375 96.1552734375 120.780273438 96.1552734375 c 0
 130.5 96.1552734375 138.881835938 100.801757812 150.021484375 106 c 0
 173.021484375 116 183.021484375 127 204.021484375 140 c 0
 221.021484375 151 231.021484375 156 246.021484375 168 c 0
 259.021484375 178 267.021484375 184 278.021484375 196 c 0
 287.021484375 206 290.021484375 214 298.021484375 226 c 0
 306.021484375 239 314.021484375 245 318.021484375 260 c 0
 321.592773438 272.142578125 322.103515625 281.224609375 322.103515625 291.982421875 c 0
 322.103515625 296.286132812 322.021484375 300.857421875 322.021484375 306 c 0
 322.021484375 318 324.021484375 325 318.021484375 336 c 0
 310.021484375 352 301.021484375 359 288.021484375 372 c 0
 276.021484375 385 270.021484375 395 254.021484375 402 c 0
 250.061523438 403.697265625 246.500976562 404.274414062 243.091796875 404.274414062 c 0
 235.850585938 404.274414062 229.290039062 401.669921875 221.025390625 401.669921875 c 0
 219.426757812 401.669921875 217.764648438 401.767578125 216.021484375 402 c 0
 194.224609375 403.895507812 182.307617188 412.077148438 161.544921875 412.077148438 c 0
 160.3984375 412.077148438 159.224609375 412.052734375 158.021484375 412 c 0
156.021484375 498 m 0
 154.021484375 486 147.021484375 480 150.021484375 468 c 0
 152.021484375 459 159.021484375 455 168.021484375 452 c 0
 173.427734375 450.198242188 178.0546875 449.6953125 182.510742188 449.6953125 c 0
 188.143554688 449.6953125 193.504882812 450.499023438 199.822265625 450.499023438 c 0
 202.372070312 450.499023438 205.078125 450.368164062 208.021484375 450 c 0
 228.021484375 447 239.021484375 446 258.021484375 440 c 0
 279.021484375 433 292.021484375 429 310.021484375 416 c 0
 326.021484375 404 332.021484375 394 344.021484375 378 c 0
 354.021484375 364 360.021484375 355 366.021484375 338 c 0
 371.021484375 322 369.021484375 312 370.021484375 296 c 0
 370.62890625 285.0625 371.606445312 277.079101562 371.606445312 268.459960938 c 0
 371.606445312 262.893554688 371.198242188 257.0625 370.021484375 250 c 0
 367.021484375 231 364.021484375 220 356.021484375 202 c 0
 348.021484375 185 340.021484375 177 328.021484375 162 c 0
 317.021484375 149 311.021484375 143 298.021484375 132 c 0
 283.021484375 120 274.021484375 114 258.021484375 104 c 0
 240.021484375 92 229.021484375 87 210.021484375 76 c 0
 189.021484375 65 179.021484375 55 156.021484375 48 c 0
 150.52734375 46.3095703125 145.747070312 45.6904296875 141.001953125 45.6904296875 c 0
 134.520507812 45.6904296875 128.104492188 46.845703125 120.021484375 48 c 0
 106.021484375 50 100.021484375 59 86.021484375 60 c 0
 79.021484375 61 75.021484375 57 70.021484375 52 c 0
 63.021484375 44 66.021484375 30 56.021484375 28 c 0
 46.021484375 26 45.021484375 39 38.021484375 46 c 0
 32.021484375 52 24.021484375 53 22.021484375 60 c 0
 20.5126953125 65.6572265625 20 70.4609375 20 75.109375 c 0
 20 82.7841796875 21.3984375 90.0341796875 22.021484375 100 c 0
 23.021484375 119 25.021484375 129 28.021484375 148 c 0
 31.021484375 164 33.021484375 174 36.021484375 190 c 0
 39.021484375 208 39.021484375 218 42.021484375 236 c 0
 44.021484375 251 45.021484375 259 48.021484375 274 c 0
 51.021484375 290 53.021484375 300 56.021484375 316 c 0
 59.021484375 332 59.021484375 340 62.021484375 356 c 0
 64.021484375 368 68.021484375 374 70.021484375 386 c 0
 71.021484375 393 73.021484375 398 70.021484375 404 c 0
 65.021484375 414 55.021484375 415 50.021484375 426 c 0
 45.021484375 435 39.021484375 444 46.021484375 452 c 0
 49.515625 456.3671875 53.771484375 457.301757812 58.4580078125 457.301757812 c 0
 61.9619140625 457.301757812 65.70703125 456.778320312 69.5537109375 456.778320312 c 0
 72.3408203125 456.778320312 75.1806640625 457.052734375 78.021484375 458 c 0
 85.021484375 460 92.021484375 461 94.021484375 468 c 0
 95.5302734375 471.62109375 96.037109375 474.969726562 96.037109375 478.237304688 c 0
 96.037109375 484.935546875 93.90625 491.29296875 93.90625 498.969726562 c 0
 93.90625 499.956054688 93.9423828125 500.965820312 94.021484375 502 c 0
 95.021484375 516 97.3828125 523.927734375 100.021484375 538 c 0
 103.021484375 554 105.21875 561.974609375 107 578 c 0
 107.5234375 582.708984375 108 590.099609375 108 594 c 4
 108 602.765625 109.811523438 608.982421875 109.811523438 618.36328125 c 0
 109.811523438 620.763671875 109.87109375 623.291015625 110.021484375 626 c 0
 111.021484375 645 113.021484375 655 116.021484375 674 c 0
 118.021484375 690 120.021484375 698 124.021484375 714 c 0
 127.021484375 727 130.021484375 735 134.021484375 748 c 0
 137.021484375 757 134.021484375 766 142.021484375 772 c 0
 149.021484375 778 157.021484375 772 166.021484375 772 c 0
 175.021484375 772 182.021484375 777 188.021484375 770 c 0
 196.825195312 758.555664062 200.203125 747.885742188 200.203125 733.896484375 c 0
 200.203125 731.99609375 200.12890625 730.03515625 200.021484375 728 c 0
 199.021484375 709 194.212890625 698.954101562 190 680 c 0
 188.73046875 674.288085938 187 670.78125 187 666 c 0
 187 659.608398438 183.038085938 654.120117188 183.038085938 647.389648438 c 0
 183.038085938 643.288085938 182.796875 638.911132812 182.021484375 634 c 0
 179.021484375 615 175.021484375 605 170.021484375 586 c 0
 166.021484375 570 163.021484375 562 160.021484375 546 c 0
 157.021484375 527 158.021484375 517 156.021484375 498 c 0
EndSplineSet
Validated: 1
EndChar

StartChar: c
Encoding: 99 99 24
Width: 465
Flags: HMW
HStem: 102 110 472 64
VStem: 21.5485 64
LayerCount: 2
Fore
SplineSet
319.548828125 519 m 0
 328.548828125 512 321.548828125 502 318.548828125 492 c 0
 315.548828125 483 312.548828125 477 304.548828125 472 c 0
 295.548828125 467 289.548828125 469 279.548828125 470 c 0
 268.548828125 471 263.548828125 479 252.548828125 476 c 0
 236.548828125 472 230.548828125 465 217.548828125 454 c 0
 194.548828125 435 182.548828125 423 162.548828125 402 c 0
 148.548828125 388 139.548828125 380 129.548828125 363 c 0
 116.548828125 341 113.548828125 326 105.548828125 302 c 0
 99.548828125 286 97.548828125 276 93.548828125 260 c 0
 89.548828125 241 85.548828125 231 85.548828125 212 c 0
 85.548828125 191 87.548828125 180 91.548828125 159 c 0
 93.548828125 149 93.548828125 142 99.548828125 134 c 0
 111.548828125 118 120.548828125 109 136.548828125 98 c 0
 143.548828125 93 149.548828125 94 157.548828125 94 c 0
 177.548828125 95 189.548828125 97 208.548828125 102 c 0
 223.548828125 106 231.548828125 110 244.548828125 118 c 0
 272.548828125 134 285.548828125 146 312.548828125 164 c 0
 336.548828125 180 346.548828125 195 372.548828125 206 c 0
 385.21484375 211.333007812 395.21484375 214 406.400390625 214 c 0
 411.993164062 214 417.881835938 213.333007812 424.548828125 212 c 0
 435.548828125 209 442.548828125 202 444.548828125 190 c 0
 445.008789062 187.083984375 445.209960938 184.35546875 445.209960938 181.754882812 c 0
 445.209960938 167.411132812 439.087890625 156.9296875 436.548828125 140 c 0
 434.548828125 128 440.548828125 119 432.548828125 110 c 0
 424.548828125 101 414.548828125 100 403.548828125 102 c 0
 390.548828125 104 386.548828125 114 373.548828125 118 c 0
 366.548828125 120 361.548828125 119 355.548828125 116 c 0
 333.548828125 106 321.548828125 97 300.548828125 86 c 0
 272.548828125 72 258.548828125 62 229.548828125 50 c 0
 211.548828125 43 200.548828125 41 181.548828125 38 c 0
 164.163085938 35.8271484375 152.549804688 32.0791015625 138.346679688 32.0791015625 c 0
 132.942382812 32.0791015625 127.163085938 32.6220703125 120.548828125 34 c 0
 101.548828125 38 92.548828125 47 78.548828125 60 c 0
 64.548828125 74 59.548828125 85 49.548828125 102 c 0
 38.548828125 121 29.548828125 130 24.548828125 152 c 0
 21.154296875 166.708984375 20 177.897460938 20 189.73046875 c 0
 20 198.813476562 20.6796875 208.275390625 21.548828125 220 c 0
 23.548828125 249 26.548828125 266 36.548828125 294 c 0
 47.548828125 325 57.548828125 342 75.548828125 370 c 0
 98.548828125 407 115.548828125 425 141.548828125 460 c 0
 154.548828125 477 159.548828125 488 175.548828125 501 c 0
 191.548828125 514 203.548828125 518 223.548828125 526 c 0
 235.424804688 531.481445312 243.127929688 536.127929688 255.807617188 536.127929688 c 0
 257.0078125 536.127929688 258.251953125 536.086914062 259.548828125 536 c 0
 283.548828125 534 300.548828125 534 319.548828125 519 c 0
EndSplineSet
Validated: 1
EndChar

StartChar: d
Encoding: 100 100 25
Width: 509
Flags: HMW
HStem: 80 42<170.626 247.626> 454 46
VStem: 20.6265 60 281.626 57 332.626 52
LayerCount: 2
Fore
SplineSet
305.625976562 448 m 0xf0
 303.625976562 454 296.625976562 456 290.625976562 454 c 0
 272.625976562 448 263.625976562 441 248.625976562 430 c 0
 218.625976562 408 203.625976562 394 176.625976562 369 c 0
 156.625976562 350 145.625976562 340 128.625976562 318 c 0
 114.625976562 300 103.625976562 290 96.6259765625 268 c 0
 86.150390625 237.4453125 80.2470703125 216.798828125 80.2470703125 187.430664062 c 0
 80.2470703125 183.157226562 80.3720703125 178.69921875 80.6259765625 174 c 0
 81.6259765625 162 91.6259765625 158 101.625976562 152 c 0
 126.625976562 137 141.625976562 130 170.625976562 122 c 0
 176.661132812 120.491210938 181.841796875 119.978515625 186.813476562 119.978515625 c 0
 195.0234375 119.978515625 202.661132812 121.376953125 212.625976562 122 c 0
 213.763671875 122.049804688 214.889648438 122.072265625 216.002929688 122.072265625 c 0
 227.53515625 122.072265625 237.807617188 119.653320312 247.357421875 119.653320312 c 0
 255.530273438 119.653320312 263.174804688 121.424804688 270.625976562 128 c 0
 280.064453125 136.258789062 281.5 146.256835938 281.5 157.379882812 c 0
 281.5 162.23828125 281.225585938 167.3125 281.225585938 172.548828125 c 0
 281.225585938 175.645507812 281.321289062 178.799804688 281.625976562 182 c 0
 284.625976562 213 283.625976562 230 285.625976562 261 c 0
 286.625976562 275 286.625976562 284 288.625976562 298 c 0
 292.625976562 323 299.625976562 337 302.625976562 362 c 0
 303.149414062 366.447265625 303.331054688 370.415039062 303.331054688 374.154296875 c 0
 303.331054688 382.559570312 302.416015625 389.810546875 302.416015625 398.75390625 c 0
 302.416015625 401.041992188 302.475585938 403.442382812 302.625976562 406 c 0
 303.381835938 418.079101562 306.986328125 426.739257812 306.986328125 437.142578125 c 0
 306.986328125 440.51953125 306.606445312 444.079101562 305.625976562 448 c 0xf0
384.625976562 748 m 0xe8
 383.625976562 663 375.625976562 615 368.625976562 530 c 0
 357.625976562 401 342.625976562 329 338.625976562 200 c 0xf0
 338.439453125 196.081054688 338.288085938 192.162109375 338.288085938 188.315429688 c 0
 338.288085938 171.545898438 341.171875 156.133789062 356.625976562 148 c 0
 358.723632812 146.801757812 360.685546875 146.276367188 362.553710938 146.276367188 c 0
 373.157226562 146.276367188 380.723632812 163.198242188 392.625976562 170 c 0
 406.625976562 178 415.625976562 181 428.625976562 190 c 0
 439.625976562 197 441.625976562 206 453.625976562 212 c 0
 461.625976562 216 469.625976562 217 476.625976562 212 c 0
 485.625976562 206 492.625976562 198 488.625976562 188 c 0
 481.625976562 170 469.625976562 164 453.625976562 152 c 0
 431.625976562 135 417.625976562 127 392.625976562 114 c 0
 379.625976562 108 371.625976562 109 357.625976562 104 c 0
 347.625976562 100 339.625976562 99 332.625976562 90 c 0xe8
 329.625976562 86 340.625976562 83 338.625976562 78 c 0xf0
 335.625976562 70 331.625976562 63 323.625976562 63 c 0
 312.625976562 64 309.625976562 75 299.625976562 80 c 0
 286.625976562 86 279.625976562 92 264.625976562 92 c 0
 254.625976562 92 252.625976562 80 242.625976562 80 c 0
 233.651367188 79.5830078125 225.4609375 79.3828125 217.727539062 79.3828125 c 0
 188.407226562 79.3828125 165.651367188 82.251953125 131.625976562 87 c 0
 111.625976562 90 99.6259765625 94 81.6259765625 104 c 0
 62.6259765625 115 51.6259765625 123 38.6259765625 141 c 0
 27.6259765625 155 23.6259765625 166 20.6259765625 184 c 0
 20.19921875 187.6328125 20 190.9921875 20 194.18359375 c 0
 20 205.9296875 22.6953125 215.418945312 26.6259765625 228 c 0
 31.6259765625 244 37.6259765625 253 45.6259765625 267 c 0
 65.6259765625 300 75.6259765625 319 98.6259765625 350 c 0
 110.625976562 366 120.625976562 373 134.625976562 388 c 0
 145.625976562 401 148.625976562 410 161.625976562 422 c 0
 184.625976562 443 198.625976562 453 224.625976562 471 c 0
 240.625976562 482 248.625976562 489 266.625976562 496 c 0
 277.625976562 500 284.625976562 500 296.625976562 500 c 0
 302.625976562 500 309.625976562 490 311.625976562 496 c 0
 312.834960938 499.384765625 313.284179688 502.477539062 313.284179688 505.432617188 c 0
 313.284179688 513.969726562 309.5390625 521.365234375 309.5390625 531.364257812 c 0
 309.5390625 532.22265625 309.56640625 533.100585938 309.625976562 534 c 0
 316.625976562 622 314.625976562 672 332.625976562 759 c 0
 334.625976562 768 347.625976562 765 356.625976562 765 c 0
 363.625976562 765 367.625976562 762 372.625976562 759 c 0
 377.625976562 756 384.625976562 754 384.625976562 748 c 0xe8
EndSplineSet
Validated: 1
EndChar

StartChar: e
Encoding: 101 101 26
Width: 561
Flags: HMW
HStem: 24 52
LayerCount: 2
Fore
SplineSet
245.698242188 448 m 0
 199.698242188 404 181.698242188 372 147.698242188 318 c 0
 142.698242188 310 142.698242188 300 149.698242188 294 c 0
 163.698242188 282 175.698242188 282 194.698242188 280 c 0
 198.368164062 279.6328125 201.735351562 279.467773438 204.91015625 279.467773438 c 0
 219.038085938 279.467773438 229.368164062 282.734375 245.698242188 286 c 0
 277.698242188 293 295.698242188 298 327.698242188 308 c 0
 340.698242188 312 349.698242188 314 360.698242188 322 c 0
 380.698242188 336 395.698242188 343 408.698242188 364 c 0
 422.020507812 385.31640625 429.033203125 401.900390625 429.033203125 424.9609375 c 0
 429.033203125 427.864257812 428.921875 430.869140625 428.698242188 434 c 0
 427.698242188 454 415.698242188 463 401.698242188 477 c 0
 391.698242188 487 383.698242188 492 368.698242188 494 c 0
 364.698242188 494.5 361.073242188 494.75 357.651367188 494.75 c 0
 347.385742188 494.75 338.948242188 492.5 327.698242188 488 c 0
 294.698242188 476 271.698242188 472 245.698242188 448 c 0
497.698242188 176 m 0
 503.698242188 181 508.698242188 185 515.698242188 183 c 0
 524.698242188 180 528.698242188 174 533.698242188 166 c 0
 538.698242188 158 543.698242188 152 539.698242188 144 c 0
 527.698242188 121 516.698242188 108 494.698242188 93 c 0
 456.698242188 68 432.698242188 59 389.698242188 44 c 0
 357.698242188 33 339.698242188 30 305.698242188 27 c 0
 276.323242188 23.875 255.151367188 22.3125 231.928710938 22.3125 c 0
 217.995117188 22.3125 203.323242188 22.875 185.698242188 24 c 0
 158.698242188 26 143.698242188 30 117.698242188 38 c 0
 96.6982421875 44 82.6982421875 46 65.6982421875 60 c 0
 50.6982421875 72 47.6982421875 85 38.6982421875 102 c 0
 30.6982421875 117 25.6982421875 125 23.6982421875 142 c 0
 22.0078125 156.649414062 20 168.124023438 20 180.000976562 c 0
 20 189.204101562 21.205078125 198.649414062 24.6982421875 210 c 0
 40.6982421875 263 50.6982421875 294 81.6982421875 340 c 0
 116.698242188 392 145.698242188 416 191.698242188 459 c 0
 214.698242188 481 229.698242188 492 257.698242188 508 c 0
 288.698242188 525 307.698242188 536 342.698242188 542 c 0
 349.98046875 543.266601562 356.560546875 543.931640625 362.8203125 543.931640625 c 0
 376.331054688 543.931640625 388.346679688 540.833984375 402.698242188 534 c 0
 443.698242188 514 472.698242188 504 497.698242188 466 c 0
 504.897460938 455.413085938 507.43359375 445.004882812 507.43359375 434.3203125 c 0
 507.43359375 419.775390625 502.733398438 404.71875 498.698242188 388 c 0
 492.698242188 362 483.698242188 348 465.698242188 327 c 0
 448.698242188 307 435.698242188 298 411.698242188 288 c 0
 351.698242188 262 315.698242188 248 251.698242188 234 c 0
 237.334960938 230.953125 225.624023438 229.80078125 214.173828125 229.80078125 c 0
 199.317382812 229.80078125 184.899414062 231.741210938 165.698242188 234 c 0
 147.463867188 235.657226562 135.413085938 252.427734375 121.00390625 252.427734375 c 0
 118.02734375 252.427734375 114.951171875 251.711914062 111.698242188 250 c 0
 91.6982421875 240 95.6982421875 218 92.6982421875 196 c 0
 91.412109375 184.428710938 90.494140625 174.694335938 90.494140625 165.299804688 c 0
 90.494140625 152.775390625 92.126953125 140.857421875 96.6982421875 126 c 0
 100.698242188 112 107.698242188 106 120.698242188 99 c 0
 146.698242188 85 162.698242188 79 191.698242188 76 c 0
 203.001953125 74.7080078125 212.741210938 74.146484375 221.926757812 74.146484375 c 0
 241.181640625 74.146484375 258.001953125 76.615234375 281.698242188 80 c 0
 322.698242188 85 345.698242188 90 384.698242188 102 c 0
 409.698242188 110 423.698242188 116 444.698242188 130 c 0
 467.698242188 145 475.698242188 160 497.698242188 176 c 0
EndSplineSet
Validated: 1
EndChar

StartChar: f
Encoding: 102 102 27
Width: 501
Flags: HMW
HStem: 262 49
VStem: 92.8295 68
LayerCount: 2
Fore
SplineSet
48.828125 225 m 0
 40.828125 222 33.828125 226 27.828125 232 c 0
 21.828125 238 23.828125 244 22.828125 252 c 0
 20.828125 262 18.828125 267 20.828125 277 c 0
 21.828125 282 24.828125 285 28.828125 288 c 0
 35.828125 293 41.828125 294 49.828125 296 c 0
 60.828125 299 67.828125 300 78.828125 302 c 0
 91.828125 304 99.828125 304 112.828125 308 c 0
 114.828125 309 114.828125 311 114.828125 313 c 0
 117.828125 334 116.974609375 346.965820312 121.828125 368 c 0
 127.828125 394 134.409179688 403.909179688 140 430 c 0
 140.75 433.5 141 437.078125 141 440 c 0
 141 445.84375 143.828125 452.421875 143.828125 458.015625 c 0
 143.828125 460.8125 144.078125 463.75 144.828125 467 c 0
 148.828125 486 154.228515625 494.849609375 160.828125 513 c 0
 164.828125 524 166 529 169 540 c 0
 172 554 173.35546875 563.109375 176.828125 577 c 0
 178.828125 585 179.2265625 590.330078125 183.828125 598 c 0
 189.828125 608 194 614 198 625 c 0
 203 638 203.536132812 645.107421875 208.828125 659 c 0
 216.828125 680 222 691 231 712 c 4
 235 721 236.94921875 726.947265625 240.828125 736 c 0
 243.828125 743 245 747 248 754 c 0
 252 764 251.28125 770.29296875 256.828125 780 c 0
 260.828125 787 265.828125 790 273.828125 791 c 0
 281.828125 792 285.828125 789 290.828125 784 c 0
 301.828125 775 306.828125 769 312.828125 757 c 0
 321.828125 739 321.828125 726 330.828125 708 c 0
 343.828125 683 352.828125 670 369.828125 647 c 0
 376.828125 637 381.828125 632 391.828125 627 c 0
 399.828125 623 406.828125 622 415.828125 625 c 0
 428.828125 630 431.828125 639 442.828125 646 c 0
 451.828125 652 454.828125 657 464.828125 658 c 0
 469.828125 658 471.828125 653 472.828125 648 c 0
 473.828125 641 471.828125 636 468.828125 629 c 0
 464.828125 620 461.828125 614 453.828125 609 c 0
 442.828125 602 434.828125 602 421.828125 598 c 0
 410.828125 595 405.828125 590 394.828125 590 c 0
 381.828125 590 373.828125 592 361.828125 598 c 0
 350.828125 603 346.828125 610 338.828125 618 c 0
 330.828125 626 325.828125 630 319.828125 640 c 0
 312.828125 653 311.828125 661 305.828125 675 c 0
 300.828125 686 300.828125 693 293.828125 703 c 0
 291.828125 705 288.828125 704 286.828125 702 c 0
 280.828125 694 280.708007812 689.052734375 276.828125 680 c 0
 267.828125 659 262 645 251 625 c 0
 248 619 243.005859375 618.9375 240.828125 613 c 0
 229.828125 583 226.375976562 564.098632812 219.828125 533 c 0
 215.828125 514 210 504 204 486 c 0
 201 479 200.502929688 476.130859375 197.828125 469 c 0
 188.828125 445 187.828125 431 181.828125 406 c 0
 172.828125 373 166.828125 354 158.828125 321 c 0
 157.828125 316 154.828125 309 159.828125 309 c 0
 172.578125 308 183.953125 307.625 194.640625 307.625 c 0
 226.703125 307.625 252.578125 311 290.828125 311 c 0
 324.059570312 311 350.686523438 311.638671875 376.70703125 311.638671875 c 0
 407.065429688 311.638671875 436.59765625 310.76953125 474.828125 307 c 0
 481.828125 306 481.828125 298 481.828125 292 c 0
 481.828125 287 481.828125 279 475.828125 278 c 0
 430.828125 266 403.828125 263 356.828125 260 c 0
 349.581054688 259.456054688 342.924804688 259.241210938 336.64453125 259.241210938 c 0
 312.720703125 259.241210938 294.265625 262.365234375 269.439453125 262.365234375 c 0
 264.815429688 262.365234375 259.970703125 262.256835938 254.828125 262 c 0
 251.081054688 261.826171875 247.341796875 261.75 243.620117188 261.75 c 0
 219.33984375 261.75 195.833984375 264.966796875 176.041992188 264.966796875 c 0
 164.057617188 264.966796875 153.435546875 263.787109375 144.828125 260 c 0
 142.38671875 258.954101562 141.52734375 254.015625 141.52734375 247.008789062 c 0
 141.52734375 233.924804688 144.526367188 213.629882812 145.828125 198 c 0
 146.828125 190 153.828125 187 158.828125 179 c 0
 161.828125 174 160.828125 169 165.828125 166 c 0
 170.828125 163 175.828125 166 181.828125 163 c 0
 187.828125 160 190.828125 156 195.828125 150 c 0
 201.828125 142 205.828125 137 209.828125 127 c 0
 211.828125 123 212.828125 119 209.828125 116 c 0
 204.828125 112 199.828125 112 194.828125 115 c 0
 183.828125 121 182.828125 130 172.828125 137 c 0
 168.828125 140 161.828125 143 160.828125 138 c 0
 158.805664062 127.077148438 158.091796875 118.1171875 158.091796875 109.533203125 c 0
 158.091796875 96.8984375 159.637695312 85.0771484375 160.828125 69 c 0
 160.828125 64 167.828125 64 167.828125 60 c 0
 168.828125 50.5 169.828125 43 169.828125 35.625 c 0
 169.828125 28.25 168.828125 21 165.828125 12 c 0
 162.828125 5 154.828125 7 147.828125 5 c 0
 142.828125 4 137.828125 2 133.828125 5 c 0
 120.828125 14 111.828125 20 105.828125 34 c 0
 94.828125 59 93.828125 75 92.828125 102 c 0
 92.72265625 105.6953125 92.6728515625 109.234375 92.6728515625 112.650390625 c 0
 92.6728515625 141.58984375 96.2509765625 161.6953125 99.828125 193 c 0
 102.828125 217 101.828125 234 106.828125 255 c 0
 107.090820312 255.918945312 107.215820312 256.713867188 107.215820312 257.393554688 c 0
 107.215820312 259.798828125 105.654296875 260.76953125 103.12109375 260.76953125 c 0
 95.4697265625 260.76953125 78.9541015625 251.9140625 69.828125 247 c 0
 58.828125 241 59.828125 229 48.828125 225 c 0
EndSplineSet
Validated: 1
EndChar

StartChar: g
Encoding: 103 103 28
Width: 425
Flags: HMW
HStem: -190 60<27.2846 92.785>
LayerCount: 2
Fore
SplineSet
105.784179688 298 m 0
 125.784179688 359 166.784179688 378 210.784179688 424 c 0
 232.784179688 447 247.784179688 459 274.784179688 476 c 0
 292.784179688 487 305.784179688 491 326.784179688 495 c 0
 331.469726562 495.78125 335.848632812 496.409179688 339.983398438 496.409179688 c 0
 346.440429688 496.409179688 352.297851562 494.876953125 357.784179688 490 c 0
 377.784179688 472 385.784179688 457 396.784179688 433 c 0
 402.35546875 421.0625 405.392578125 411.658203125 405.392578125 400.250976562 c 0
 405.392578125 397.325195312 405.193359375 394.266601562 404.784179688 391 c 0
 402.784179688 373 394.784179688 365 388.784179688 348 c 0
 379.784179688 322 373.784179688 308 364.784179688 282 c 0
 355.784179688 255 351.784179688 240 342.784179688 213 c 0
 334.784179688 190 329.784179688 177 320.784179688 154 c 0
 305.784179688 118 295.784179688 98 280.784179688 62 c 0
 264.784179688 24 255.784179688 2 240.784179688 -36 c 0
 230.784179688 -62 232.784179688 -80 214.784179688 -102 c 0
 185.784179688 -138 166.784179688 -158 124.784179688 -178 c 0
 102.784179688 -188.666992188 84.7841796875 -190.888671875 64.265625 -190.888671875 c 0
 54.0068359375 -190.888671875 43.1181640625 -190.333007812 30.7841796875 -190 c 0
 23.7841796875 -190 21.7841796875 -181 20.7841796875 -174 c 0
 20.2490234375 -170.516601562 20 -167.392578125 20 -164.434570312 c 0
 20 -156.353515625 21.8564453125 -149.516601562 24.7841796875 -140 c 0
 26.7841796875 -135 28.7841796875 -131 34.7841796875 -130 c 0
 38.0947265625 -129.548828125 41.224609375 -129.369140625 44.2265625 -129.369140625 c 0
 55.958984375 -129.369140625 65.7578125 -132.112304688 76.8759765625 -132.112304688 c 0
 81.822265625 -132.112304688 87.029296875 -131.569335938 92.7841796875 -130 c 0
 104.784179688 -127 104.784179688 -116 114.784179688 -108 c 0
 131.784179688 -95 145.784179688 -94 160.784179688 -78 c 0
 169.784179688 -68 165.784179688 -58 170.784179688 -46 c 0
 176.784179688 -33 181.784179688 -26 188.784179688 -14 c 0
 204.784179688 16 214.784179688 31 228.784179688 62 c 0
 238.784179688 84 242.784179688 97 250.784179688 120 c 0
 259.784179688 146 263.784179688 160 273.784179688 186 c 0
 281.784179688 206 287.784179688 217 294.784179688 237 c 0
 299.784179688 250 300.784179688 257 304.784179688 270 c 0
 308.784179688 282 309.784179688 288 313.784179688 300 c 0
 315.784179688 307 319.784179688 312 319.784179688 319 c 0
 319.784179688 322 317.784179688 325 314.784179688 326 c 0
 311.784179688 327 308.784179688 326 306.784179688 324 c 0
 300.784179688 318 300.784179688 312 294.784179688 306 c 0
 286.784179688 297 279.784179688 294 270.784179688 286 c 0
 263.784179688 280 259.784179688 275 252.784179688 269 c 0
 236.784179688 255 227.784179688 246 210.784179688 234 c 0
 199.784179688 226 192.784179688 223 180.784179688 218 c 0
 171.784179688 214 165.784179688 212 156.784179688 210 c 0
 149.784179688 209 145.784179688 208 138.784179688 210 c 0
 131.784179688 212 127.784179688 214 122.784179688 218 c 0
 116.784179688 223 114.784179688 226 110.784179688 233 c 0
 106.784179688 239 103.784179688 242 102.784179688 249 c 0
 100.784179688 256 102.784179688 261 102.784179688 268 c 0
 103.784179688 280 101.784179688 286 105.784179688 298 c 0
324.784179688 446 m 0
 266.784179688 402 235.784179688 375 182.784179688 326 c 0
 172.784179688 317 172.784179688 308 164.784179688 298 c 0
 159.784179688 292 153.784179688 290 150.784179688 283 c 0
 147.784179688 276 146.784179688 270 149.784179688 264 c 0
 150.784179688 261 155.784179688 262 158.784179688 264 c 0
 173.784179688 276 193.784179688 278 208.784179688 290 c 0
 241.784179688 316 270.784179688 351 296.784179688 372 c 0
 318.784179688 390 326.784179688 396 353.784179688 420 c 0
 357.784179688 424 356.784179688 430 354.784179688 434 c 0
 350.784179688 440 346.784179688 442 339.784179688 445 c 0
 334.784179688 447 329.784179688 450 324.784179688 446 c 0
EndSplineSet
Validated: 1
EndChar

StartChar: h
Encoding: 104 104 29
Width: 455
Flags: HMW
VStem: 269.48 42
LayerCount: 2
Fore
SplineSet
147.48046875 333 m 2
 134.48046875 294 l 2
 129.48046875 278 125.48046875 268 120.48046875 252 c 0
 114.48046875 234 110.48046875 224 104.48046875 206 c 0
 98.48046875 189 96.48046875 179 91.48046875 161 c 0
 88.48046875 150 85.48046875 144 82.48046875 133 c 0
 80.48046875 125 77.48046875 121 76.48046875 113 c 0
 76.48046875 109 76.48046875 106 79.48046875 104 c 0
 83.48046875 101 88.48046875 98 91.48046875 102 c 0
 113.48046875 127 120.48046875 145 138.48046875 172 c 0
 146.48046875 184 149.48046875 191 157.48046875 202 c 0
 176.48046875 230 187.48046875 246 207.48046875 272 c 0
 225.48046875 296 234.48046875 311 255.48046875 333 c 0
 300.48046875 380 326.48046875 406 375.48046875 449 c 0
 382.48046875 455 387.48046875 459 397.48046875 460 c 0
 405.48046875 461 410.48046875 457 417.48046875 454 c 0
 423.48046875 451 429.48046875 451 432.48046875 444 c 0
 436.48046875 434 435.48046875 427 434.48046875 416 c 0
 433.48046875 402 431.48046875 394 427.48046875 380 c 0
 420.48046875 358 414.48046875 346 406.48046875 324 c 0
 399.48046875 303 394.48046875 291 388.48046875 270 c 0
 383.48046875 251 383.48046875 239 377.48046875 220 c 0
 370.844726562 199.146484375 354.326171875 189.07421875 354.326171875 167.641601562 c 0
 354.326171875 166.462890625 354.375976562 165.250976562 354.48046875 164 c 0
 355.48046875 153 371.48046875 160 382.48046875 156 c 0
 386.48046875 155 391.48046875 154 390.48046875 150 c 0
 388.48046875 141 382.48046875 137 377.48046875 129 c 0
 352.48046875 93 342.48046875 68 311.48046875 38 c 0
 304.48046875 31 294.48046875 36 285.48046875 40 c 0
 277.48046875 44 269.48046875 49 269.48046875 58 c 0
 270.48046875 77 280.48046875 86 287.48046875 104 c 0
 293.48046875 119 295.48046875 128 300.48046875 144 c 0
 310.48046875 172 317.48046875 187 325.48046875 216 c 0
 334.48046875 247 334.48046875 265 343.48046875 296 c 0
 349.48046875 316 354.48046875 326 362.48046875 346 c 0
 365.48046875 354 370.48046875 358 371.48046875 367 c 0
 372.48046875 373 371.48046875 383 365.48046875 382 c 0
 354.48046875 380 353.48046875 370 346.48046875 362 c 0
 281.48046875 283 243.48046875 240 182.48046875 158 c 0
 140.48046875 101 126.48046875 60 81.48046875 6 c 0
 74.48046875 -3 63.48046875 2 52.48046875 3 c 0
 42.48046875 4 32.48046875 1 26.48046875 10 c 0
 21.080078125 17.2001953125 20 24.0400390625 20 31.599609375 c 0
 20 36.6396484375 20.48046875 42 20.48046875 48 c 0
 21.48046875 69 24.48046875 80 29.48046875 101 c 0
 39.48046875 142 45.48046875 164 57.48046875 204 c 0
 67.48046875 237 74.48046875 255 85.48046875 288 c 0
 97.48046875 324 102.48046875 344 114.48046875 380 c 0
 130.48046875 428 141.48046875 454 158.48046875 502 c 0
 168.48046875 529 174.48046875 543 183.48046875 570 c 0
 199.48046875 621 206.48046875 650 222.48046875 701 c 0
 226.48046875 713 230.48046875 720 235.48046875 732 c 0
 242.48046875 750 243.48046875 761 252.48046875 778 c 0
 256.48046875 785 259.48046875 791 266.48046875 794 c 0
 271.48046875 796 276.48046875 796 280.48046875 792 c 0
 288.48046875 784 290.48046875 778 293.48046875 767 c 0
 296.146484375 756.333007812 298.369140625 748.77734375 298.369140625 740.185546875 c 0
 298.369140625 735.888671875 297.813476562 731.333007812 296.48046875 726 c 0
 291.48046875 705 279.48046875 698 270.48046875 678 c 0
 263.48046875 661 262.48046875 651 256.48046875 634 c 0
 252.48046875 624 250.48046875 619 245.48046875 609 c 0
 240.48046875 598 234.48046875 592 231.48046875 580 c 0
 226.48046875 564 230.48046875 553 225.48046875 537 c 0
 222.48046875 527 213.48046875 524 209.48046875 514 c 0
 204.48046875 502 205.48046875 494 200.48046875 481 c 0
 196.48046875 469 191.48046875 462 186.48046875 450 c 0
 182.48046875 439 179.48046875 433 176.48046875 422 c 0
 172.48046875 409 172.48046875 401 168.48046875 387 c 0
 161.48046875 366 155.48046875 354 147.48046875 333 c 2
EndSplineSet
Validated: 1
EndChar

StartChar: i
Encoding: 105 105 30
Width: 289
Flags: HMW
HStem: 593 54
VStem: 131.785 67
LayerCount: 2
Fore
SplineSet
161.788085938 431 m 0
 178.788085938 424 196.788085938 419 198.788085938 401 c 0
 198.874023438 400.180664062 198.916015625 399.388671875 198.916015625 398.619140625 c 0
 198.916015625 381.546875 183.469726562 372.783203125 174 357 c 0
 168 347 165.548828125 340.153320312 162 329 c 4
 155 307 152.067382812 294.877929688 142.788085938 274 c 0
 134.788085938 256 133 250 126 231 c 0
 119 212 115.909179688 197.948242188 107.788085938 179 c 0
 101.788085938 165 95.603515625 154.206054688 89 141 c 0
 82 127 81.5166015625 106.322265625 73 93 c 0
 49.9931640625 57.0126953125 64.296875 71.00390625 51.7880859375 45 c 0
 49.849609375 40.9697265625 44.7880859375 39 40.7880859375 40 c 0
 33.7880859375 41 26.7880859375 42 24.7880859375 49 c 0
 21.484375 58.9091796875 20 67 20 75.44140625 c 0
 20 82.333984375 20.990234375 89.4599609375 22.7880859375 98 c 0
 27.7880859375 122 38.7880859375 132 47.7880859375 156 c 0
 55.7880859375 179 57.7880859375 193 65.7880859375 217 c 0
 73.7880859375 241 76.9736328125 254.916992188 86.7880859375 277 c 0
 90.7880859375 286 91 291 94 301 c 0
 101 324 102.797851562 335.28125 109.788085938 358 c 0
 113.788085938 371 117 377 122 389 c 0
 126 399 127.911132812 403.306640625 131.788085938 413 c 0
 133.788085938 418 133.788085938 422 138.788085938 425 c 0
 146.788085938 430 152.788085938 434 161.788085938 431 c 0
224.788085938 647 m 0
 241.788085938 642 252.788085938 639 263.788085938 625 c 0
 270.788085938 616 271.788085938 604 264.788085938 595 c 0
 258.788085938 587 248.788085938 590 238.788085938 593 c 0
 224.788085938 598 217.788085938 605 206.788085938 615 c 0
 202.788085938 619 200.788085938 624 201.788085938 629 c 0
 202.788085938 635 205.788085938 637 210.788085938 641 c 0
 215.788085938 645 218.788085938 649 224.788085938 647 c 0
EndSplineSet
Validated: 1
EndChar

StartChar: j
Encoding: 106 106 31
Width: 354
Flags: HMW
HStem: 55732.6 7308.22G<-258.313 -179.644> 190204 20828.4
VStem: 970.125 580.936 1066.95 556.73 1200.08 229.954
LayerCount: 2
Fore
SplineSet
282 615 m 0xc8
 278 621 270 616 268 622 c 0
 264 629 264 636 268 642 c 0
 274 653 280 660 292 664 c 0
 299 667 307 669 313 662 c 0xc8
 323 649 326 639 326 623 c 0xe0
 326 616 316 621 313 615 c 0
 310 609 314 603 313 596 c 0
 312 589 312 582 305 579 c 0
 299 576 293 580 289 586 c 0
 283 595 288 605 282 615 c 0xc8
268 434 m 0
 273.506835938 442.94921875 281.383789062 449.055664062 289.999023438 449.055664062 c 0
 293.8984375 449.055664062 297.94921875 447.8046875 302 445 c 0
 319 434 322 415 326 394 c 0xe0
 328 381 328 369 328 358 c 0
 328 340 327 324 327 304 c 0
 327 300 327 297 327 293 c 0
 328 261 334 240 334 212 c 0
 334 206 334 200 333 193 c 0
 329 146 321 122 309 76 c 0
 302 45 300 28 288 1 c 0
 268 -40 254 -64 226 -100 c 0
 206 -126 192 -139 166 -157 c 0
 143 -173 128 -180 101 -184 c 0
 93 -186 86 -186 79 -186 c 0
 67 -186 57 -184 43 -180 c 0
 33 -177 28 -170 24 -158 c 0
 22 -150 20 -143 20 -136 c 0
 20 -131 21 -125 23 -119 c 0
 42 -64 60 -36 85 14 c 0
 95 34 101 47 115 64 c 0
 123 72 130 76 142 76 c 0
 147 76 147 69 144 64 c 0
 135 38 125 27 115 2 c 0
 104 -26 99 -42 89 -71 c 0
 85 -81 80 -84 79 -96 c 0
 78 -104 77 -110 77 -116 c 0
 77 -123 78 -128 84 -134 c 0
 90 -142 96 -129 103 -123 c 0
 153 -80 187 -63 226 -8 c 0
 251 27 254 58 264 101 c 0
 274 152 273 183 275 235 c 0xd0
 276 258 276 275 276 292 c 0
 276 309 276 326 276 349 c 0
 276 358 279 363 276 371 c 0
 274 380 266 381 265 390 c 0xe0
 264 399 262 407 262 414 c 0
 262 421 263 428 268 434 c 0
EndSplineSet
Validated: 1
EndChar

StartChar: k
Encoding: 107 107 32
Width: 534
Flags: W
VStem: 20 48.6387<15.4204 130.175>
LayerCount: 2
Fore
SplineSet
307.638671875 799 m 0
 314.638671875 795 319.638671875 788 318.638671875 780 c 0
 315.638671875 760 306.638671875 750 298.638671875 731 c 0
 262.638671875 643 238.638671875 594 207.638671875 505 c 0
 205.638671875 500 210.638671875 494 215.638671875 495 c 0
 232.638671875 500 240.638671875 506 253.638671875 518 c 0
 341.638671875 601 382.638671875 658 472.638671875 737 c 0
 479.638671875 743 488.638671875 736 496.638671875 731 c 0
 504.638671875 726 518.638671875 721 512.638671875 714 c 0
 449.638671875 637 402.638671875 603 334.638671875 531 c 0
 329.638671875 525 323.638671875 522 324.638671875 514 c 0
 327.638671875 494 339.638671875 485 344.638671875 465 c 0
 376.638671875 325 397.638671875 245 418.638671875 103 c 0
 420.638671875 91 412.638671875 82 401.638671875 77 c 0
 392.638671875 73 382.638671875 78 378.638671875 87 c 0
 351.638671875 146 336.638671875 181 324.638671875 245 c 0
 309.638671875 327 318.638671875 376 310.638671875 459 c 0
 309.638671875 468 309.638671875 487 302.638671875 481 c 0
 252.638671875 441 235.638671875 406 188.638671875 363 c 0
 182.638671875 358 171.638671875 367 168.638671875 359 c 0
 125.638671875 256 111.638671875 194 74.638671875 88 c 0
 72.638671875 83 68.638671875 80 68.638671875 75 c 0
 69.638671875 61 75.638671875 54 77.638671875 41 c 0
 78.638671875 31 81.638671875 24 76.638671875 15 c 0
 70.638671875 6 63.638671875 2 52.638671875 0 c 0
 46.638671875 -1 41.638671875 2 38.638671875 7 c 0
 29.638671875 20 25.638671875 28 22.638671875 43 c 0
 21.0322265625 49.95703125 20 55.482421875 20 60.955078125 c 0
 20 65.708984375 20.779296875 70.421875 22.638671875 76 c 0
 94.638671875 315 138.638671875 448 216.638671875 686 c 0
 224.638671875 712 230.638671875 726 242.638671875 750 c 0
 248.638671875 764 251.638671875 772 262.638671875 783 c 0
 270.638671875 791 276.638671875 791 287.638671875 795 c 0
 294.638671875 798 300.638671875 802 307.638671875 799 c 0
EndSplineSet
Validated: 1
EndChar

StartChar: AE
Encoding: 198 198 33
Width: 699
Flags: HMW
HStem: 392 52 756 30
VStem: 293.194 39 308.194 75<367.5 473.5>
LayerCount: 2
Fore
SplineSet
413.193359375 444 m 0xc0
 423.193359375 448 429.193359375 437 439.193359375 437 c 0
 453.193359375 437 461.193359375 440 473.193359375 446 c 0
 502.193359375 461 517.193359375 472 544.193359375 491 c 0
 563.193359375 504 575.193359375 512 592.193359375 528 c 0
 599.193359375 535 598.193359375 544 607.193359375 549 c 0
 619.028320312 555.762695312 628.00390625 558.237304688 640.162109375 558.237304688 c 0
 642.38671875 558.237304688 644.71875 558.154296875 647.193359375 558 c 0
 656.193359375 558 666.193359375 555 667.193359375 546 c 0
 667.624023438 542.555664062 667.869140625 539.250976562 667.869140625 536.075195312 c 0
 667.869140625 524.49609375 664.610351562 514.631835938 655.193359375 506 c 0
 623.193359375 477 598.193359375 469 560.193359375 449 c 0
 513.193359375 424 489.193359375 402 437.193359375 392 c 0
 433.52734375 391.333007812 429.888671875 391 426.328125 391 c 0
 408.52734375 391 392.693359375 399.333007812 385.193359375 416 c 0
 384.443359375 417.75 384.099609375 419.40625 384.099609375 420.9765625 c 0
 384.099609375 431.96875 400.943359375 438.75 413.193359375 444 c 0xc0
377.193359375 636 m 0
 375.193359375 643 385.193359375 644 392.193359375 648 c 0
 397.193359375 651 403.193359375 649 407.193359375 654 c 0
 414.193359375 662 411.193359375 671 419.193359375 678 c 0
 452.193359375 707 474.193359375 720 511.193359375 743 c 0
 546.193359375 765 565.193359375 782 604.193359375 794 c 0
 609.295898438 795.594726562 614.091796875 796.375 618.713867188 796.375 c 0
 628.5859375 796.375 637.658203125 792.811523438 647.193359375 786 c 0
 655.193359375 781 652.193359375 770 649.193359375 762 c 0
 647.193359375 756 640.193359375 757 635.193359375 756 c 0
 624.193359375 754 617.193359375 758 607.193359375 753 c 0
 575.193359375 736 560.193359375 720 530.193359375 699 c 0
 511.193359375 686 499.193359375 682 482.193359375 666 c 0
 459.193359375 644 452.193359375 626 428.193359375 605 c 0
 422.193359375 600 414.193359375 599 407.193359375 603 c 0
 392.193359375 612 383.193359375 619 377.193359375 636 c 0
281.193359375 579 m 0
 260.193359375 526 261.193359375 492 244.193359375 438 c 0
 228.193359375 389 210.193359375 365 197.193359375 315 c 0
 196.193359375 310 207.193359375 313 211.193359375 315 c 0
 244.193359375 331 261.193359375 344 293.193359375 362 c 0xe0
 299.193359375 365 308.193359375 364 308.193359375 371 c 0xd0
 308.29296875 378.426757812 308.342773438 385.5390625 308.342773438 392.400390625 c 0
 308.342773438 454.829101562 304.204101562 496.426757812 295.193359375 564 c 0
 294.193359375 572 284.193359375 586 281.193359375 579 c 0
265.193359375 687 m 0
 268.193359375 693 276.193359375 690 283.193359375 689 c 0
 291.193359375 688 297.193359375 688 304.193359375 684 c 0
 310.193359375 681 313.193359375 674 318.193359375 675 c 0
 325.193359375 676 330.193359375 676 339.193359375 675 c 0
 351.193359375 674 355.193359375 669 359.193359375 660 c 0
 372.193359375 627 373.193359375 605 377.193359375 570 c 0
 382.193359375 523 383.193359375 497 383.193359375 450 c 0xd0
 383.193359375 404.545898438 379.061523438 376.446289062 379.061523438 334.147460938 c 0
 379.061523438 329.916992188 379.102539062 325.545898438 379.193359375 321 c 0
 380.193359375 281 384.193359375 259 386.193359375 219 c 0
 386.193359375 210 381.193359375 205 386.193359375 197 c 0
 391.193359375 189 400.193359375 181 407.193359375 186 c 0
 499.193359375 251 542.193359375 297 629.193359375 369 c 0
 637.193359375 376 640.193359375 384 650.193359375 387 c 0
 659.193359375 389 668.193359375 388 673.193359375 380 c 0
 676.552734375 373.841796875 679.28515625 367.057617188 679.28515625 360.698242188 c 0
 679.28515625 355.698242188 677.595703125 350.961914062 673.193359375 347 c 0
 582.193359375 263 526.193359375 221 425.193359375 149 c 0
 418.48828125 144.123046875 412.154296875 142.590820312 405.28515625 142.590820312 c 0
 400.88671875 142.590820312 396.268554688 143.21875 391.193359375 144 c 0
 378.193359375 146 369.193359375 150 359.193359375 158 c 0
 350.193359375 165 348.193359375 194 343.193359375 183 c 0
 329.193359375 152 338.193359375 130 332.193359375 96 c 0
 330.193359375 87 328.193359375 82 322.193359375 74 c 0
 318.193359375 69 314.193359375 65 307.193359375 66 c 0
 300.193359375 67 293.193359375 71 293.193359375 78 c 0
 293.049804688 84.482421875 292.983398438 90.7626953125 292.983398438 96.869140625 c 0
 292.983398438 166.70703125 301.645507812 213.896484375 301.645507812 282.026367188 c 0
 301.645507812 290.65234375 301.506835938 299.614257812 301.193359375 309 c 0
 301.193359375 316 292.193359375 321 286.193359375 318 c 0
 242.193359375 296 216.193359375 284 181.193359375 249 c 0
 160.193359375 228 161.193359375 206 148.193359375 179 c 0
 134.193359375 151 126.193359375 135 110.193359375 108 c 0
 96.193359375 84 89.193359375 69 71.193359375 48 c 0
 65.193359375 41 59.193359375 40 49.193359375 39 c 0
 42.193359375 38 37.193359375 38 31.193359375 42 c 0
 24.193359375 46 21.193359375 51 20.193359375 59 c 0
 20.0625 61.3662109375 20 63.578125 20 65.673828125 c 0
 20 79.5224609375 22.7197265625 88.3662109375 26.193359375 104 c 0
 38.193359375 150 44.193359375 176 61.193359375 221 c 0
 81.193359375 275 97.193359375 303 119.193359375 356 c 0
 130.193359375 382 133.193359375 397 145.193359375 422 c 0
 159.193359375 453 171.193359375 469 185.193359375 501 c 0
 218.193359375 573 228.193359375 617 265.193359375 687 c 0
EndSplineSet
Validated: 1
EndChar

StartChar: germandbls
Encoding: 223 223 34
Width: 480
Flags: HMW
HStem: 346 34
VStem: 21.4565 55 97.4565 44 402.456 46
LayerCount: 2
Fore
SplineSet
152.456054688 714 m 4
 233.456054688 714 275.456054688 746 355.456054688 756 c 4
 358.943359375 756.55078125 362.16015625 756.797851562 365.20703125 756.797851562 c 4
 378.762695312 756.797851562 388.943359375 751.899414062 404.456054688 747 c 4
 413.456054688 744 419.456054688 743 426.456054688 735 c 4
 437.456054688 722 444.456054688 713 448.456054688 696 c 4
 449.172851562 692.418945312 449.490234375 689.180664062 449.490234375 686.133789062 c 4
 449.490234375 676.41796875 446.262695312 668.658203125 442.456054688 658 c 4
 436.456054688 642 430.456054688 633 421.456054688 619 c 4
 412.456054688 605 407.456054688 598 396.456054688 585 c 4
 363.456054688 546 343.456054688 527 310.456054688 488 c 4
 287.456054688 461 276.456054688 444 253.456054688 418 c 4
 244.456054688 408 236.456054688 404 229.456054688 394 c 4
 226.456054688 390 224.456054688 385 228.456054688 382 c 4
 236.456054688 377 243.456054688 381 253.456054688 380 c 4
 285.456054688 378 305.456054688 381 336.456054688 374 c 4
 363.456054688 368 379.456054688 361 402.456054688 345 c 4
 422.456054688 331 432.456054688 319 444.456054688 298 c 4
 454.456054688 279 455.456054688 265 457.456054688 244 c 4
 458.606445312 231.921875 460.418945312 222.158203125 460.418945312 212.23828125 c 4
 460.418945312 204.91015625 459.430664062 197.49609375 456.456054688 189 c 4
 443.456054688 151 430.456054688 132 406.456054688 100 c 4
 394.456054688 84 383.456054688 79 366.456054688 68 c 4
 338.456054688 50 322.456054688 37 291.456054688 26 c 4
 282.86328125 23.1357421875 275.63671875 21.8662109375 268.47265625 21.8662109375 c 4
 260.630859375 21.8662109375 252.86328125 23.38671875 243.456054688 26 c 4
 208.456054688 36 189.456054688 45 157.456054688 64 c 4
 147.017578125 70.642578125 138.380859375 77.28515625 138.380859375 88.201171875 c 4
 138.380859375 88.7880859375 138.405273438 89.3876953125 138.456054688 90 c 4
 139.456054688 100 150.456054688 105 160.456054688 104 c 4
 178.456054688 102 184.456054688 89 201.456054688 82 c 4
 216.276367188 75.5166015625 225.090820312 69.890625 240.614257812 69.890625 c 4
 241.849609375 69.890625 243.12890625 69.92578125 244.456054688 70 c 4
 267.456054688 71 279.456054688 78 300.456054688 88 c 4
 318.456054688 96 328.456054688 103 343.456054688 116 c 4
 355.456054688 126 359.456054688 135 369.456054688 147 c 4
 385.456054688 167 397.456054688 175 408.456054688 198 c 4
 414.856445312 211.599609375 415.49609375 222 415.49609375 235.34375 c 4
 415.49609375 238.6796875 415.456054688 242.200195312 415.456054688 246 c 4
 415.456054688 248.666992188 415.484375 251.194335938 415.484375 253.616210938 c 4
 415.484375 265.72265625 414.790039062 275.166992188 406.456054688 286 c 4
 388.456054688 310 376.456054688 325 349.456054688 338 c 4
 334.314453125 344.98828125 321.88671875 346.2109375 308.616210938 346.2109375 c 4
 301.471679688 346.2109375 294.083984375 345.856445312 285.896484375 345.856445312 c 4
 283.177734375 345.856445312 280.37109375 345.895507812 277.456054688 346 c 4
 270.501953125 346.366210938 264.752929688 346.59765625 259.327148438 346.59765625 c 4
 249.9296875 346.59765625 241.501953125 345.90234375 229.456054688 344 c 4
 213.456054688 341 206.456054688 331 190.456054688 330 c 4
 183.456054688 329 179.456054688 334 174.456054688 339 c 4
 166.456054688 347 159.456054688 351 156.456054688 362 c 4
 154.456054688 368 159.456054688 373 162.456054688 378 c 4
 175.456054688 398 183.456054688 408 198.456054688 426 c 4
 221.456054688 454 236.456054688 468 259.456054688 496 c 4
 295.456054688 538 314.456054688 563 349.456054688 606 c 4
 363.456054688 624 371.456054688 633 384.456054688 652 c 4
 392.456054688 663 400.456054688 667 402.456054688 680 c 4
 402.639648438 682.196289062 402.755859375 684.392578125 402.755859375 686.551757812 c 4
 402.755859375 696.19140625 400.443359375 705.09765625 391.456054688 710 c 4
 384.240234375 714.330078125 377.71875 715.881835938 370.888671875 715.881835938 c 4
 363.522460938 715.881835938 355.796875 714.076171875 346.456054688 712 c 4
 274.456054688 697 234.456054688 684 163.456054688 664 c 4
 153.456054688 661 141.456054688 663 138.456054688 652 c 4
 136.748046875 644.676757812 136.111328125 638.069335938 136.111328125 631.8125 c 4
 136.111328125 613.568359375 141.521484375 598.311523438 141.521484375 577.02734375 c 4
 141.521484375 575.708984375 141.500976562 574.3671875 141.456054688 573 c 4
 140.456054688 542 137.456054688 525 133.456054688 494 c 4
 126.456054688 442 120.456054688 412 111.456054688 360 c 4
 101.456054688 303 97.4560546875 270 84.4560546875 213 c 4
 83.4560546875 208 76.4560546875 207 76.4560546875 202 c 4
 76.4560546875 187 81.4560546875 179 84.4560546875 164 c 4
 87.4560546875 152 90.4560546875 144 91.4560546875 132 c 4
 91.4560546875 123 91.4560546875 118 87.4560546875 110 c 4
 83.4560546875 102 80.4560546875 96 73.4560546875 92 c 4
 64.4560546875 87 57.4560546875 83 46.4560546875 86 c 4
 34.4560546875 89 23.4560546875 93 21.4560546875 106 c 4
 20.4375 113.540039062 20 120.45703125 20 127.004882812 c 4
 20 152.58984375 26.6787109375 172.540039062 31.4560546875 202 c 4
 49.4560546875 310 66.4560546875 369 84.4560546875 477 c 4
 92.4560546875 522 94.4560546875 547 97.4560546875 592 c 4
 97.7900390625 598.333007812 98.01171875 603.666992188 98.01171875 608.666992188 c 4
 98.01171875 618.666992188 97.123046875 627.333007812 94.4560546875 640 c 4
 91.4560546875 652 81.4560546875 657 79.4560546875 669 c 4
 77.9560546875 677.5 76.4560546875 684.75 76.4560546875 691.875 c 4
 76.4560546875 699 77.9560546875 706 82.4560546875 714 c 4
 88.4560546875 725 99.4560546875 724 111.456054688 726 c 4
 117.456054688 727 121.456054688 724 127.456054688 722 c 4
 137.456054688 719 142.456054688 714 152.456054688 714 c 4
EndSplineSet
Validated: 1
EndChar

StartChar: ae
Encoding: 230 230 35
Width: 765
Flags: HMW
HStem: 70 41
VStem: 20 50<201 201> 332 57 710 35
LayerCount: 2
Fore
SplineSet
388 502 m 0
 377.197265625 509.478515625 367.776367188 513.504882812 356.29296875 513.504882812 c 0
 353.95703125 513.504882812 351.536132812 513.337890625 349 513 c 0
 322 510 307 502 284 489 c 0
 253 472 237 459 211 436 c 0
 190 417 180 405 163 382 c 0
 146 360 140 345 125 322 c 0
 113 303 104 293 95 273 c 0
 89 259 90 250 85 236 c 0
 82 229 77 227 74 220 c 0
 71 213 68 208 70 201 c 0
 75 187 80 179 91 170 c 0
 102 161 111 158 125 156 c 0
 131.977539062 155.178710938 137.943359375 154.526367188 143.729492188 154.526367188 c 0
 152.040039062 154.526367188 159.977539062 155.873046875 170 160 c 0
 194 170 205 181 226 196 c 0
 242 208 253 213 266 228 c 0
 282 246 289 257 301 278 c 0
 312 297 317 307 323 328 c 0
 330 353 330 368 332 393 c 0
 332.19140625 395.864257812 332.272460938 398.62890625 332.272460938 401.310546875 c 0
 332.272460938 417.008789062 329.477539062 429.866210938 329.477539062 443.376953125 c 0
 329.477539062 451.7265625 330.544921875 460.326171875 334 470 c 0
 338 482 352 478 364 480 c 0
 376 482 385 472 394 480 c 0
 401 486 395 497 388 502 c 0
460 498 m 0
 443 490 435 479 424 464 c 0
 414 451 409 442 406 426 c 0
 396.141601562 377.603515625 388.692382812 347.681640625 388.692382812 302.399414062 c 0
 388.692382812 297.15625 388.791992188 291.70703125 389 286 c 0
 389 274 401 268 412 267 c 0
 415.40625 266.62109375 418.633789062 266.421875 421.729492188 266.421875 c 0
 434.9921875 266.421875 445.838867188 270.08203125 458 279 c 0
 487 300 495 321 520 346 c 0
 529 355 538 356 545 368 c 0
 557 387 566 400 566 422 c 0
 566 445 558 459 544 478 c 0
 534 492 523 496 506 500 c 0
 497.890625 501.908203125 490.69140625 503.133789062 483.642578125 503.133789062 c 0
 475.9140625 503.133789062 468.3671875 501.661132812 460 498 c 0
364 561 m 0
 378 558 379 544 392 538 c 0
 399.857421875 534.428710938 406.694335938 533.91796875 414.33203125 533.91796875 c 0
 417.387695312 533.91796875 420.571289062 534 424 534 c 0
 436 534 442 537 454 538 c 0
 473 540 483 543 502 543 c 0
 516 543 524 543 538 540 c 0
 555 536 567 536 580 526 c 0
 592 517 593 506 598 492 c 0
 605 475 608 465 611 447 c 0
 612.096679688 439.3203125 612.893554688 433.14453125 612.893554688 426.822265625 c 0
 612.893554688 421.62109375 612.354492188 416.3203125 611 410 c 0
 606 388 602 376 589 357 c 0
 575 335 561 328 544 308 c 0
 530 292 524 280 508 266 c 0
 489 250 477 241 454 232 c 0
 448.075195312 229.505859375 442.345703125 228.955078125 436.75 228.955078125 c 0
 432.3359375 228.955078125 428.004882812 229.297851562 423.727539062 229.297851562 c 0
 416.036132812 229.297851562 408.518554688 228.19140625 401 222 c 0
 397.614257812 219.291015625 396.40625 216.124023438 396.40625 212.654296875 c 0
 396.40625 205.874023438 401.015625 197.9375 403 190 c 0
 408 173 412 164 422 150 c 0
 430 137 435 129 449 122 c 0
 464.81640625 114.091796875 476.772460938 110.81640625 493.008789062 110.81640625 c 0
 495.25 110.81640625 497.573242188 110.87890625 500 111 c 0
 517 112 525 121 541 128 c 0
 566 140 581 144 604 160 c 0
 628 177 641 188 661 210 c 0
 674 224 680 234 688 252 c 0
 699 276 694 295 710 316 c 0
 716 324 727 322 736 318 c 0
 743 315 745 309 745 302 c 0
 743 278 741 263 731 242 c 0
 717 212 709 194 685 171 c 0
 649 135 623 120 580 94 c 0
 558 81 543 73 518 70 c 0
 511.125 68.9814453125 505.02734375 68.546875 499.311523438 68.546875 c 0
 482.583007812 68.546875 469.125 72.2734375 449 76 c 0
 440 78 436 90 427 86 c 0
 412 78 413 63 400 51 c 0
 390 41 384 32 370 30 c 0
 365.803710938 29.3544921875 361.19140625 28.8134765625 356.766601562 28.8134765625 c 0
 347.484375 28.8134765625 339.03125 31.1962890625 337 40 c 0
 331.301757812 64.3115234375 329.932617188 84.8720703125 329.932617188 104.639648438 c 0
 329.932617188 122.924804688 331.104492188 140.532226562 331.104492188 159.8046875 c 0
 331.104492188 174.545898438 330.418945312 190.26171875 328 208 c 0
 327 214 318 216 314 213 c 0
 302 204 304 191 292 182 c 0
 265 162 247 155 217 140 c 0
 197 130 185 122 163 117 c 0
 146.313476562 113.291992188 133.446289062 110.729492188 119.676757812 110.729492188 c 0
 111.166992188 110.729492188 102.313476562 111.708007812 92 114 c 0
 69 119 55 124 40 142 c 0
 25 161 20 177 20 201 c 0
 20 230 29 245 40 272 c 0
 52 302 62 317 79 344 c 0
 101 379 114 399 142 429 c 0
 181 470 206 491 250 525 c 0
 269 540 281 548 304 555 c 0
 319.2734375 559.859375 331.172851562 562.791992188 344.71875 562.791992188 c 0
 350.68359375 562.791992188 356.967773438 562.22265625 364 561 c 0
EndSplineSet
Validated: 1
EndChar

StartChar: L
Encoding: 76 76 36
Width: 494
VWidth: 0
Flags: W
HStem: 25.9102 38.1182<82.7457 236.205> 98.5469 38.543<351.353 444.175>
VStem: 20 38.7881<88.7232 276.375>
LayerCount: 2
Back
Fore
SplineSet
89.1806640625 476 m 24
 109.180664062 537 117.180664062 572 141.180664062 632 c 24
 161.180664062 683 166.180664062 717 202.180664062 759 c 16
 204.342773438 761.37890625 206.879882812 762.401367188 209.55859375 762.401367188 c 0
 219.264648438 762.401367188 230.829101562 748.97265625 233.180664062 738 c 0
 236.719726562 723.451171875 238.09375 711.221679688 238.09375 699.42578125 c 0
 238.09375 681.224609375 234.821289062 664.057617188 231.180664062 641 c 8
 230.180664062 634 224.180664062 628 217.180664062 629 c 24
 208.180664062 630 209.180664062 643 201.180664062 645 c 24
 195.180664062 646 190.180664062 642 187.180664062 636 c 24
 179.180664062 618 181.180664062 607 175.180664062 588 c 24
 163.180664062 551 154.180664062 531 140.180664062 494 c 24
 125.180664062 456 114.180664062 435 101.180664062 396 c 24
 92.1806640625 370 89.1806640625 354 83.1806640625 327 c 24
 77.1806640625 300 76.1806640625 285 71.1806640625 258 c 24
 67.1806640625 235 64.1806640625 222 61.1806640625 199 c 16
 59.7158203125 187.287109375 58.7880859375 179.861328125 58.7880859375 170.446289062 c 0
 58.7880859375 167 58.912109375 163.287109375 59.1806640625 159 c 8
 60.1806640625 143 60.1806640625 134 64.1806640625 119 c 24
 68.1806640625 105 71.1806640625 97 80.1806640625 86 c 24
 88.1806640625 76 94.1806640625 70 107.180664062 66 c 16
 111.85546875 64.5615234375 116.012695312 64.0283203125 120.072265625 64.0283203125 c 0
 127.299804688 64.0283203125 134.21484375 65.71875 143.180664062 67 c 8
 170.180664062 70 186.180664062 72 213.180664062 78 c 24
 245.180664062 85 263.180664062 88 293.180664062 99 c 24
 312.180664062 106 320.180664062 115 339.180664062 123 c 24
 355.180664062 130 364.180664062 133 381.180664062 136 c 16
 385.763671875 136.763671875 389.763671875 137.08984375 393.625976562 137.08984375 c 0
 399.875 137.08984375 405.763671875 136.236328125 413.180664062 135 c 8
 423.180664062 133 428.180664062 131 438.180664062 126 c 24
 449.180664062 120 455.180664062 116 465.180664062 108 c 24
 469.180664062 104 474.180664062 102 474.180664062 96 c 24
 474.180664062 88 472.180664062 82 465.180664062 78 c 24
 458.180664062 74 452.180664062 76 445.180664062 79 c 24
 434.180664062 83 432.180664062 93 421.180664062 96 c 16
 415.041992188 97.75390625 409.865234375 98.546875 404.806640625 98.546875 c 0
 398.327148438 98.546875 392.041992188 97.24609375 384.180664062 95 c 8
 367.180664062 91 360.180664062 83 344.180664062 76 c 24
 320.180664062 66 307.180664062 59 282.180664062 52 c 24
 253.180664062 43 235.180664062 41 205.180664062 35 c 24
 189.180664062 32 180.180664062 29 164.180664062 28 c 16
 149.34765625 26.763671875 138.716796875 25.91015625 127.09375 25.91015625 c 0
 119.91015625 25.91015625 112.34765625 26.236328125 103.180664062 27 c 8
 87.1806640625 28 77.1806640625 28 64.1806640625 36 c 24
 50.1806640625 44 46.1806640625 54 37.1806640625 67 c 24
 29.1806640625 78 24.1806640625 85 22.1806640625 98 c 16
 20.65234375 108.6953125 20 117.78515625 20 126.49609375 c 0
 20 140.591796875 21.7080078125 153.6953125 24.1806640625 171 c 8
 34.1806640625 249 41.1806640625 293 57.1806640625 369 c 24
 66.1806640625 412 76.1806640625 435 89.1806640625 476 c 24
EndSplineSet
Validated: 1
EndChar

StartChar: l
Encoding: 108 108 37
Width: 141
VWidth: 0
Flags: W
HStem: 25.7441 21G<77.9546 84.6099>
VStem: 20 39.4678<78.7918 378.489> 27 78<37.2161 68.9722> 58 63.8584<573.054 738.812>
LayerCount: 2
Back
Fore
SplineSet
24 90 m 24xa0
 22 120 20 138 20 168 c 24xc0
 20 194 23 208 25 234 c 24
 27 267 28 285 31 318 c 24
 34 355 38 375 41 412 c 24
 47 482 52 522 56 592 c 24
 58 627 57 647 58 682 c 16
 58 690.909179688 55.1650390625 698.603515625 55.1650390625 706.11328125 c 0
 55.1650390625 710.405273438 56.0908203125 714.63671875 59 719 c 0
 68.4951171875 733.2421875 78.8916015625 742.075195312 94.4697265625 742.075195312 c 0
 95.2978515625 742.075195312 96.1416015625 742.05078125 97 742 c 8
 111 741 119 729 121 715 c 16
 121.595703125 710.237304688 121.858398438 705.784179688 121.858398438 701.549804688 c 0x90
 121.858398438 677.33203125 113.255859375 660.237304688 109 633 c 8
 105 607 103 593 99 567 c 24
 95 537 92 520 89 490 c 24
 84 438 82 408 77 356 c 24
 73 314 69 290 66 248 c 16
 62.734375 208.80859375 59.4677734375 182.94921875 59.4677734375 148.651367188 c 0xc0
 59.4677734375 140.942382812 59.6328125 132.80859375 60 124 c 8
 61 105 64 95 73 78 c 24
 77 70 85 70 91 64 c 24
 97 58 108 55 105 47 c 16
 99.5166015625 35.119140625 90.6923828125 25.744140625 78.52734375 25.744140625 c 0
 77.3818359375 25.744140625 76.2060546875 25.828125 75 26 c 8
 52 30 41 42 27 60 c 24
 19 70 25 78 24 90 c 24xa0
EndSplineSet
Validated: 1
EndChar

StartChar: M
Encoding: 77 77 38
Width: 738
VWidth: 0
Flags: W
VStem: 20.1914 66<-25.686 59.5813> 321.191 41<169.215 392.41> 355.464 39.7275<443.463 670.626> 579.143 42.9531<77.2813 359.268> 657.191 55.6064<666 746.327>
LayerCount: 2
Back
Fore
SplineSet
178.19140625 442 m 24xb8
 190.19140625 488 187.19140625 516 204.19140625 560 c 24
 215.19140625 587 226.19140625 602 247.19140625 622 c 24
 254.19140625 628 264.19140625 615 270.19140625 622 c 24
 288.19140625 645 287.19140625 665 301.19140625 691 c 24
 312.19140625 712 317.19140625 726 333.19140625 743 c 24
 339.19140625 750 346.19140625 752 355.19140625 751 c 24
 366.19140625 749 373.19140625 746 378.19140625 736 c 24
 389.19140625 714 389.19140625 699 392.19140625 676 c 24
 395.19140625 650 395.19140625 636 395.19140625 610 c 24xb8
 395.19140625 573 392.19140625 552 390.19140625 515 c 24
 388.19140625 485 387.19140625 468 385.19140625 438 c 24
 383.19140625 410 381.19140625 394 378.19140625 366 c 24
 376.19140625 344 373.19140625 331 371.19140625 309 c 24
 368.19140625 282 366.19140625 266 364.19140625 239 c 24
 363.19140625 227 362.19140625 221 362.19140625 209 c 24
 362.19140625 197 359.19140625 189 363.19140625 178 c 24
 365.19140625 172 374.19140625 165 377.19140625 170 c 24
 387.19140625 188 381.19140625 202 388.19140625 221 c 24
 399.19140625 249 410.19140625 261 423.19140625 289 c 24
 439.19140625 323 445.19140625 343 461.19140625 378 c 24
 477.19140625 414 487.19140625 434 504.19140625 469 c 24
 516.19140625 494 524.19140625 507 537.19140625 531 c 24
 587.19140625 625 610.19140625 681 665.19140625 773 c 24
 670.19140625 781 677.19140625 784 687.19140625 782 c 24
 699.19140625 779 708.19140625 774 711.19140625 762 c 16
 712.333984375 756.2890625 712.797851562 751.15234375 712.797851562 746.327148438 c 0
 712.797851562 730.030273438 707.505859375 717.2890625 705.19140625 698 c 8
 699.19140625 653 693.19140625 627 686.19140625 582 c 24
 683.19140625 562 682.19140625 550 679.19140625 530 c 24
 676.19140625 510 673.19140625 500 669.19140625 480 c 24
 663.19140625 449 659.19140625 432 652.19140625 401 c 24
 647.19140625 377 644.19140625 364 639.19140625 340 c 24
 636.19140625 325 634.19140625 316 632.19140625 301 c 24
 629.19140625 280 628.19140625 268 627.19140625 247 c 24
 625.19140625 210 626.19140625 189 625.19140625 152 c 16
 624.456054688 136.545898438 622.095703125 126.5078125 622.095703125 113.915039062 c 0
 622.095703125 109.395507812 622.399414062 104.545898438 623.19140625 99 c 8
 625.19140625 89 628.19140625 83 637.19140625 77 c 24
 644.19140625 72 652.19140625 70 659.19140625 76 c 24
 679.19140625 95 681.19140625 115 699.19140625 136 c 24
 703.19140625 140 709.19140625 140 713.19140625 137 c 24
 718.19140625 132 716.19140625 127 717.19140625 120 c 24
 718.19140625 114 719.19140625 110 717.19140625 105 c 24
 709.19140625 86 704.19140625 76 691.19140625 60 c 24
 680.19140625 45 672.19140625 38 657.19140625 27 c 24
 650.19140625 22 645.19140625 20 637.19140625 21 c 24
 623.19140625 23 614.19140625 25 602.19140625 34 c 24
 592.19140625 42 587.19140625 50 585.19140625 63 c 16
 579.747070312 96.4443359375 579.142578125 119 579.142578125 147.604492188 c 0
 579.142578125 155.77734375 579.19140625 164.444335938 579.19140625 174 c 8
 579.19140625 214 583.19140625 236 587.19140625 276 c 24
 591.19140625 319 593.19140625 344 600.19140625 387 c 24
 606.19140625 422 611.19140625 441 619.19140625 476 c 24
 624.19140625 501 628.19140625 516 633.19140625 541 c 24
 638.19140625 564 641.19140625 578 646.19140625 601 c 24
 650.19140625 617 653.19140625 625 656.19140625 641 c 24
 658.19140625 651 658.19140625 656 657.19140625 666 c 24
 657.19140625 671 658.19140625 681 654.19140625 679 c 24
 645.19140625 674 645.19140625 665 640.19140625 656 c 24
 623.19140625 624 615.19140625 606 599.19140625 574 c 24
 569.19140625 511 553.19140625 476 523.19140625 413 c 24
 511.19140625 388 503.19140625 373 492.19140625 348 c 24
 487.19140625 337 486.19140625 330 481.19140625 318 c 24
 473.19140625 300 466.19140625 291 458.19140625 273 c 24
 446.19140625 245 439.19140625 229 429.19140625 201 c 24
 424.19140625 186 424.19140625 176 418.19140625 162 c 24
 414.19140625 150 410.19140625 144 403.19140625 134 c 24
 397.19140625 126 395.19140625 121 386.19140625 116 c 24
 378.19140625 112 371.19140625 109 362.19140625 112 c 24
 351.19140625 115 345.19140625 121 338.19140625 130 c 24
 328.19140625 144 321.19140625 153 321.19140625 170 c 24xd8
 321.19140625 287 328.19140625 353 338.19140625 470 c 24
 340.19140625 496 347.19140625 510 351.19140625 536 c 24
 353.19140625 552 352.19140625 562 353.19140625 578 c 16
 354.000976562 599.84375 355.463867188 613.178710938 355.463867188 631.771484375 c 0
 355.463867188 636.161132812 355.3828125 640.84375 355.19140625 646 c 8
 355.19140625 656 358.19140625 663 351.19140625 671 c 24
 347.19140625 676 339.19140625 674 335.19140625 669 c 24
 323.19140625 656 321.19140625 646 314.19140625 629 c 24
 308.19140625 614 310.19140625 604 304.19140625 590 c 24
 297.19140625 575 288.19140625 569 281.19140625 554 c 24
 276.19140625 543 278.19140625 536 274.19140625 525 c 24
 269.19140625 512 260.19140625 507 256.19140625 494 c 24
 248.19140625 468 253.19140625 451 245.19140625 425 c 24
 239.19140625 405 228.19140625 397 221.19140625 377 c 24
 215.19140625 360 217.19140625 349 210.19140625 332 c 24
 202.19140625 312 191.19140625 304 182.19140625 285 c 24
 170.19140625 261 165.19140625 247 157.19140625 221 c 24
 150.19140625 199 150.19140625 186 142.19140625 163 c 24
 136.19140625 146 129.19140625 137 123.19140625 120 c 24
 114.19140625 94 110.19140625 79 102.19140625 53 c 24
 96.19140625 32 97.19140625 19 86.19140625 0 c 24
 77.19140625 -15 69.19140625 -24 54.19140625 -32 c 24
 45.19140625 -37 37.19140625 -34 27.19140625 -30 c 24
 22.19140625 -28 19.19140625 -24 20.19140625 -18 c 24
 22.19140625 4 27.19140625 16 34.19140625 38 c 24
 42.19140625 63 49.19140625 76 58.19140625 101 c 24
 69.19140625 131 74.19140625 148 87.19140625 177 c 24
 102.19140625 212 117.19140625 228 130.19140625 264 c 24
 136.19140625 282 131.19140625 293 136.19140625 312 c 24
 142.19140625 338 150.19140625 352 158.19140625 378 c 24
 166.19140625 403 172.19140625 417 178.19140625 442 c 24xb8
EndSplineSet
Validated: 1
EndChar

StartChar: m
Encoding: 109 109 39
Width: 774
VWidth: 0
Flags: W
VStem: 99.4609 52.6504<268.326 397.865 398.711 451.585> 327.971 61.9043<190.492 343.682> 335.981 60.1602<243.153 412.948> 654.502 66.9912<103.836 208.74> 688.129 66.125<218.113 446.833>
LayerCount: 2
Back
Fore
SplineSet
88.12109375 359.399414062 m 28xa0
 91.361328125 381.83984375 94.6005859375 394.759765625 99.4609375 417.19921875 c 28
 101.890625 428.080078125 101.081054688 435.559570312 106.750976562 445.759765625 c 28
 109.180664062 450.51953125 113.231445312 454.599609375 119.7109375 453.919921875 c 28
 129.430664062 453.239257812 135.911132812 449.83984375 141.581054688 443.040039062 c 28
 151.30078125 430.799804688 156.161132812 422.639648438 157.78125 408.359375 c 20
 158.194335938 404.884765625 158.373046875 401.647460938 158.373046875 398.56640625 c 4
 158.373046875 383.5546875 154.126953125 372.245117188 152.111328125 355.319335938 c 12
 147.250976562 316.559570312 144.010742188 294.799804688 139.9609375 256.040039062 c 28
 139.151367188 249.919921875 135.911132812 245.83984375 139.9609375 240.399414062 c 28
 142.390625 237.6796875 148.060546875 238.359375 151.30078125 241.080078125 c 28
 156.161132812 244.479492188 156.161132812 249.239257812 159.401367188 254 c 28
 163.451171875 260.119140625 167.500976562 263.51953125 172.361328125 270.319335938 c 28
 182.081054688 284.599609375 186.94140625 292.759765625 195.850585938 307.040039062 c 28
 212.05078125 331.51953125 220.9609375 345.119140625 236.350585938 369.599609375 c 28
 250.930664062 392.719726562 257.411132812 405.639648438 271.180664062 428.080078125 c 28
 284.951171875 450.51953125 290.62109375 464.799804688 307.630859375 485.879882812 c 28
 316.541015625 497.439453125 322.2109375 504.239257812 335.981445312 509.6796875 c 28
 343.270507812 512.399414062 349.750976562 509 356.231445312 505.599609375 c 28
 367.571289062 499.479492188 376.481445312 496.080078125 382.151367188 485.19921875 c 28
 391.060546875 468.879882812 388.630859375 458 391.060546875 440.319335938 c 28
 394.30078125 420.599609375 395.111328125 409.719726562 395.920898438 390 c 20
 396.076171875 385.713867188 396.141601562 381.80078125 396.141601562 378.1171875 c 4xa0
 396.141601562 362.51171875 394.956054688 351.034179688 394.30078125 332.879882812 c 4
 392.942382812 294.676757812 389.875 270.33984375 389.875 236.614257812 c 4
 389.875 230.120117188 389.989257812 223.276367188 390.250976562 215.919921875 c 12
 390.250976562 205.040039062 391.87109375 198.919921875 398.350585938 190.080078125 c 28
 400.78125 187.359375 406.451171875 189.399414062 408.880859375 192.119140625 c 28
 416.981445312 201.639648438 417.791015625 209.119140625 424.270507812 220 c 28
 433.991210938 235.639648438 439.661132812 245.159179688 450.19140625 260.799804688 c 28
 473.680664062 295.479492188 485.020507812 315.879882812 510.130859375 349.19921875 c 28
 529.571289062 375.040039062 543.340820312 387.959960938 563.590820312 413.119140625 c 28
 587.890625 443.040039062 599.231445312 462.080078125 624.340820312 492 c 28
 637.30078125 507.639648438 643.78125 517.83984375 661.600585938 528.719726562 c 28
 669.701171875 533.479492188 677.80078125 533.479492188 686.7109375 530.759765625 c 28
 701.291015625 526.6796875 711.010742188 522.599609375 719.920898438 511.719726562 c 28
 736.12109375 490.639648438 743.411132812 476.359375 749.081054688 451.879882812 c 20
 753.373046875 432.0625 754.25390625 416.63671875 754.25390625 400.84765625 c 4xc8
 754.25390625 389.856445312 753.827148438 378.689453125 753.827148438 365.741210938 c 4
 753.827148438 362.185546875 753.858398438 358.49609375 753.94140625 354.639648438 c 4
 754.303710938 346.428710938 754.666015625 339.713867188 754.666015625 333.157226562 c 4
 754.666015625 325.052734375 754.112304688 317.188476562 752.321289062 307.040039062 c 12
 745.840820312 264.879882812 736.12109375 241.759765625 728.831054688 199.599609375 c 28
 723.970703125 174.439453125 722.350585938 160.159179688 721.541015625 134.319335938 c 20
 721.508789062 133.82421875 721.493164062 133.336914062 721.493164062 132.856445312 c 4
 721.493164062 124.173828125 726.56640625 117.86328125 726.56640625 110.727539062 c 4
 726.56640625 108.50390625 726.073242188 106.200195312 724.78125 103.719726562 c 12
 719.920898438 94.8798828125 710.201171875 93.51953125 698.861328125 90.7998046875 c 28
 690.760742188 88.759765625 685.090820312 87.3994140625 678.611328125 91.4794921875 c 28
 667.270507812 98.279296875 659.981445312 104.399414062 657.55078125 115.959960938 c 20
 655.36328125 126.717773438 654.501953125 135.854492188 654.501953125 144.662109375 c 4x90
 654.501953125 158.6796875 656.68359375 171.859375 659.170898438 189.399414062 c 12
 659.981445312 197.559570312 668.081054688 200.959960938 670.510742188 209.119140625 c 28
 676.991210938 234.279296875 676.991210938 248.559570312 680.231445312 273.719726562 c 28
 681.850585938 290.719726562 681.850585938 300.919921875 683.470703125 317.919921875 c 28
 685.090820312 338.319335938 686.7109375 350.559570312 687.520507812 370.959960938 c 20
 687.92578125 382.1796875 688.12890625 390.849609375 688.12890625 399.51953125 c 4
 688.12890625 408.189453125 687.92578125 416.859375 687.520507812 428.080078125 c 12
 687.520507812 435.559570312 688.331054688 441 683.470703125 447.119140625 c 28
 681.041015625 450.51953125 675.37109375 453.239257812 670.510742188 451.19921875 c 28
 662.411132812 447.799804688 662.411132812 442.359375 657.55078125 436.239257812 c 28
 639.731445312 413.799804688 630.821289062 401.559570312 613.810546875 379.119140625 c 28
 594.37109375 353.959960938 581.411132812 339.6796875 561.970703125 313.83984375 c 28
 538.481445312 281.879882812 526.331054688 262.83984375 504.4609375 229.51953125 c 28
 488.260742188 205.040039062 482.590820312 189.399414062 463.9609375 166.279296875 c 28
 445.331054688 143.83984375 435.611328125 128.879882812 408.880859375 113.239257812 c 20
 400.447265625 108.51953125 392.826171875 107.211914062 384.607421875 107.211914062 c 4
 378.618164062 107.211914062 372.311523438 107.90625 365.140625 108.479492188 c 12
 353.80078125 109.83984375 344.890625 111.879882812 339.220703125 120.040039062 c 28
 329.500976562 135 331.12109375 145.879882812 328.69140625 162.879882812 c 20
 328.150390625 168.319335938 327.970703125 173.00390625 327.970703125 177.436523438 c 4
 327.970703125 186.301757812 328.69140625 194.159179688 328.69140625 205.040039062 c 4
 328.69140625 220 327.970703125 230.728515625 327.970703125 242.868164062 c 4xc8
 327.970703125 248.9375 328.150390625 255.359375 328.69140625 262.83984375 c 12
 330.310546875 288.6796875 335.981445312 303.639648438 337.600585938 329.479492188 c 20
 337.991210938 334.712890625 338.145507812 339.43359375 338.145507812 343.890625 c 4
 338.145507812 357.96484375 336.596679688 369.392578125 335.981445312 385.919921875 c 4
 335.915039062 386.8046875 335.88671875 387.666992188 335.88671875 388.509765625 c 4
 335.88671875 393.73046875 336.975585938 398.184570312 336.975585938 402.484375 c 4
 336.975585938 406.021484375 336.23828125 409.454101562 333.55078125 413.119140625 c 12
 330.310546875 417.19921875 323.020507812 411.759765625 320.590820312 407.6796875 c 28
 307.630859375 387.279296875 308.44140625 372.319335938 295.481445312 351.239257812 c 28
 286.571289062 336.959960938 276.041015625 331.51953125 265.510742188 317.239257812 c 28
 249.310546875 294.799804688 242.831054688 280.51953125 227.44140625 258.080078125 c 28
 213.670898438 237.6796875 201.520507812 228.159179688 190.180664062 207.080078125 c 28
 171.55078125 173.759765625 169.930664062 153.359375 151.30078125 120.719726562 c 28
 136.720703125 94.8798828125 123.760742188 81.9599609375 103.510742188 58.83984375 c 28
 94.6005859375 48.6396484375 91.361328125 41.1591796875 78.4013671875 35.0400390625 c 28
 70.30078125 30.9599609375 63.0107421875 32.3193359375 53.291015625 34.359375 c 28
 41.140625 37.080078125 28.9912109375 36.3994140625 23.3212890625 46.599609375 c 20
 20.96484375 51.05078125 20 55.2314453125 20 59.3720703125 c 4
 20 66.6181640625 22.953125 73.73828125 26.560546875 81.9599609375 c 12
 28.1806640625 86.0400390625 37.9013671875 81.9599609375 39.5205078125 86.0400390625 c 28
 47.62109375 111.879882812 44.380859375 128.19921875 50.05078125 154.719726562 c 28
 53.291015625 169.6796875 58.1513671875 178.51953125 62.201171875 193.479492188 c 28
 67.060546875 211.83984375 70.30078125 222.040039062 73.541015625 240.399414062 c 28
 80.8310546875 286.639648438 81.640625 313.159179688 88.12109375 359.399414062 c 28xa0
EndSplineSet
Validated: 1
EndChar

StartChar: O
Encoding: 79 79 40
Width: 732
VWidth: 0
Flags: W
HStem: 17.6074 45.2383<177.325 383.597> 706.005 59.4688<340.687 427.984>
VStem: 20 47.6006<191.374 344.744> 675.654 37.2891<298.783 478.62>
LayerCount: 2
Back
Fore
SplineSet
71.259765625 188 m 1048
74.259765625 191 m 24
 84.259765625 174 95.259765625 169 107.259765625 154 c 24
 116.259765625 143 118.259765625 133 128.259765625 123 c 24
 143.259765625 107 152.259765625 99 171.259765625 88 c 24
 186.259765625 79 196.259765625 76 213.259765625 71 c 24
 231.259765625 66 241.259765625 65 259.259765625 64 c 16
 270.249023438 63.154296875 279.2734375 62.845703125 288.068359375 62.845703125 c 0
 300.083007812 62.845703125 311.671875 63.4228515625 327.259765625 64 c 8
 338.259765625 64 344.259765625 64 355.259765625 68 c 24
 384.259765625 78 400.259765625 85 428.259765625 98 c 24
 456.259765625 111 471.259765625 120 497.259765625 135 c 24
 519.259765625 148 532.259765625 156 552.259765625 171 c 24
 576.259765625 189 591.259765625 199 611.259765625 221 c 24
 626.259765625 237 630.259765625 248 641.259765625 267 c 24
 649.259765625 281 653.259765625 289 659.259765625 304 c 24
 666.259765625 322 670.259765625 333 673.259765625 352 c 16
 674.912109375 363.560546875 675.654296875 372.697265625 675.654296875 382.078125 c 0
 675.654296875 389.737304688 675.159179688 397.560546875 674.259765625 407 c 8
 672.259765625 428 672.259765625 440 665.259765625 460 c 24
 660.259765625 477 653.259765625 484 644.259765625 500 c 24
 634.259765625 518 629.259765625 529 616.259765625 546 c 24
 602.259765625 564 591.259765625 571 575.259765625 587 c 24
 558.259765625 604 550.259765625 615 532.259765625 631 c 24
 515.259765625 646 504.259765625 655 485.259765625 667 c 24
 473.259765625 675 465.259765625 678 451.259765625 682 c 24
 448.259765625 683 446.259765625 680 443.259765625 680 c 24
 439.259765625 679 434.259765625 676 432.259765625 679 c 24
 427.259765625 687 438.259765625 701 428.259765625 704 c 16
 423.745117188 705.42578125 419.681640625 706.004882812 415.840820312 706.004882812 c 0
 403.5234375 706.004882812 393.506835938 700.049804688 378.259765625 697 c 8
 363.259765625 694 353.259765625 692 340.259765625 684 c 24
 325.259765625 675 319.259765625 666 307.259765625 653 c 24
 295.259765625 640 290.259765625 632 279.259765625 619 c 24
 263.259765625 599 253.259765625 589 237.259765625 569 c 24
 217.259765625 543 207.259765625 528 188.259765625 502 c 24
 168.259765625 476 156.259765625 462 137.259765625 435 c 24
 124.259765625 417 116.259765625 407 105.259765625 387 c 24
 98.259765625 374 94.259765625 366 90.259765625 351 c 24
 85.259765625 334 85.259765625 324 80.259765625 306 c 24
 76.259765625 291 70.259765625 283 68.259765625 267 c 16
 67.794921875 262.3515625 67.6005859375 258.189453125 67.6005859375 254.288085938 c 0
 67.6005859375 241.401367188 69.724609375 231.3515625 71.259765625 216 c 8
 72.259765625 206 69.259765625 199 74.259765625 191 c 24
59.259765625 386 m 24
 72.259765625 413 78.259765625 427 94.259765625 452 c 24
 107.259765625 472 116.259765625 481 132.259765625 500 c 24
 149.259765625 521 160.259765625 531 177.259765625 552 c 24
 188.259765625 565 193.259765625 573 204.259765625 586 c 24
 218.259765625 604 227.259765625 614 241.259765625 632 c 24
 259.259765625 654 267.259765625 667 286.259765625 688 c 24
 300.259765625 705 309.259765625 714 325.259765625 729 c 24
 336.259765625 740 342.259765625 748 356.259765625 755 c 24
 370.259765625 762 380.259765625 764 396.259765625 765 c 16
 399.826171875 765.274414062 403.090820312 765.473632812 406.158203125 765.473632812 c 0
 414.272460938 765.473632812 421.002929688 764.080078125 428.259765625 759 c 8
 439.259765625 751 436.259765625 739 446.259765625 730 c 24
 454.259765625 723 462.259765625 726 471.259765625 721 c 24
 483.259765625 714 489.259765625 710 501.259765625 701 c 24
 512.259765625 693 517.259765625 688 528.259765625 679 c 24
 541.259765625 668 547.259765625 660 560.259765625 650 c 24
 575.259765625 637 587.259765625 633 601.259765625 619 c 24
 621.259765625 599 630.259765625 584 648.259765625 562 c 24
 658.259765625 550 664.259765625 543 673.259765625 530 c 24
 685.259765625 513 693.259765625 504 701.259765625 484 c 24
 707.259765625 467 707.259765625 456 708.259765625 438 c 16
 710.357421875 405.84375 712.943359375 383.94921875 712.943359375 357.969726562 c 0
 712.943359375 346.78515625 712.463867188 334.84375 711.259765625 321 c 8
 710.259765625 306 701.259765625 300 695.259765625 286 c 24
 683.259765625 261 683.259765625 244 665.259765625 223 c 24
 623.259765625 175 595.259765625 153 543.259765625 114 c 24
 518.259765625 95 500.259765625 91 472.259765625 78 c 24
 445.259765625 65 429.259765625 59 402.259765625 48 c 24
 382.259765625 40 372.259765625 32 351.259765625 27 c 24
 321.259765625 20 303.259765625 21 272.259765625 19 c 16
 262.416015625 18.453125 254.366210938 17.607421875 246.311523438 17.607421875 c 0
 239.638671875 17.607421875 232.962890625 18.1875 225.259765625 20 c 8
 195.259765625 28 179.259765625 35 151.259765625 50 c 24
 132.259765625 60 121.259765625 68 105.259765625 82 c 24
 86.259765625 99 75.259765625 108 60.259765625 130 c 24
 47.259765625 149 44.259765625 163 35.259765625 184 c 24
 31.259765625 192 29.259765625 197 27.259765625 205 c 24
 23.259765625 222 21.259765625 231 20.259765625 248 c 16
 20.0830078125 251.010742188 20 253.802734375 20 256.452148438 c 0
 20 268.76171875 21.791015625 278.010742188 24.259765625 292 c 8
 26.259765625 303 28.259765625 309 32.259765625 320 c 24
 42.259765625 346 47.259765625 361 59.259765625 386 c 24
EndSplineSet
Validated: 1
EndChar

StartChar: o
Encoding: 111 111 41
Width: 566
VWidth: 0
Flags: W
HStem: 58.3203 32.9111<116.943 262.301> 475.77 67.6357<328.158 375.314>
VStem: 20 44.123<138.214 288.42> 365.964 30.3994<415.524 453.424> 498.552 48.2725<287.776 417.213>
LayerCount: 2
Back
Fore
SplineSet
335.563476562 479.440429688 m 12
 305.1640625 474.3203125 285.1640625 472.400390625 258.763671875 458.959960938 c 28
 231.563476562 444.879882812 223.563476562 429.51953125 201.1640625 410.3203125 c 28
 175.563476562 387.919921875 159.563476562 376.400390625 137.1640625 352.719726562 c 28
 113.1640625 327.120117188 100.36328125 312.400390625 82.763671875 283.599609375 c 28
 71.5634765625 265.6796875 66.763671875 253.51953125 65.1640625 233.6796875 c 20
 64.482421875 226.048828125 64.123046875 219.294921875 64.123046875 212.934570312 c 4
 64.123046875 196.890625 66.4072265625 183.350585938 71.5634765625 164.559570312 c 12
 75.5634765625 150.48046875 81.1640625 142.799804688 92.36328125 131.280273438 c 28
 106.763671875 116.559570312 114.763671875 104.400390625 137.1640625 98 c 20
 153.491210938 93.0576171875 166.897460938 91.2314453125 181.0078125 91.2314453125 c 4
 192.478515625 91.2314453125 204.415039062 92.4384765625 218.763671875 94.16015625 c 12
 243.563476562 97.3603515625 256.36328125 105.040039062 277.963867188 114.639648438 c 28
 305.963867188 126.799804688 321.1640625 135.120117188 346.763671875 150.48046875 c 28
 365.963867188 162 375.563476562 169.6796875 391.563476562 183.759765625 c 28
 407.563476562 197.83984375 416.36328125 206.16015625 429.963867188 222.16015625 c 28
 447.563476562 243.919921875 456.36328125 257.360351562 471.563476562 279.759765625 c 28
 482.763671875 295.759765625 492.36328125 304.080078125 497.1640625 322 c 20
 498.1484375 325.782226562 498.551757812 329.17578125 498.551757812 332.373046875 c 4
 498.551757812 342.16015625 494.775390625 350.1015625 492.36328125 361.6796875 c 12
 488.36328125 382.799804688 488.36328125 395.599609375 477.963867188 415.440429688 c 28
 467.563476562 434.639648438 456.36328125 444.240234375 439.563476562 460.240234375 c 20
 433.625976562 466.045898438 427.688476562 475.76953125 420.404296875 475.76953125 c 4
 418.85546875 475.76953125 417.247070312 475.330078125 415.563476562 474.3203125 c 12
 398.763671875 463.440429688 405.963867188 448.080078125 396.36328125 432.080078125 c 20
 391.716796875 424.64453125 389.319335938 415.409179688 379.733398438 415.409179688 c 4
 379.41796875 415.409179688 379.094726562 415.419921875 378.763671875 415.440429688 c 12
 368.36328125 416.080078125 365.963867188 425.040039062 365.963867188 433.360351562 c 28
 365.963867188 442.3203125 379.563476562 444.879882812 380.36328125 453.83984375 c 20
 380.506835938 455.552734375 380.598632812 457.204101562 380.598632812 458.794921875 c 4
 380.598632812 466.119140625 378.651367188 472.147460938 370.763671875 476.879882812 c 4
 364.944335938 480.205078125 359.33984375 481.28515625 353.391601562 481.28515625 c 4
 347.891601562 481.28515625 342.096679688 480.362304688 335.563476562 479.440429688 c 12
33.1640625 313.040039062 m 12
 41.1640625 341.200195312 64.36328125 350.16015625 87.5634765625 371.919921875 c 28
 109.963867188 393.040039062 125.963867188 403.280273438 149.963867188 423.120117188 c 28
 174.763671875 443.599609375 185.963867188 458.3203125 213.963867188 475.599609375 c 28
 234.763671875 488.400390625 249.963867188 490.959960938 274.763671875 499.919921875 c 28
 284.36328125 503.759765625 292.36328125 502.48046875 300.36328125 507.599609375 c 28
 317.963867188 518.48046875 318.763671875 534.48046875 340.36328125 540.879882812 c 20
 346.065429688 542.665039062 351.383789062 543.405273438 356.555664062 543.405273438 c 4
 368.073242188 543.405273438 378.866210938 539.735351562 391.563476562 535.759765625 c 12
 415.563476562 528.080078125 427.563476562 520.400390625 447.563476562 507.599609375 c 28
 471.563476562 491.599609375 485.963867188 482 503.563476562 461.51953125 c 28
 519.563476562 442.3203125 523.563476562 428.879882812 532.36328125 406.48046875 c 20
 539.954101562 388.262695312 546.82421875 377.53515625 546.82421875 359.538085938 c 4
 546.82421875 358.567382812 546.8046875 357.575195312 546.763671875 356.559570312 c 12
 545.1640625 325.200195312 540.36328125 306.639648438 525.963867188 277.200195312 c 28
 510.763671875 245.83984375 497.963867188 229.83984375 473.1640625 202.959960938 c 28
 445.963867188 173.51953125 426.763671875 159.440429688 393.1640625 135.120117188 c 28
 367.563476562 116.559570312 352.36328125 106.959960938 322.763671875 92.8798828125 c 28
 297.1640625 80.7197265625 280.36328125 76.8798828125 252.36328125 69.83984375 c 28
 229.1640625 63.4404296875 216.36328125 58.3203125 191.563476562 58.3203125 c 28
 160.36328125 58.3203125 140.36328125 58.3203125 113.1640625 69.83984375 c 28
 85.9638671875 80.7197265625 76.36328125 94.16015625 57.1640625 113.360351562 c 28
 41.1640625 129.360351562 27.5634765625 138.959960938 25.1640625 159.440429688 c 20
 22.0625 185.080078125 20 206.325195312 20 226.860351562 c 4
 20 253.995117188 23.6005859375 279.888671875 33.1640625 313.040039062 c 12
EndSplineSet
Validated: 1
EndChar

StartChar: P
Encoding: 80 80 42
Width: 308
VWidth: 0
Flags: W
HStem: 752 34<141.203 244.583>
VStem: 37.9365 31.2988<149.859 357.58 419.135 519.51> 41.9365 44<398.863 417.765> 48.9365 23<532.916 601.47> 55.9365 17<644.209 657.678> 260.937 27.375<624.759 731.672>
LayerCount: 2
Back
Fore
SplineSet
25.9365234375 704 m 24x8c
 38.9365234375 719 48.9365234375 722 65.9365234375 732 c 24
 83.9365234375 742 94.9365234375 746 113.936523438 755 c 24
 128.936523438 762 136.936523438 768 151.936523438 774 c 24
 167.936523438 780 175.936523438 784 192.936523438 786 c 24
 203.936523438 787 209.936523438 785 220.936523438 783 c 24
 234.936523438 781 243.936523438 782 256.936523438 776 c 24
 265.936523438 772 268.936523438 768 273.936523438 759 c 24
 280.936523438 746 282.936523438 737 284.936523438 723 c 16
 287.186523438 709.5 288.311523438 699.9375 288.311523438 688.40625 c 0
 288.311523438 684.5625 288.186523438 680.5 287.936523438 676 c 8
 286.936523438 660 286.936523438 650 281.936523438 635 c 24
 273.936523438 609 267.936523438 595 255.936523438 571 c 24
 243.936523438 547 233.936523438 535 219.936523438 512 c 24
 207.936523438 494 201.936523438 483 188.936523438 466 c 24
 171.936523438 443 161.936523438 431 143.936523438 408 c 24
 132.936523438 395 126.936523438 387 115.936523438 374 c 24
 109.936523438 366 108.936523438 359 99.9365234375 354 c 24
 95.9365234375 352 92.9365234375 358 87.9365234375 359 c 24
 82.9365234375 360 78.9365234375 362 75.9365234375 358 c 24
 69.9365234375 349 70.9365234375 342 69.9365234375 331 c 16
 69.197265625 315.485351562 69.00390625 302.426757812 69.00390625 289.958984375 c 0
 69.00390625 276.322265625 69.2353515625 263.392578125 69.2353515625 248.728515625 c 0
 69.2353515625 240.5078125 69.1630859375 231.741210938 68.9365234375 222 c 8
 68.9365234375 205 67.9365234375 196 65.9365234375 179 c 16
 64.1142578125 167.161132812 59.8056640625 160.297851562 59.8056640625 149.348632812 c 0
 59.8056640625 148.274414062 59.8466796875 147.161132812 59.9365234375 146 c 8
 59.9365234375 141 64.9365234375 135 68.9365234375 138 c 24
 74.9365234375 142 72.9365234375 149 75.9365234375 156 c 24
 81.9365234375 168 81.9365234375 177 91.9365234375 186 c 24
 95.9365234375 189 102.936523438 185 103.936523438 180 c 16
 104.84765625 176.049804688 105.205078125 172.561523438 105.205078125 169.25390625 c 0
 105.205078125 161.676757812 103.328125 155.049804688 101.936523438 146 c 8
 98.9365234375 131 95.9365234375 123 91.9365234375 108 c 24
 87.9365234375 95 84.9365234375 88 81.9365234375 76 c 24
 78.9365234375 62 81.9365234375 54 77.9365234375 40 c 24
 76.9365234375 35 74.9365234375 29 68.9365234375 30 c 24
 58.9365234375 32 54.9365234375 39 47.9365234375 46 c 24
 42.9365234375 51 41.9365234375 56 39.9365234375 62 c 24
 35.9365234375 78 32.9365234375 87 32.9365234375 103 c 24
 32.9365234375 117 36.9365234375 125 37.9365234375 139 c 24xc4
 39.9365234375 162 41.9365234375 176 41.9365234375 199 c 24xa4
 41.9365234375 222 37.9365234375 236 37.9365234375 259 c 24xc4
 37.9365234375 284 42.9365234375 298 43.9365234375 323 c 16
 44.0791015625 327.428710938 44.140625 331.571289062 44.140625 335.509765625 c 0
 44.140625 359.142578125 41.9365234375 375.428710938 41.9365234375 402 c 0
 41.9365234375 418 42.380859375 429.111328125 42.380859375 441.8515625 c 0
 42.380859375 448.22265625 42.26953125 455 41.9365234375 463 c 0xa4
 41.0263671875 485.747070312 36.8046875 499.387695312 36.8046875 520.494140625 c 0
 36.8046875 522.583984375 36.845703125 524.747070312 36.9365234375 527 c 8
 37.9365234375 549 47.9365234375 560 48.9365234375 582 c 24
 49.9365234375 593 42.9365234375 598 40.9365234375 608 c 24
 39.9365234375 616 38.9365234375 620 40.9365234375 628 c 24
 41.9365234375 632 44.9365234375 638 48.9365234375 636 c 24
 60.9365234375 631 69.9365234375 627 73.9365234375 615 c 16
 75.572265625 610.36328125 76.16796875 606.099609375 76.16796875 601.983398438 c 0
 76.16796875 591.0078125 71.9365234375 581.090820312 71.9365234375 568 c 8
 71.9365234375 551 71.9365234375 541 71.9365234375 524 c 24
 71.9365234375 513 72.9365234375 506 71.9365234375 495 c 24x94
 70.9365234375 481 68.9365234375 473 68.9365234375 459 c 16
 68.9365234375 450.384765625 67.4208984375 443.663085938 67.4208984375 436.737304688 c 0
 67.4208984375 432.408203125 68.0126953125 428 69.9365234375 423 c 8
 72.9365234375 417 81.9365234375 423 85.9365234375 418 c 24
 89.9365234375 413 82.9365234375 407 85.9365234375 402 c 24xa4
 87.9365234375 398 93.9365234375 396 96.9365234375 399 c 24
 105.936523438 408 104.936523438 417 112.936523438 427 c 24
 128.936523438 448 141.936523438 457 157.936523438 478 c 24
 170.936523438 494 173.936523438 505 185.936523438 523 c 24
 201.936523438 548 213.936523438 560 228.936523438 586 c 24
 240.936523438 607 245.936523438 619 252.936523438 642 c 24
 257.936523438 659 259.936523438 669 260.936523438 687 c 24
 261.936523438 695 259.936523438 700 257.936523438 708 c 24
 254.936523438 718 254.936523438 725 247.936523438 732 c 24
 241.936523438 739 235.936523438 740 225.936523438 744 c 24
 214.936523438 748 207.936523438 752 195.936523438 752 c 24
 183.936523438 752 177.936523438 748 165.936523438 744 c 24
 147.936523438 738 137.936523438 736 120.936523438 728 c 24
 107.936523438 722 100.936523438 717 88.9365234375 708 c 24
 79.9365234375 701 70.9365234375 699 67.9365234375 688 c 16
 67.263671875 685.983398438 66.9873046875 684.079101562 66.9873046875 682.25 c 0
 66.9873046875 673.720703125 73.0068359375 666.823242188 73.0068359375 657.704101562 c 0
 73.0068359375 657.14453125 72.984375 656.577148438 72.9365234375 656 c 8
 71.9365234375 650 69.9365234375 646 63.9365234375 644 c 24
 59.9365234375 643 57.9365234375 647 55.9365234375 650 c 24
 51.9365234375 656 54.9365234375 662 49.9365234375 666 c 24
 44.9365234375 671 39.9365234375 668 33.9365234375 671 c 24
 28.9365234375 673 21.9365234375 673 20.9365234375 679 c 24
 18.9365234375 689 19.9365234375 696 25.9365234375 704 c 24x8c
EndSplineSet
Validated: 1
EndChar

StartChar: p
Encoding: 112 112 43
Width: 623
VWidth: 0
Flags: W
HStem: 500 45<260.334 498.489> 518 47<401.101 524.671>
VStem: 20 95<-175.238 -39.2656> 28 88<-174.063 -107.701> 205 58<376.641 473.532> 205 51<449 484.813> 533 70<471.103 511.009>
LayerCount: 2
Back
Fore
SplineSet
453 511 m 0x46
 436 505 435 504 418 502 c 0
 415 502 403 499 401 499 c 0
 384 499 376 499 358 500 c 0
 347 500 339 500 331 500 c 0
 321 500 311 500 298 498 c 8
 282 496 267 497 260 485 c 16
 257 481 256 478 256 474 c 0x86
 256 464 263 455 263 444 c 0
 263 443 263 443 263 442 c 8x8a
 261 414 258 398 252 370 c 24
 245 332 244 309 230 272 c 24
 226 259 213 255 205 244 c 24
 200 237 192 231 198 224 c 16
 205 215 214 210 225 210 c 0
 227 210 230 211 232 211 c 8
 252 214 261 225 276 237 c 24
 298 255 306 269 327 288 c 24
 357 315 378 327 407 355 c 24
 432 379 444 395 467 421 c 24
 481 437 483 450 500 465 c 24
 507 472 520 465 525 473 c 16
 530 479 533 486 533 493 c 0
 533 497 532 501 529 505 c 8
 518 517 504 516 487 518 c 16
 486 518 484 518 483 518 c 0
 472 518 464 515 453 511 c 0x46
249 578 m 24
 264 578 255 552 271 547 c 16
 276 545 282 545 287 545 c 0xaa
 303 545 316 551 334 552 c 8
 362 554 379 555 407 557 c 24
 444 560 464 564 502 565 c 16
 510 566 518 566 525 566 c 0
 537 566 547 565 560 560 c 8
 577 554 587 546 596 531 c 16
 601 522 603 515 603 507 c 0
 603 502 603 497 602 491 c 8
 599 477 594 470 584 459 c 24
 559 427 542 413 514 383 c 24
 492 359 481 345 456 322 c 24
 414 285 387 267 343 231 c 24
 311 204 293 188 261 160 c 24
 238 140 227 126 203 106 c 24
 190 95 180 92 169 80 c 24
 157 67 152 58 147 42 c 24
 139 18 138 4 132 -20 c 24
 126 -48 120 -65 116 -92 c 16x5a
 115 -95 115 -97 115 -100 c 0x62
 115 -107 117 -113 117 -120 c 0
 117 -123 116 -127 116 -130 c 8
 113 -144 109 -153 101 -165 c 24
 92 -178 85 -186 70 -192 c 24
 61 -197 51 -197 45 -191 c 24
 32 -179 32 -168 28 -151 c 16x52
 24 -134 20 -122 20 -107 c 0
 20 -102 20 -98 21 -92 c 8
 27 -62 39 -47 52 -19 c 24
 62 3 68 14 79 35 c 24
 85 46 92 51 96 62 c 24
 98 68 97 73 94 80 c 24
 90 88 83 90 79 98 c 24
 77 104 75 108 79 113 c 24
 89 122 102 117 109 127 c 24
 120 145 117 159 125 178 c 24
 139 212 151 229 165 263 c 24
 170 278 171 287 174 303 c 24
 178 327 177 342 181 367 c 24
 183 380 187 386 190 400 c 24
 196 418 204 429 205 449 c 16
 205 450 205 451 205 452 c 0x6a
 205 462 202 469 196 478 c 8
 190 488 178 488 174 498 c 16
 172 504 170 510 170 515 c 0
 170 520 171 525 174 531 c 8
 179 540 187 541 196 547 c 24
 216 560 224 578 249 578 c 24
EndSplineSet
Validated: 1
EndChar

StartChar: n
Encoding: 110 110 44
Width: 433
VWidth: 0
Flags: HMW
LayerCount: 2
Back
Fore
SplineSet
29 33 m 24
 20 33 20 42 20 50 c 0
 20 57 22 64 23 73 c 0
 32 138 42 206 61 266 c 0
 71 299 87 333 102 374 c 0
 110 396 108 410 111 433 c 16
 113 443 109 467 122 467 c 2
 124 467 l 1
 130 466 147 474 150 469 c 0
 155 462 155 456 155 447 c 24
 155 436 151 431 148 421 c 24
 144 407 140 389 134 375 c 0
 129 363 128 365 123 352 c 24
 117 333 111 322 107 302 c 16
 105 290 96 257 96 249 c 0
 96 247 99 256 99 256 c 2
 100 256 101 257 103 259 c 8
 132 293 133 318 152 356 c 24
 165 381 170 396 185 420 c 24
 207 457 244 483 279 509 c 0
 293 519 307 533 329 533 c 0
 339 533 351 530 360 529 c 0
 382 526 398 518 408 501 c 24
 411 496 413 493 413 487 c 2
 413 457 l 2
 413 424 409 399 402 371 c 24
 397 354 391 344 386 327 c 24
 368 272 355 220 335 166 c 24
 331 157 329 151 326 142 c 24
 324 135 319 130 322 124 c 24
 324 120 331 122 335 124 c 24
 339 127 338 142 347 142 c 24
 352 142 356 138 354 134 c 24
 344 114 331 106 320 86 c 24
 312 73 310 65 306 51 c 24
 303 40 293 38 286 29 c 0
 280 22 271 23 260 26 c 24
 254 27 252 33 252 38 c 24
 252 55 256 64 261 81 c 24
 283 153 308 218 332 290 c 24
 346 327 359 364 368 406 c 16
 371 422 376 442 376 460 c 0
 376 471 374 481 370 489 c 8
 367 496 366 502 359 506 c 24
 353 509 346 508 339 506 c 24
 291 486 249 456 226 411 c 25
 200 375 182 338 162 299 c 24
 137 248 125 218 102 167 c 24
 93 147 89 134 79 114 c 24
 71 95 60 79 55 57 c 24
 53 49 55 43 49 37 c 24
 43 32 37 33 29 33 c 24
EndSplineSet
Validated: 1
EndChar

StartChar: N
Encoding: 78 78 45
Width: 581
VWidth: 0
Flags: W
VStem: 20 46.4541<12.547 45.6707> 124.454 40<384.004 481.637> 258.454 34<199.668 490.33>
LayerCount: 2
Back
Fore
SplineSet
526.454101562 773 m 0
 531.454101562 781 548.454101562 779 556.454101562 769 c 0
 562.454101562 762 562.454101562 760 558.454101562 745 c 0
 553.454101562 726 547.454101562 708 543.454101562 703 c 0
 542.454101562 701 541.454101562 698 542.454101562 697 c 0
 543.454101562 695 543.454101562 693 541.454101562 692 c 0
 540.454101562 691 538.454101562 684 536.454101562 675 c 0
 535.454101562 667 533.454101562 659 532.454101562 657 c 0
 531.454101562 655 528.454101562 644 526.454101562 632 c 0
 522.454101562 608 514.454101562 582 510.454101562 573 c 0
 507.454101562 566 499.454101562 541 495.454101562 523 c 0
 489.454101562 498 488.454101562 494 485.454101562 491 c 0
 484.454101562 490 481.454101562 480 479.454101562 471 c 0
 477.454101562 461 474.454101562 452 473.454101562 450 c 0
 471.454101562 447 467.454101562 434 466.454101562 419 c 0
 465.454101562 415 463.454101562 409 461.454101562 407 c 0
 456.454101562 401 445.454101562 369 445.454101562 358 c 0
 445.454101562 353 443.454101562 345 441.454101562 340 c 0
 438.454101562 336 436.454101562 328 436.454101562 322 c 0
 436.454101562 317 434.454101562 308 431.454101562 302 c 0
 429.454101562 297 427.454101562 288 427.454101562 282 c 0
 427.454101562 276 425.454101562 271 423.454101562 270 c 0
 422.454101562 269 421.454101562 266 422.454101562 264 c 0
 423.454101562 262 422.454101562 260 421.454101562 260 c 0
 419.454101562 260 417.454101562 255 416.454101562 249 c 0
 414.454101562 238 411.454101562 224 393.454101562 154 c 0
 388.454101562 134 383.454101562 113 383.454101562 109 c 0
 383.454101562 104 382.454101562 100 381.454101562 100 c 0
 379.454101562 100 378.454101562 95 377.454101562 89 c 0
 376.513671875 61.7119140625 371.145507812 39.736328125 365.515625 39.736328125 c 0
 365.162109375 39.736328125 364.80859375 39.8232421875 364.454101562 40 c 0
 360.454101562 43 357.454101562 32 361.454101562 26 c 0
 364.454101562 22 364.454101562 19 358.454101562 14 c 0
 354.454101562 11 349.454101562 5 347.454101562 3 c 0
 345.454101562 -2 343.454101562 -2 338.454101562 0 c 0
 334.454101562 2 328.454101562 4 325.454101562 4 c 0
 318.896484375 4 299.174804688 25.9404296875 299.174804688 32.001953125 c 0
 299.174804688 32.41015625 299.264648438 32.7470703125 299.454101562 33 c 0
 299.454101562 34 298.454101562 41 295.454101562 49 c 0
 292.454101562 56 291.454101562 63 292.454101562 65 c 0
 293.454101562 66 293.454101562 68 291.454101562 68 c 0
 289.454101562 68 288.454101562 72 288.454101562 78 c 0
 288.454101562 83 286.454101562 89 284.454101562 90 c 0
 283.454101562 91 282.454101562 92 283.454101562 94 c 0
 283.454101562 95 282.454101562 115 278.454101562 139 c 0
 275.454101562 163 272.454101562 191 271.454101562 200 c 0
 270.454101562 210 267.454101562 235 264.454101562 257 c 0
 262.454101562 279 259.454101562 311 258.454101562 330 c 0
 256.454101562 375 254.454101562 393 252.454101562 396 c 0
 251.454101562 397 250.454101562 414 249.454101562 433 c 0
 248.454101562 452 245.454101562 475 243.454101562 484 c 0
 240.454101562 493 237.454101562 506 235.454101562 514 c 0
 230.454101562 534 219.454101562 568 215.454101562 578 c 0
 210.454101562 590 204.454101562 588 204.454101562 574 c 0
 204.454101562 568 203.454101562 560 201.454101562 556 c 0
 200.454101562 552 198.454101562 543 197.454101562 536 c 0
 196.454101562 529 193.454101562 515 190.454101562 506 c 0
 187.454101562 496 184.454101562 483 183.454101562 477 c 0
 181.454101562 470 178.454101562 459 175.454101562 452 c 0
 172.454101562 445 171.454101562 439 172.454101562 437 c 0
 173.454101562 436 171.454101562 434 169.454101562 433 c 0
 165.454101562 432 164.454101562 427 164.454101562 420 c 0
 164.454101562 413 162.454101562 407 159.454101562 405 c 0
 156.454101562 403 155.454101562 398 156.454101562 393 c 0
 157.454101562 389 156.454101562 384 155.454101562 384 c 0
 152.454101562 382 149.454101562 369 147.454101562 354 c 0
 147.454101562 349 146.454101562 344 145.454101562 343 c 0
 143.454101562 340 126.454101562 290 125.454101562 283 c 0
 124.454101562 281 123.454101562 271 121.454101562 262 c 0
 119.454101562 253 117.454101562 243 115.454101562 241 c 0
 113.454101562 239 111.454101562 235 110.454101562 231 c 0
 103.454101562 200 97.4541015625 183 89.4541015625 168 c 0
 87.4541015625 165 86.4541015625 155 85.4541015625 144 c 0
 84.4541015625 133 80.4541015625 112 77.4541015625 97 c 0
 74.4541015625 82 71.4541015625 64 71.4541015625 58 c 0
 70.4541015625 51 69.4541015625 44 67.4541015625 42 c 0
 65.4541015625 40 65.4541015625 35 66.4541015625 31 c 0
 67.4541015625 23 61.4541015625 17 46.4541015625 13 c 0
 36.4541015625 10 33.4541015625 10 27.4541015625 14 c 0
 21.5439453125 16.955078125 20 18.2724609375 20 29.6474609375 c 0
 20 33.6689453125 20.193359375 38.947265625 20.4541015625 46 c 0
 21.4541015625 60 22.4541015625 74 23.4541015625 77 c 0
 24.4541015625 82 27.4541015625 94 31.4541015625 123 c 0
 35.4541015625 152 47.4541015625 186 62.4541015625 214 c 0
 64.4541015625 217 65.4541015625 222 65.4541015625 224 c 0
 65.4541015625 227 68.4541015625 236 71.4541015625 243 c 0
 75.4541015625 251 77.4541015625 258 76.4541015625 260 c 0
 74.4541015625 262 76.4541015625 266 79.4541015625 270 c 0
 81.4541015625 274 83.4541015625 279 82.4541015625 280 c 0
 81.4541015625 282 82.4541015625 283 83.4541015625 285 c 0
 85.4541015625 286 87.4541015625 289 87.4541015625 293 c 0
 87.4541015625 301 105.454101562 371 113.454101562 390 c 0
 115.454101562 397 117.454101562 406 117.454101562 410 c 0
 117.454101562 414 119.454101562 417 121.454101562 417 c 0
 122.454101562 417 124.454101562 421 124.454101562 425 c 0
 124.454101562 430 126.454101562 437 128.454101562 442 c 0
 134.454101562 454 146.454101562 506 146.454101562 519 c 0
 145.454101562 525 147.454101562 530 148.454101562 530 c 0
 151.454101562 530 155.454101562 540 156.454101562 552 c 0
 157.454101562 565 167.454101562 598 172.454101562 603 c 0
 176.102539062 607.560546875 180.583984375 624.602539062 180.583984375 634.391601562 c 0
 180.583984375 635.333984375 180.541992188 636.209960938 180.454101562 637 c 0
 179.454101562 644 190.454101562 658 197.454101562 658 c 0
 202.454101562 658 225.454101562 638 231.454101562 628 c 0
 250.454101562 596 269.454101562 540 274.454101562 498 c 0
 275.454101562 490 277.454101562 477 278.454101562 471 c 0
 280.454101562 464 283.454101562 447 285.454101562 433 c 0
 286.454101562 418 289.454101562 402 290.454101562 397 c 0
 290.454101562 391 292.454101562 374 292.454101562 359 c 0
 293.454101562 317 300.454101562 251 303.454101562 240 c 0
 305.454101562 235 306.454101562 229 305.454101562 226 c 0
 304.454101562 224 305.454101562 214 308.454101562 203 c 0
 316.454101562 167 318.454101562 146 320.454101562 110 c 0
 320.454101562 100 322.454101562 89 324.454101562 86 c 0
 328.454101562 79 329.454101562 79 332.454101562 84 c 0
 335.454101562 87 339.454101562 98 342.454101562 108 c 0
 345.454101562 119 348.454101562 129 349.454101562 132 c 0
 351.454101562 135 353.454101562 143 354.454101562 150 c 0
 355.454101562 158 357.454101562 164 359.454101562 164 c 0
 361.454101562 164 364.454101562 181 365.454101562 196 c 0
 366.454101562 198 367.454101562 201 368.454101562 203 c 0
 369.454101562 205 371.454101562 212 373.454101562 220 c 0
 374.454101562 227 376.454101562 234 377.454101562 234 c 0
 379.454101562 234 380.454101562 236 380.454101562 240 c 0
 380.454101562 248 389.454101562 283 393.454101562 289 c 0
 394.454101562 292 396.454101562 301 398.454101562 310 c 0
 399.454101562 318 401.454101562 328 403.454101562 331 c 0
 405.454101562 334 408.454101562 345 410.454101562 356 c 0
 419.454101562 397 422.454101562 408 424.454101562 408 c 0
 426.454101562 408 427.454101562 412 427.454101562 417 c 0
 427.454101562 421 428.454101562 428 429.454101562 432 c 0
 431.454101562 436 433.454101562 440 433.454101562 442 c 0
 433.454101562 443 436.454101562 449 438.454101562 453 c 0
 440.454101562 458 444.454101562 472 447.454101562 483 c 0
 449.454101562 494 454.454101562 505 456.454101562 509 c 0
 458.454101562 512 461.454101562 521 462.454101562 528 c 0
 463.454101562 536 465.454101562 544 467.454101562 547 c 0
 472.454101562 558 476.454101562 567 478.454101562 577 c 0
 479.454101562 583 481.454101562 589 482.454101562 590 c 0
 483.454101562 592 485.454101562 601 486.454101562 610 c 0
 487.454101562 620 490.454101562 628 491.454101562 629 c 0
 493.454101562 629 495.454101562 634 495.454101562 640 c 0
 495.454101562 645 496.454101562 653 497.454101562 656 c 0
 499.454101562 660 502.454101562 671 504.454101562 682 c 0
 506.454101562 692 509.454101562 703 511.454101562 707 c 0
 514.454101562 710 517.454101562 725 519.454101562 740 c 0
 521.454101562 755 524.454101562 770 526.454101562 773 c 0
EndSplineSet
Validated: 1
EndChar

